<svg width="43" height="33" viewBox="0 0 43 33" fill="none" xmlns="http://www.w3.org/2000/svg">
<path d="M2.6875 29.5625H0V32.25H2.6875V29.5625Z" fill="#777777"/>
<path d="M2.6875 26.875H0V29.5625H2.6875V26.875Z" fill="#777777"/>
<path d="M2.6875 24.1875H0V26.875H2.6875V24.1875Z" fill="#777777"/>
<path d="M2.6875 21.5H0V24.1875H2.6875V21.5Z" fill="#777777"/>
<path d="M2.6875 18.8125H0V21.5H2.6875V18.8125Z" fill="#777777"/>
<path d="M2.6875 16.125H0V18.8125H2.6875V16.125Z" fill="#777777"/>
<path d="M2.6875 13.4375H0V16.125H2.6875V13.4375Z" fill="#777777"/>
<path d="M2.6875 10.75H0V13.4375H2.6875V10.75Z" fill="#777777"/>
<path d="M2.6875 8.0625H0V10.75H2.6875V8.0625Z" fill="#777777"/>
<path d="M2.6875 2.6875H0V5.375H2.6875V2.6875Z" fill="#777777"/>
<path d="M2.6875 0H0V2.6875H2.6875V0Z" fill="#777777"/>
<path d="M5.375 0H2.6875V2.6875H5.375V0Z" fill="#777777"/>
<path d="M29.5625 24.1875H26.875V26.875H29.5625V24.1875Z" fill="#777777"/>
<path d="M29.5625 21.5H26.875V24.1875H29.5625V21.5Z" fill="#777777"/>
<path d="M32.25 29.5625H29.5625V32.25H32.25V29.5625Z" fill="#777777"/>
<path d="M34.9375 29.5625H32.25V32.25H34.9375V29.5625Z" fill="#777777"/>
<path d="M37.625 29.5625H34.9375V32.25H37.625V29.5625Z" fill="#777777"/>
<path d="M37.625 24.1875H34.9375V26.875H37.625V24.1875Z" fill="#777777"/>
<path d="M37.625 21.5H34.9375V24.1875H37.625V21.5Z" fill="#777777"/>
<path d="M37.625 18.8125H34.9375V21.5H37.625V18.8125Z" fill="#777777"/>
<path d="M37.625 18.8125H34.9375V21.5H37.625V18.8125Z" fill="#777777"/>
<path d="M40.3125 29.5625H37.625V32.25H40.3125V29.5625Z" fill="#777777"/>
<path d="M29.5625 18.8125H26.875V21.5H29.5625V18.8125Z" fill="#777777"/>
<path d="M29.5625 16.125H26.875V18.8125H29.5625V16.125Z" fill="#777777"/>
<path d="M29.5625 13.4375H26.875V16.125H29.5625V13.4375Z" fill="#777777"/>
<path d="M29.5625 10.75H26.875V13.4375H29.5625V10.75Z" fill="#777777"/>
<path d="M29.5625 8.0625H26.875V10.75H29.5625V8.0625Z" fill="#777777"/>
<path d="M8.0625 5.375H5.375V8.0625H8.0625V5.375Z" fill="#777777"/>
<path d="M8.0625 0H5.375V2.6875H8.0625V0Z" fill="#777777"/>
<path d="M10.75 0H8.0625V2.6875H10.75V0Z" fill="#777777"/>
<path d="M13.4375 0H10.75V2.6875H13.4375V0Z" fill="#777777"/>
<path d="M16.125 0H13.4375V2.6875H16.125V0Z" fill="#777777"/>
<path d="M18.8125 0H16.125V2.6875H18.8125V0Z" fill="#777777"/>
<path d="M21.5 0H18.8125V2.6875H21.5V0Z" fill="#777777"/>
<path d="M26.875 0H24.1875V2.6875H26.875V0Z" fill="#777777"/>
<path d="M32.25 0H29.5625V2.6875H32.25V0Z" fill="#777777"/>
<path d="M34.9375 0H32.25V2.6875H34.9375V0Z" fill="#777777"/>
<path d="M37.625 0H34.9375V2.6875H37.625V0Z" fill="#777777"/>
<path d="M37.625 10.75H34.9375V13.4375H37.625V10.75Z" fill="#777777"/>
<path d="M37.625 16.125H34.9375V18.8125H37.625V16.125Z" fill="#777777"/>
<path d="M37.625 8.0625H34.9375V10.75H37.625V8.0625Z" fill="#777777"/>
<path d="M37.625 21.5H34.9375V24.1875H37.625V21.5Z" fill="#777777"/>
<path d="M37.625 13.4375H34.9375V16.125H37.625V13.4375Z" fill="#777777"/>
<path d="M40.3125 0H37.625V2.6875H40.3125V0Z" fill="#777777"/>
<path d="M43 0H40.3125V2.6875H43V0Z" fill="#777777"/>
<path d="M43 24.1875H40.3125V26.875H43V24.1875Z" fill="#777777"/>
<path d="M43 21.5H40.3125V24.1875H43V21.5Z" fill="#777777"/>
<path d="M43 29.5625H40.3125V32.25H43V29.5625Z" fill="#777777"/>
<path d="M43 26.875H40.3125V29.5625H43V26.875Z" fill="#777777"/>
<path d="M43 18.8125H40.3125V21.5H43V18.8125Z" fill="#777777"/>
<path d="M43 16.125H40.3125V18.8125H43V16.125Z" fill="#777777"/>
<path d="M43 13.4375H40.3125V16.125H43V13.4375Z" fill="#777777"/>
<path d="M43 10.75H40.3125V13.4375H43V10.75Z" fill="#777777"/>
<path d="M43 8.0625H40.3125V10.75H43V8.0625Z" fill="#777777"/>
<path d="M2.6875 5.375H0V8.0625H2.6875V5.375Z" fill="#777777"/>
<path d="M29.5625 5.375H26.875V8.0625H29.5625V5.375Z" fill="#777777"/>
<path d="M37.625 5.375H34.9375V8.0625H37.625V5.375Z" fill="#777777"/>
<path d="M43 5.375H40.3125V8.0625H43V5.375Z" fill="#777777"/>
<path d="M43 2.6875H40.3125V5.375H43V2.6875Z" fill="#777777"/>
<path d="M43 2.6875H40.3125V5.375H43V2.6875Z" fill="#777777"/>
<path d="M24.1875 0H21.5V2.6875H24.1875V0Z" fill="#777777"/>
<path d="M5.375 29.5625H2.6875V32.25H5.375V29.5625Z" fill="#777777"/>
<path d="M8.0625 8.0625H5.375V10.75H8.0625V8.0625Z" fill="#777777"/>
<path d="M8.0625 29.5625H5.375V32.25H8.0625V29.5625Z" fill="#777777"/>
<path d="M29.5625 0H26.875V2.6875H29.5625V0Z" fill="#777777"/>
<path d="M29.5625 29.5625H26.875V32.25H29.5625V29.5625Z" fill="#777777"/>
<path d="M10.75 29.5625H8.0625V32.25H10.75V29.5625Z" fill="#777777"/>
<path d="M13.4375 29.5625H10.75V32.25H13.4375V29.5625Z" fill="#777777"/>
<path d="M16.125 29.5625H13.4375V32.25H16.125V29.5625Z" fill="#777777"/>
<path d="M18.8125 29.5625H16.125V32.25H18.8125V29.5625Z" fill="#777777"/>
<path d="M21.5 29.5625H18.8125V32.25H21.5V29.5625Z" fill="#777777"/>
<path d="M26.875 29.5625H24.1875V32.25H26.875V29.5625Z" fill="#777777"/>
<path d="M24.1875 29.5625H21.5V32.25H24.1875V29.5625Z" fill="#777777"/>
<path d="M8.0625 10.75H5.375V13.4375H8.0625V10.75Z" fill="#777777"/>
<path d="M16.125 24.1875H13.4375V26.875H16.125V24.1875Z" fill="#777777"/>
<path d="M16.125 21.5H13.4375V24.1875H16.125V21.5Z" fill="#777777"/>
<path d="M16.125 18.8125H13.4375V21.5H16.125V18.8125Z" fill="#777777"/>
<path d="M16.125 16.125H13.4375V18.8125H16.125V16.125Z" fill="#777777"/>
<path d="M16.125 13.4375H13.4375V16.125H16.125V13.4375Z" fill="#777777"/>
<path d="M16.125 10.75H13.4375V13.4375H16.125V10.75Z" fill="#777777"/>
<path d="M16.125 8.0625H13.4375V10.75H16.125V8.0625Z" fill="#777777"/>
<path d="M16.125 5.375H13.4375V8.0625H16.125V5.375Z" fill="#777777"/>
<path d="M13.4375 24.1875H10.75V26.875H13.4375V24.1875Z" fill="#777777"/>
<path d="M13.4375 21.5H10.75V24.1875H13.4375V21.5Z" fill="#777777"/>
<path d="M13.4375 18.8125H10.75V21.5H13.4375V18.8125Z" fill="#777777"/>
<path d="M13.4375 16.125H10.75V18.8125H13.4375V16.125Z" fill="#777777"/>
<path d="M13.4375 13.4375H10.75V16.125H13.4375V13.4375Z" fill="#777777"/>
<path d="M13.4375 10.75H10.75V13.4375H13.4375V10.75Z" fill="#777777"/>
<path d="M13.4375 8.0625H10.75V10.75H13.4375V8.0625Z" fill="#777777"/>
<path d="M13.4375 5.375H10.75V8.0625H13.4375V5.375Z" fill="#777777"/>
<path d="M21.5 24.1875H18.8125V26.875H21.5V24.1875Z" fill="#777777"/>
<path d="M21.5 21.5H18.8125V24.1875H21.5V21.5Z" fill="#777777"/>
<path d="M21.5 18.8125H18.8125V21.5H21.5V18.8125Z" fill="#777777"/>
<path d="M21.5 16.125H18.8125V18.8125H21.5V16.125Z" fill="#777777"/>
<path d="M21.5 13.4375H18.8125V16.125H21.5V13.4375Z" fill="#777777"/>
<path d="M21.5 10.75H18.8125V13.4375H21.5V10.75Z" fill="#777777"/>
<path d="M21.5 8.0625H18.8125V10.75H21.5V8.0625Z" fill="#777777"/>
<path d="M21.5 5.375H18.8125V8.0625H21.5V5.375Z" fill="#777777"/>
<path d="M26.875 24.1875H24.1875V26.875H26.875V24.1875Z" fill="#777777"/>
<path d="M26.875 21.5H24.1875V24.1875H26.875V21.5Z" fill="#777777"/>
<path d="M26.875 18.8125H24.1875V21.5H26.875V18.8125Z" fill="#777777"/>
<path d="M26.875 16.125H24.1875V18.8125H26.875V16.125Z" fill="#777777"/>
<path d="M26.875 13.4375H24.1875V16.125H26.875V13.4375Z" fill="#777777"/>
<path d="M26.875 10.75H24.1875V13.4375H26.875V10.75Z" fill="#777777"/>
<path d="M26.875 8.0625H24.1875V10.75H26.875V8.0625Z" fill="#777777"/>
<path d="M26.875 5.375H24.1875V8.0625H26.875V5.375Z" fill="#777777"/>
<path d="M8.0625 21.5H5.375V24.1875H8.0625V21.5Z" fill="#777777"/>
<path d="M8.0625 24.1875H5.375V26.875H8.0625V24.1875Z" fill="#777777"/>
<path d="M8.0625 13.4375H5.375V16.125H8.0625V13.4375Z" fill="#777777"/>
<path d="M8.0625 16.125H5.375V18.8125H8.0625V16.125Z" fill="#777777"/>
<path d="M8.0625 18.8125H5.375V21.5H8.0625V18.8125Z" fill="#777777"/>
</svg>
