<svg width="36" height="32" viewBox="0 0 36 32" fill="none" xmlns="http://www.w3.org/2000/svg">
<path d="M8 0H6V2H8V0Z" fill="black"/>
<path d="M6 2H4V4H6V2Z" fill="black"/>
<path d="M4 4H2V6H4V4Z" fill="black"/>
<path d="M2 6H0V8H2V6Z" fill="black"/>
<path d="M2 8H0V10H2V8Z" fill="black"/>
<path d="M4 10H2V12H4V10Z" fill="black"/>
<path d="M6 12H4V14H6V12Z" fill="black"/>
<path d="M8 12H6V14H8V12Z" fill="black"/>
<path d="M8 10H6V12H8V10Z" fill="black"/>
<path d="M8 16H6V18H8V16Z" fill="black"/>
<path d="M8 14H6V16H8V14Z" fill="black"/>
<path d="M8 22H6V24H8V22Z" fill="black"/>
<path d="M8 20H6V22H8V20Z" fill="black"/>
<path d="M8 18H6V20H8V18Z" fill="black"/>
<path d="M8 28H6V30H8V28Z" fill="black"/>
<path d="M8 30H6V32H8V30Z" fill="black"/>
<path d="M10 30H8V32H10V30Z" fill="black"/>
<path d="M12 30H10V32H12V30Z" fill="black"/>
<path d="M14 30H12V32H14V30Z" fill="black"/>
<path d="M16 30H14V32H16V30Z" fill="black"/>
<path d="M18 30H16V32H18V30Z" fill="black"/>
<path d="M18 28H16V30H18V28Z" fill="black"/>
<path d="M24 30H22V32H24V30Z" fill="black"/>
<path d="M26 30H24V32H26V30Z" fill="black"/>
<path d="M26 28H24V30H26V28Z" fill="black"/>
<path d="M28 30H26V32H28V30Z" fill="black"/>
<path d="M28 28H26V30H28V28Z" fill="black"/>
<path d="M28 26H26V28H28V26Z" fill="black"/>
<path d="M28 24H26V26H28V24Z" fill="black"/>
<path d="M28 22H26V24H28V22Z" fill="black"/>
<path d="M30 30H28V32H30V30Z" fill="black"/>
<path d="M30 28H28V30H30V28Z" fill="black"/>
<path d="M30 26H28V28H30V26Z" fill="black"/>
<path d="M30 24H28V26H30V24Z" fill="black"/>
<path d="M30 22H28V24H30V22Z" fill="black"/>
<path d="M30 18H28V20H30V18Z" fill="black"/>
<path d="M30 16H28V18H30V16Z" fill="black"/>
<path d="M30 14H28V16H30V14Z" fill="black"/>
<path d="M30 12H28V14H30V12Z" fill="black"/>
<path d="M32 12H30V14H32V12Z" fill="black"/>
<path d="M34 10H32V12H34V10Z" fill="black"/>
<path d="M36 8H34V10H36V8Z" fill="black"/>
<path d="M36 6H34V8H36V6Z" fill="black"/>
<path d="M34 4H32V6H34V4Z" fill="black"/>
<path d="M32 2H30V4H32V2Z" fill="black"/>
<path d="M30 0H28V2H30V0Z" fill="black"/>
<path d="M28 0H26V2H28V0Z" fill="black"/>
<path d="M26 0H24V2H26V0Z" fill="black"/>
<path d="M24 2H22V4H24V2Z" fill="black"/>
<path d="M22 4H20V6H22V4Z" fill="black"/>
<path d="M18 4H16V6H18V4Z" fill="black"/>
<path d="M16 4H14V6H16V4Z" fill="black"/>
<path d="M14 2H12V4H14V2Z" fill="black"/>
<path d="M10 0H8V2H10V0Z" fill="black"/>
<path d="M12 0H10V2H12V0Z" fill="black"/>
<path d="M20 4H18V6H20V4Z" fill="black"/>
<path d="M30 10H28V12H30V10Z" fill="black"/>
<path d="M28 18H26V20H28V18Z" fill="black"/>
<path d="M28 14H26V16H28V14Z" fill="black"/>
<path d="M24 26H22V28H24V26Z" fill="black"/>
<path d="M26 24H24V26H26V24Z" fill="black"/>
<path d="M26 20H24V22H26V20Z" fill="black"/>
<path d="M30 20H28V22H30V20Z" fill="black"/>
<path d="M22 30H20V32H22V30Z" fill="black"/>
<path d="M22 28H20V30H22V28Z" fill="black"/>
<path d="M20 30H18V32H20V30Z" fill="black"/>
<path d="M8 26H6V28H8V26Z" fill="black"/>
<path d="M8 24H6V26H8V24Z" fill="black"/>
</svg>
