<svg width="36" height="36" viewBox="0 0 36 36" fill="none" xmlns="http://www.w3.org/2000/svg">
<path d="M2.25 4.5H0V6.75H2.25V4.5Z" fill="black"/>
<path d="M2.25 6.75H0V9H2.25V6.75Z" fill="black"/>
<path d="M2.25 9H0V11.25H2.25V9Z" fill="black"/>
<path d="M2.25 11.25H0V13.5H2.25V11.25Z" fill="black"/>
<path d="M2.25 13.5H0V15.75H2.25V13.5Z" fill="black"/>
<path d="M2.25 15.75H0V18H2.25V15.75Z" fill="black"/>
<path d="M2.25 18H0V20.25H2.25V18Z" fill="black"/>
<path d="M2.25 20.25H0V22.5H2.25V20.25Z" fill="black"/>
<path d="M2.25 22.5H0V24.75H2.25V22.5Z" fill="black"/>
<path d="M2.25 24.75H0V27H2.25V24.75Z" fill="black"/>
<path d="M2.25 27H0V29.25H2.25V27Z" fill="black"/>
<path d="M2.25 29.25H0V31.5H2.25V29.25Z" fill="black"/>
<path d="M27 4.5H24.75V6.75H27V4.5Z" fill="black"/>
<path d="M27 6.75H24.75V9H27V6.75Z" fill="black"/>
<path d="M27 9H24.75V11.25H27V9Z" fill="black"/>
<path d="M29.25 9H27V11.25H29.25V9Z" fill="black"/>
<path d="M31.5 9H29.25V11.25H31.5V9Z" fill="black"/>
<path d="M31.5 27H29.25V29.25H31.5V27Z" fill="black"/>
<path d="M29.25 27H27V29.25H29.25V27Z" fill="black"/>
<path d="M33.75 11.25H31.5V13.5H33.75V11.25Z" fill="black"/>
<path d="M36 13.5H33.75V15.75H36V13.5Z" fill="black"/>
<path d="M36 15.75H33.75V18H36V15.75Z" fill="black"/>
<path d="M36 18H33.75V20.25H36V18Z" fill="black"/>
<path d="M36 20.25H33.75V22.5H36V20.25Z" fill="black"/>
<path d="M36 22.5H33.75V24.75H36V22.5Z" fill="black"/>
<path d="M33.75 24.75H31.5V27H33.75V24.75Z" fill="black"/>
<path d="M27 13.5H24.75V15.75H27V13.5Z" fill="black"/>
<path d="M27 18H24.75V20.25H27V18Z" fill="black"/>
<path d="M27 20.25H24.75V22.5H27V20.25Z" fill="black"/>
<path d="M27 22.5H24.75V24.75H27V22.5Z" fill="black"/>
<path d="M29.25 22.5H27V24.75H29.25V22.5Z" fill="black"/>
<path d="M31.5 20.25H29.25V22.5H31.5V20.25Z" fill="black"/>
<path d="M31.5 18H29.25V20.25H31.5V18Z" fill="black"/>
<path d="M27 15.75H24.75V18H27V15.75Z" fill="black"/>
<path d="M31.5 15.75H29.25V18H31.5V15.75Z" fill="black"/>
<path d="M29.25 13.5H27V15.75H29.25V13.5Z" fill="black"/>
<path d="M4.5 31.5H2.25V33.75H4.5V31.5Z" fill="black"/>
<path d="M6.75 33.75H4.5V36H6.75V33.75Z" fill="black"/>
<path d="M13.5 33.75H11.25V36H13.5V33.75Z" fill="black"/>
<path d="M15.75 33.75H13.5V36H15.75V33.75Z" fill="black"/>
<path d="M9 33.75H6.75V36H9V33.75Z" fill="black"/>
<path d="M11.25 33.75H9V36H11.25V33.75Z" fill="black"/>
<path d="M18 33.75H15.75V36H18V33.75Z" fill="black"/>
<path d="M20.25 33.75H18V36H20.25V33.75Z" fill="black"/>
<path d="M22.5 33.75H20.25V36H22.5V33.75Z" fill="black"/>
<path d="M6.75 0H4.5V2.25H6.75V0Z" fill="black"/>
<path d="M13.5 0H11.25V2.25H13.5V0Z" fill="black"/>
<path d="M15.75 0H13.5V2.25H15.75V0Z" fill="black"/>
<path d="M18 0H15.75V2.25H18V0Z" fill="black"/>
<path d="M20.25 0H18V2.25H20.25V0Z" fill="black"/>
<path d="M22.5 0H20.25V2.25H22.5V0Z" fill="black"/>
<path d="M24.75 31.5H22.5V33.75H24.75V31.5Z" fill="black"/>
<path d="M4.5 6.75H2.25V9H4.5V6.75Z" fill="black"/>
<path d="M6.75 9H4.5V11.25H6.75V9Z" fill="black"/>
<path d="M13.5 9H11.25V11.25H13.5V9Z" fill="black"/>
<path d="M15.75 9H13.5V11.25H15.75V9Z" fill="black"/>
<path d="M9 0H6.75V2.25H9V0Z" fill="black"/>
<path d="M11.25 0H9V2.25H11.25V0Z" fill="black"/>
<path d="M9 9H6.75V11.25H9V9Z" fill="black"/>
<path d="M11.25 9H9V11.25H11.25V9Z" fill="black"/>
<path d="M18 9H15.75V11.25H18V9Z" fill="black"/>
<path d="M20.25 9H18V11.25H20.25V9Z" fill="black"/>
<path d="M22.5 9H20.25V11.25H22.5V9Z" fill="black"/>
<path d="M24.75 6.75H22.5V9H24.75V6.75Z" fill="black"/>
<path d="M4.5 2.25H2.25V4.5H4.5V2.25Z" fill="black"/>
<path d="M24.75 2.25H22.5V4.5H24.75V2.25Z" fill="black"/>
<path d="M27 27H24.75V29.25H27V27Z" fill="black"/>
<path d="M27 29.25H24.75V31.5H27V29.25Z" fill="black"/>
<path d="M13.5 31.5H11.25V33.75H13.5V31.5Z" fill="black"/>
<path d="M17.9775 31.5H15.7275V33.75H17.9775V31.5Z" fill="black"/>
<path d="M20.2275 29.25H17.9775V31.5H20.2275V29.25Z" fill="black"/>
<path d="M22.4775 31.5H20.2275V33.75H22.4775V31.5Z" fill="black"/>
<path d="M24.7275 29.25H22.4775V31.5H24.7275V29.25Z" fill="black"/>
<path d="M24.7275 27H22.4775V29.25H24.7275V27Z" fill="black"/>
<path d="M22.4775 27H20.2275V29.25H22.4775V27Z" fill="black"/>
<path d="M22.4775 22.5H20.2275V24.75H22.4775V22.5Z" fill="black"/>
<path d="M24.7275 24.75H22.4775V27H24.7275V24.75Z" fill="black"/>
<path d="M24.7275 20.25H22.4775V22.5H24.7275V20.25Z" fill="black"/>
<path d="M24.7275 15.75H22.4775V18H24.7275V15.75Z" fill="black"/>
</svg>
