<svg width="36" height="32" viewBox="0 0 36 32" fill="none" xmlns="http://www.w3.org/2000/svg">
<path d="M2 0H0V2H2V0Z" fill="black"/>
<path d="M4 0H2V2H4V0Z" fill="black"/>
<path d="M6 0H4V2H6V0Z" fill="black"/>
<path d="M6 2H4V4H6V2Z" fill="black"/>
<path d="M8 2H6V4H8V2Z" fill="black"/>
<path d="M10 2H8V4H10V2Z" fill="black"/>
<path d="M12 2H10V4H12V2Z" fill="black"/>
<path d="M14 2H12V4H14V2Z" fill="black"/>
<path d="M16 2H14V4H16V2Z" fill="black"/>
<path d="M18 2H16V4H18V2Z" fill="black"/>
<path d="M20 2H18V4H20V2Z" fill="black"/>
<path d="M8 22H6V24H8V22Z" fill="black"/>
<path d="M10 30H8V32H10V30Z" fill="black"/>
<path d="M12 30H10V32H12V30Z" fill="black"/>
<path d="M10 22H8V24H10V22Z" fill="black"/>
<path d="M12 22H10V24H12V22Z" fill="black"/>
<path d="M10 24H8V26H10V24Z" fill="black"/>
<path d="M12 24H10V26H12V24Z" fill="black"/>
<path d="M8 28H6V30H8V28Z" fill="black"/>
<path d="M8 26H6V28H8V26Z" fill="black"/>
<path d="M14 26H12V28H14V26Z" fill="black"/>
<path d="M14 28H12V30H14V28Z" fill="black"/>
<path d="M28 30H26V32H28V30Z" fill="black"/>
<path d="M30 30H28V32H30V30Z" fill="black"/>
<path d="M28 22H26V24H28V22Z" fill="black"/>
<path d="M30 22H28V24H30V22Z" fill="black"/>
<path d="M28 24H26V26H28V24Z" fill="black"/>
<path d="M30 24H28V26H30V24Z" fill="black"/>
<path d="M26 28H24V30H26V28Z" fill="black"/>
<path d="M26 26H24V28H26V26Z" fill="black"/>
<path d="M32 26H30V28H32V26Z" fill="black"/>
<path d="M32 28H30V30H32V28Z" fill="black"/>
<path d="M14 22H12V24H14V22Z" fill="black"/>
<path d="M16 22H14V24H16V22Z" fill="black"/>
<path d="M18 22H16V24H18V22Z" fill="black"/>
<path d="M20 22H18V24H20V22Z" fill="black"/>
<path d="M22 22H20V24H22V22Z" fill="black"/>
<path d="M24 22H22V24H24V22Z" fill="black"/>
<path d="M26 22H24V24H26V22Z" fill="black"/>
<path d="M32 22H30V24H32V22Z" fill="black"/>
<path d="M34 22H32V24H34V22Z" fill="black"/>
<path d="M12 18H10V20H12V18Z" fill="black"/>
<path d="M14 18H12V20H14V18Z" fill="black"/>
<path d="M22 2H20V4H22V2Z" fill="black"/>
<path d="M24 2H22V4H24V2Z" fill="black"/>
<path d="M26 2H24V4H26V2Z" fill="black"/>
<path d="M28 2H26V4H28V2Z" fill="black"/>
<path d="M30 2H28V4H30V2Z" fill="black"/>
<path d="M32 2H30V4H32V2Z" fill="black"/>
<path d="M34 2H32V4H34V2Z" fill="black"/>
<path d="M36 2H34V4H36V2Z" fill="black"/>
<path d="M36 4H34V6H36V4Z" fill="black"/>
<path d="M36 6H34V8H36V6Z" fill="black"/>
<path d="M36 8H34V10H36V8Z" fill="black"/>
<path d="M36 10H34V12H36V10Z" fill="black"/>
<path d="M36 12H34V14H36V12Z" fill="black"/>
<path d="M34 14H32V16H34V14Z" fill="black"/>
<path d="M8 4H6V6H8V4Z" fill="black"/>
<path d="M8 6H6V8H8V6Z" fill="black"/>
<path d="M8 8H6V10H8V8Z" fill="black"/>
<path d="M8 10H6V12H8V10Z" fill="black"/>
<path d="M10 12H8V14H10V12Z" fill="black"/>
<path d="M10 14H8V16H10V14Z" fill="black"/>
<path d="M10 16H8V18H10V16Z" fill="black"/>
<path d="M18 16H16V18H18V16Z" fill="black"/>
<path d="M20 16H18V18H20V16Z" fill="black"/>
<path d="M16 18H14V20H16V18Z" fill="black"/>
<path d="M24 16H22V18H24V16Z" fill="black"/>
<path d="M26 14H24V16H26V14Z" fill="black"/>
<path d="M22 16H20V18H22V16Z" fill="black"/>
<path d="M30 14H28V16H30V14Z" fill="black"/>
<path d="M32 14H30V16H32V14Z" fill="black"/>
<path d="M28 14H26V16H28V14Z" fill="black"/>
<path d="M10 18H8V20H10V18Z" fill="black"/>
<path d="M8 18H6V20H8V18Z" fill="black"/>
<path d="M6 20H4V22H6V20Z" fill="black"/>
<path d="M6 22H4V24H6V22Z" fill="black"/>
</svg>
