<svg width="39" height="34" viewBox="0 0 39 34" fill="none" xmlns="http://www.w3.org/2000/svg">
<path d="M2.4375 17H0V19.4286H2.4375V17Z" fill="black"/>
<path d="M2.4375 19.4286H0V21.8572H2.4375V19.4286Z" fill="black"/>
<path d="M2.4375 21.8572H0V24.2857H2.4375V21.8572Z" fill="black"/>
<path d="M2.4375 24.2858H0V26.7143H2.4375V24.2858Z" fill="black"/>
<path d="M2.4375 26.7142H0V29.1428H2.4375V26.7142Z" fill="black"/>
<path d="M2.4375 29.1428H0V31.5714H2.4375V29.1428Z" fill="black"/>
<path d="M2.4375 7.28577H0V9.71434H2.4375V7.28577Z" fill="black"/>
<path d="M2.4375 4.85718H0V7.28575H2.4375V4.85718Z" fill="black"/>
<path d="M4.875 2.42859H2.4375V4.85716H4.875V2.42859Z" fill="black"/>
<path d="M7.3125 0H4.875V2.42857H7.3125V0Z" fill="black"/>
<path d="M9.75 4.85718H7.3125V7.28575H9.75V4.85718Z" fill="black"/>
<path d="M12.1875 4.85718H9.75V7.28575H12.1875V4.85718Z" fill="black"/>
<path d="M14.625 4.85718H12.1875V7.28575H14.625V4.85718Z" fill="black"/>
<path d="M17.0625 4.85718H14.625V7.28575H17.0625V4.85718Z" fill="black"/>
<path d="M19.5 4.85718H17.0625V7.28575H19.5V4.85718Z" fill="black"/>
<path d="M21.9375 4.85718H19.5V7.28575H21.9375V4.85718Z" fill="black"/>
<path d="M24.375 4.85718H21.9375V7.28575H24.375V4.85718Z" fill="black"/>
<path d="M26.8125 4.85718H24.375V7.28575H26.8125V4.85718Z" fill="black"/>
<path d="M29.25 4.85718H26.8125V7.28575H29.25V4.85718Z" fill="black"/>
<path d="M31.6875 4.85718H29.25V7.28575H31.6875V4.85718Z" fill="black"/>
<path d="M9.75 0H7.3125V2.42857H9.75V0Z" fill="black"/>
<path d="M12.1875 0H9.75V2.42857H12.1875V0Z" fill="black"/>
<path d="M14.625 0H12.1875V2.42857H14.625V0Z" fill="black"/>
<path d="M17.0625 0H14.625V2.42857H17.0625V0Z" fill="black"/>
<path d="M19.5 0H17.0625V2.42857H19.5V0Z" fill="black"/>
<path d="M21.9375 0H19.5V2.42857H21.9375V0Z" fill="black"/>
<path d="M24.375 0H21.9375V2.42857H24.375V0Z" fill="black"/>
<path d="M26.8125 0H24.375V2.42857H26.8125V0Z" fill="black"/>
<path d="M29.25 0H26.8125V2.42857H29.25V0Z" fill="black"/>
<path d="M31.6875 0H29.25V2.42857H31.6875V0Z" fill="black"/>
<path d="M34.125 0H31.6875V2.42857H34.125V0Z" fill="black"/>
<path d="M36.5625 2.42859H34.125V4.85716H36.5625V2.42859Z" fill="black"/>
<path d="M34.125 4.85718H31.6875V7.28575H34.125V4.85718Z" fill="black"/>
<path d="M24.375 14.5714H21.9375V17H24.375V14.5714Z" fill="black"/>
<path d="M26.8125 14.5714H24.375V17H26.8125V14.5714Z" fill="black"/>
<path d="M29.25 14.5714H26.8125V17H29.25V14.5714Z" fill="black"/>
<path d="M31.6875 14.5714H29.25V17H31.6875V14.5714Z" fill="black"/>
<path d="M34.125 14.5714H31.6875V17H34.125V14.5714Z" fill="black"/>
<path d="M36.5625 14.5714H34.125V17H36.5625V14.5714Z" fill="black"/>
<path d="M24.375 24.2858H21.9375V26.7143H24.375V24.2858Z" fill="black"/>
<path d="M21.9375 21.8572H19.5V24.2857H21.9375V21.8572Z" fill="black"/>
<path d="M21.9375 19.4286H19.5V21.8572H21.9375V19.4286Z" fill="black"/>
<path d="M26.8125 19.4286H24.375V21.8572H26.8125V19.4286Z" fill="black"/>
<path d="M21.9375 17H19.5V19.4286H21.9375V17Z" fill="black"/>
<path d="M26.8125 24.2858H24.375V26.7143H26.8125V24.2858Z" fill="black"/>
<path d="M29.25 24.2858H26.8125V26.7143H29.25V24.2858Z" fill="black"/>
<path d="M31.6875 24.2858H29.25V26.7143H31.6875V24.2858Z" fill="black"/>
<path d="M34.125 24.2858H31.6875V26.7143H34.125V24.2858Z" fill="black"/>
<path d="M36.5625 24.2858H34.125V26.7143H36.5625V24.2858Z" fill="black"/>
<path d="M2.4375 9.71423H0V12.1428H2.4375V9.71423Z" fill="black"/>
<path d="M2.4375 12.1428H0V14.5714H2.4375V12.1428Z" fill="black"/>
<path d="M2.4375 14.5714H0V17H2.4375V14.5714Z" fill="black"/>
<path d="M39 17H36.5625V19.4286H39V17Z" fill="black"/>
<path d="M39 19.4286H36.5625V21.8572H39V19.4286Z" fill="black"/>
<path d="M39 21.8572H36.5625V24.2857H39V21.8572Z" fill="black"/>
<path d="M39 24.2858H36.5625V26.7143H39V24.2858Z" fill="black"/>
<path d="M36.5625 26.7142H34.125V29.1428H36.5625V26.7142Z" fill="black"/>
<path d="M36.5625 29.1428H34.125V31.5714H36.5625V29.1428Z" fill="black"/>
<path d="M39 14.5714H36.5625V17H39V14.5714Z" fill="black"/>
<path d="M36.5625 9.71423H34.125V12.1428H36.5625V9.71423Z" fill="black"/>
<path d="M36.5625 12.1428H34.125V14.5714H36.5625V12.1428Z" fill="black"/>
<path d="M36.5625 7.28577H34.125V9.71434H36.5625V7.28577Z" fill="black"/>
<path d="M36.5625 4.85718H34.125V7.28575H36.5625V4.85718Z" fill="black"/>
<path d="M4.875 31.5714H2.4375V34H4.875V31.5714Z" fill="black"/>
<path d="M7.3125 31.5714H4.875V34H7.3125V31.5714Z" fill="black"/>
<path d="M9.75 31.5714H7.3125V34H9.75V31.5714Z" fill="black"/>
<path d="M12.1875 31.5714H9.75V34H12.1875V31.5714Z" fill="black"/>
<path d="M14.625 31.5714H12.1875V34H14.625V31.5714Z" fill="black"/>
<path d="M17.0625 31.5714H14.625V34H17.0625V31.5714Z" fill="black"/>
<path d="M19.5 31.5714H17.0625V34H19.5V31.5714Z" fill="black"/>
<path d="M21.9375 31.5714H19.5V34H21.9375V31.5714Z" fill="black"/>
<path d="M24.375 31.5714H21.9375V34H24.375V31.5714Z" fill="black"/>
<path d="M26.8125 31.5714H24.375V34H26.8125V31.5714Z" fill="black"/>
<path d="M29.25 31.5714H26.8125V34H29.25V31.5714Z" fill="black"/>
<path d="M31.6875 31.5714H29.25V34H31.6875V31.5714Z" fill="black"/>
<path d="M34.125 31.5714H31.6875V34H34.125V31.5714Z" fill="black"/>
</svg>
