<svg width="44" height="33" viewBox="0 0 44 33" fill="none" xmlns="http://www.w3.org/2000/svg">
<path d="M2.75 5.5H0V8.25H2.75V5.5Z" fill="#777777"/>
<path d="M2.75 8.25H0V11H2.75V8.25Z" fill="#777777"/>
<path d="M2.75 11H0V13.75H2.75V11Z" fill="#777777"/>
<path d="M2.75 13.75H0V16.5H2.75V13.75Z" fill="#777777"/>
<path d="M2.75 16.5H0V19.25H2.75V16.5Z" fill="#777777"/>
<path d="M2.75 19.25H0V22H2.75V19.25Z" fill="#777777"/>
<path d="M2.75 22H0V24.75H2.75V22Z" fill="#777777"/>
<path d="M2.75 24.75H0V27.5H2.75V24.75Z" fill="#777777"/>
<path d="M41.25 0H38.5V2.75H41.25V0Z" fill="#777777"/>
<path d="M44 2.75H41.25V5.5H44V2.75Z" fill="#777777"/>
<path d="M44 5.5H41.25V8.25H44V5.5Z" fill="#777777"/>
<path d="M44 8.25H41.25V11H44V8.25Z" fill="#777777"/>
<path d="M44 11H41.25V13.75H44V11Z" fill="#777777"/>
<path d="M44 13.75H41.25V16.5H44V13.75Z" fill="#777777"/>
<path d="M44 16.5H41.25V19.25H44V16.5Z" fill="#777777"/>
<path d="M44 19.25H41.25V22H44V19.25Z" fill="#777777"/>
<path d="M44 22H41.25V24.75H44V22Z" fill="#777777"/>
<path d="M44 24.75H41.25V27.5H44V24.75Z" fill="#777777"/>
<path d="M2.75 27.5H0V30.25H2.75V27.5Z" fill="#777777"/>
<path d="M5.5 30.25H2.75V33H5.5V30.25Z" fill="#777777"/>
<path d="M8.25 30.25H5.5V33H8.25V30.25Z" fill="#777777"/>
<path d="M11 30.25H8.25V33H11V30.25Z" fill="#777777"/>
<path d="M13.75 30.25H11V33H13.75V30.25Z" fill="#777777"/>
<path d="M16.5 30.25H13.75V33H16.5V30.25Z" fill="#777777"/>
<path d="M19.25 30.25H16.5V33H19.25V30.25Z" fill="#777777"/>
<path d="M22 30.25H19.25V33H22V30.25Z" fill="#777777"/>
<path d="M24.75 30.25H22V33H24.75V30.25Z" fill="#777777"/>
<path d="M27.5 30.25H24.75V33H27.5V30.25Z" fill="#777777"/>
<path d="M30.25 30.25H27.5V33H30.25V30.25Z" fill="#777777"/>
<path d="M33 30.25H30.25V33H33V30.25Z" fill="#777777"/>
<path d="M35.75 30.25H33V33H35.75V30.25Z" fill="#777777"/>
<path d="M38.5 30.25H35.75V33H38.5V30.25Z" fill="#777777"/>
<path d="M38.5 0H35.75V2.75H38.5V0Z" fill="#777777"/>
<path d="M44 27.5H41.25V30.25H44V27.5Z" fill="#777777"/>
<path d="M41.25 30.25H38.5V33H41.25V30.25Z" fill="#777777"/>
<path d="M5.5 0H2.75V2.75H5.5V0Z" fill="#777777"/>
<path d="M2.75 2.75H0V5.5H2.75V2.75Z" fill="#777777"/>
<path d="M8.25 0H5.5V2.75H8.25V0Z" fill="#777777"/>
<path d="M11 0H8.25V2.75H11V0Z" fill="#777777"/>
<path d="M13.75 0H11V2.75H13.75V0Z" fill="#777777"/>
<path d="M11 8.25H8.25V11H11V8.25Z" fill="#777777"/>
<path d="M13.75 8.25H11V11H13.75V8.25Z" fill="#777777"/>
<path d="M16.5 8.25H13.75V11H16.5V8.25Z" fill="#777777"/>
<path d="M11 11H8.25V13.75H11V11Z" fill="#777777"/>
<path d="M13.75 11H11V13.75H13.75V11Z" fill="#777777"/>
<path d="M16.5 11H13.75V13.75H16.5V11Z" fill="#777777"/>
<path d="M16.5 0H13.75V2.75H16.5V0Z" fill="#777777"/>
<path d="M19.25 0H16.5V2.75H19.25V0Z" fill="#777777"/>
<path d="M22 0H19.25V2.75H22V0Z" fill="#777777"/>
<path d="M24.75 0H22V2.75H24.75V0Z" fill="#777777"/>
<path d="M27.5 0H24.75V2.75H27.5V0Z" fill="#777777"/>
<path d="M30.25 0H27.5V2.75H30.25V0Z" fill="#777777"/>
<path d="M33 0H30.25V2.75H33V0Z" fill="#777777"/>
<path d="M35.75 0H33V2.75H35.75V0Z" fill="#777777"/>
</svg>
