<svg width="30" height="30" viewBox="0 0 30 30" fill="none" xmlns="http://www.w3.org/2000/svg">
<path d="M6.56345 7.85522H4.9856V23.6644H6.56345V7.85522Z" fill="black"/>
<path d="M8.14133 4.73684H6.56348V7.85526H8.14133V4.73684Z" fill="black"/>
<path d="M8.14133 23.6643H6.56348V26.842H8.14133V23.6643Z" fill="black"/>
<path d="M8.14124 3.15789V4.73684H11.2969V3.15789H8.14124Z" fill="black"/>
<path d="M17.5886 3.15789V4.73684H20.7838V3.15789H17.5886Z" fill="black"/>
<path d="M11.297 1.57901V3.15796L17.5887 3.15796V1.57901L11.297 1.57901Z" fill="black"/>
<path d="M22.3419 23.6643H23.9395L23.9395 7.85514H22.3419L22.3419 23.6643Z" fill="black"/>
<path d="M20.7838 26.842H22.3419V23.6644H20.7838V26.842Z" fill="black"/>
<path d="M20.7838 7.85522H22.3419V4.73681H20.7838V7.85522Z" fill="black"/>
<path d="M20.7838 28.421V26.842H17.5887V28.421H20.7838Z" fill="black"/>
<path d="M11.297 28.421V26.842H8.14129V28.421H11.297Z" fill="black"/>
<path d="M17.5886 30V28.421H11.2969V30H17.5886Z" fill="black"/>
<path d="M16.0108 9.4736V6.31571H14.4329V9.4736H12.8945V11.0131H17.5886V12.6315H19.1665V11.0131V9.4736H16.0108Z" fill="black"/>
<path d="M12.8946 11.0131H11.297V20.4868H12.8946V11.0131Z" fill="black"/>
<path d="M16.0108 15.7894V17.3683H17.5886V20.4868H12.8945V22.0854H14.4329V25.2433H16.0108V22.0854H19.1665V15.7894H16.0108Z" fill="black"/>
<path d="M20.7837 7.8558V11.0137H19.1664V12.6321H17.5886V11.0137H14.4329V18.9479H17.5886V17.369H16.0107V15.79H17.5886V14.1913H20.7837V20.4874H19.1664V22.0861H17.5886V23.665H16.0107V25.2439H14.4329V22.0861H12.8945V20.4874H9.71906V11.0137H11.2969V7.8558H12.8945V6.31633H16.0107V4.73738H11.2969V6.31633H9.71906V7.8558H8.14121V20.4874H6.56335V23.665H8.14121V26.8426H11.2969V28.4216H17.5886V26.8426H20.7837V23.665H22.3419V7.8558H20.7837Z" fill="#FEEE00"/>
<path d="M20.7838 4.73701H17.5886V7.85544H20.7838V4.73701Z" fill="#FEEE00"/>
<path d="M12.8946 7.85522H11.297V9.47365H12.8946V7.85522Z" fill="#E9BC00"/>
<path d="M17.5887 22.0856H16.0109V23.6645H17.5887V22.0856Z" fill="#E9BC00"/>
<path d="M23.9396 23.6645H22.342V25.2434H23.9396V23.6645Z" fill="#E9BC00"/>
<path d="M11.2968 1.57888H9.71899V3.15783H11.2968V1.57888Z" fill="#E9BC00"/>
<path d="M17.5887 4.73684H16.0109V9.47368H19.1666V11.0132H20.7839V7.85526H17.5887V4.73684Z" fill="#E9BC00"/>
<path d="M14.4329 11.0132H12.8945V20.4869H17.5886V18.9474H14.4329V11.0132Z" fill="#E9BC00"/>
<path d="M17.5886 15.7895H19.1665V20.4868H20.7838V14.1908H17.5886V15.7895Z" fill="#E9BC00"/>
<path d="M19.1665 1.57895V0H12.8945V1.57895H17.5886V3.15789H20.7838V4.73684H22.3419V1.57895H19.1665Z" fill="#E9BC00"/>
<path d="M23.9396 6.31579V4.73684H22.342V7.85526H23.9396V23.6645H25.4977V6.31579H23.9396Z" fill="#E9BC00"/>
<path d="M17.5886 3.15796H11.2969V4.73691H17.5886V3.15796Z" fill="white"/>
<path d="M8.14111 7.85526H9.71896V6.31579H11.2968V4.73684H8.14111V7.85526Z" fill="white"/>
<path d="M8.1412 7.85522H6.56335V20.4868H8.1412V7.85522Z" fill="white"/>
<path d="M14.4329 6.31571H12.8945V9.4736H14.4329V6.31571Z" fill="white"/>
<path d="M12.8944 9.47367H11.2969V11.0131H12.8944V9.47367Z" fill="white"/>
<path d="M11.2968 11.0132H9.71899V20.4869H11.2968V11.0132Z" fill="white"/>
</svg>
