<svg width="36" height="32" viewBox="0 0 36 32" fill="none" xmlns="http://www.w3.org/2000/svg">
<path d="M34 30H32V32H34V30Z" fill="black"/>
<path d="M34 28H32V30H34V28Z" fill="black"/>
<path d="M34 26H32V28H34V26Z" fill="black"/>
<path d="M20 24H18V26H20V24Z" fill="black"/>
<path d="M22 24H20V26H22V24Z" fill="black"/>
<path d="M14 24H12V26H14V24Z" fill="black"/>
<path d="M16 24H14V26H16V24Z" fill="black"/>
<path d="M18 24H16V26H18V24Z" fill="black"/>
<path d="M24 24H22V26H24V24Z" fill="black"/>
<path d="M26 24H24V26H26V24Z" fill="black"/>
<path d="M34 24H32V26H34V24Z" fill="black"/>
<path d="M36 22H34V24H36V22Z" fill="black"/>
<path d="M36 20H34V22H36V20Z" fill="black"/>
<path d="M36 18H34V20H36V18Z" fill="black"/>
<path d="M36 16H34V18H36V16Z" fill="black"/>
<path d="M36 14H34V16H36V14Z" fill="black"/>
<path d="M36 12H34V14H36V12Z" fill="black"/>
<path d="M34 10H32V12H34V10Z" fill="black"/>
<path d="M32 10H30V12H32V10Z" fill="black"/>
<path d="M28 4H26V6H28V4Z" fill="black"/>
<path d="M28 2H26V4H28V2Z" fill="black"/>
<path d="M26 0H24V2H26V0Z" fill="black"/>
<path d="M32 30H30V32H32V30Z" fill="black"/>
<path d="M30 28H28V30H30V28Z" fill="black"/>
<path d="M28 26H26V28H28V26Z" fill="black"/>
<path d="M2 22L4 22L4 20L2 20L2 22Z" fill="black"/>
<path d="M2 20L4 20L4 18L2 18L2 20Z" fill="black"/>
<path d="M2 18L4 18L4 16L2 16L2 18Z" fill="black"/>
<path d="M4 22L6 22L6 20L4 20L4 22Z" fill="black"/>
<path d="M6 20L8 20L8 18L6 18L6 20Z" fill="black"/>
<path d="M8 18L10 18L10 16L8 16L8 18Z" fill="black"/>
<path d="M12 22H10V24H12V22Z" fill="black"/>
<path d="M12 20H10V22H12V20Z" fill="black"/>
<path d="M2 4H0V6H2V4Z" fill="black"/>
<path d="M28 6H26V8H28V6Z" fill="black"/>
<path d="M2 6H0V8H2V6Z" fill="black"/>
<path d="M28 8H26V10H28V8Z" fill="black"/>
<path d="M2 8H0V10H2V8Z" fill="black"/>
<path d="M28 10H26V12H28V10Z" fill="black"/>
<path d="M2 10H0V12H2V10Z" fill="black"/>
<path d="M28 12H26V14H28V12Z" fill="black"/>
<path d="M2 12H0V14H2V12Z" fill="black"/>
<path d="M4 14H2V16H4V14Z" fill="black"/>
<path d="M2 2H0V4H2V2Z" fill="black"/>
<path d="M4 0H2V2H4V0Z" fill="black"/>
<path d="M6 0H4V2H6V0Z" fill="black"/>
<path d="M8 0H6V2H8V0Z" fill="black"/>
<path d="M10 0H8V2H10V0Z" fill="black"/>
<path d="M12 0H10V2H12V0Z" fill="black"/>
<path d="M20 0H18V2H20V0Z" fill="black"/>
<path d="M22 0H20V2H22V0Z" fill="black"/>
<path d="M14 0H12V2H14V0Z" fill="black"/>
<path d="M16 0H14V2H16V0Z" fill="black"/>
<path d="M18 0H16V2H18V0Z" fill="black"/>
<path d="M26 14H24V16H26V14Z" fill="black"/>
<path d="M12 14H10V16H12V14Z" fill="black"/>
<path d="M20 14H18V16H20V14Z" fill="black"/>
<path d="M22 14H20V16H22V14Z" fill="black"/>
<path d="M24 0H22V2H24V0Z" fill="black"/>
<path d="M24 14H22V16H24V14Z" fill="black"/>
<path d="M14 14H12V16H14V14Z" fill="black"/>
<path d="M16 14H14V16H16V14Z" fill="black"/>
<path d="M18 14H16V16H18V14Z" fill="black"/>
</svg>
