<svg width="44" height="33" viewBox="0 0 44 33" fill="none" xmlns="http://www.w3.org/2000/svg">
<path d="M2.75 5.5H0V8.25H2.75V5.5Z" fill="#777777"/>
<path d="M2.75 8.25H0V11H2.75V8.25Z" fill="#777777"/>
<path d="M2.75 11H0V13.75H2.75V11Z" fill="#777777"/>
<path d="M2.75 13.75H0V16.5H2.75V13.75Z" fill="#777777"/>
<path d="M2.75 16.5H0V19.25H2.75V16.5Z" fill="#777777"/>
<path d="M2.75 19.25H0V22H2.75V19.25Z" fill="#777777"/>
<path d="M2.75 22H0V24.75H2.75V22Z" fill="#777777"/>
<path d="M2.75 24.75H0V27.5H2.75V24.75Z" fill="#777777"/>
<path d="M41.25 0H38.5V2.75H41.25V0Z" fill="#777777"/>
<path d="M44 2.75H41.25V5.5H44V2.75Z" fill="#777777"/>
<path d="M44 5.5H41.25V8.25H44V5.5Z" fill="#777777"/>
<path d="M44 8.25H41.25V11H44V8.25Z" fill="#777777"/>
<path d="M44 11H41.25V13.75H44V11Z" fill="#777777"/>
<path d="M44 13.75H41.25V16.5H44V13.75Z" fill="#777777"/>
<path d="M44 16.5H41.25V19.25H44V16.5Z" fill="#777777"/>
<path d="M44 19.25H41.25V22H44V19.25Z" fill="#777777"/>
<path d="M44 22H41.25V24.75H44V22Z" fill="#777777"/>
<path d="M44 24.75H41.25V27.5H44V24.75Z" fill="#777777"/>
<path d="M2.75 27.5H0V30.25H2.75V27.5Z" fill="#777777"/>
<path d="M5.5 30.25H2.75V33H5.5V30.25Z" fill="#777777"/>
<path d="M8.25 30.25H5.5V33H8.25V30.25Z" fill="#777777"/>
<path d="M8.25 19.25H5.5V22H8.25V19.25Z" fill="#777777"/>
<path d="M8.25 22H5.5V24.75H8.25V22Z" fill="#777777"/>
<path d="M11 24.75H8.25V27.5H11V24.75Z" fill="#777777"/>
<path d="M13.75 24.75H11V27.5H13.75V24.75Z" fill="#777777"/>
<path d="M11 30.25H8.25V33H11V30.25Z" fill="#777777"/>
<path d="M13.75 30.25H11V33H13.75V30.25Z" fill="#777777"/>
<path d="M16.5 30.25H13.75V33H16.5V30.25Z" fill="#777777"/>
<path d="M19.25 30.25H16.5V33H19.25V30.25Z" fill="#777777"/>
<path d="M22 30.25H19.25V33H22V30.25Z" fill="#777777"/>
<path d="M24.75 30.25H22V33H24.75V30.25Z" fill="#777777"/>
<path d="M27.5 30.25H24.75V33H27.5V30.25Z" fill="#777777"/>
<path d="M30.25 30.25H27.5V33H30.25V30.25Z" fill="#777777"/>
<path d="M33 30.25H30.25V33H33V30.25Z" fill="#777777"/>
<path d="M35.75 30.25H33V33H35.75V30.25Z" fill="#777777"/>
<path d="M38.5 30.25H35.75V33H38.5V30.25Z" fill="#777777"/>
<path d="M38.5 0H35.75V2.75H38.5V0Z" fill="#777777"/>
<path d="M35.75 5.5H33V8.25H35.75V5.5Z" fill="#777777"/>
<path d="M38.5 8.25H35.75V11H38.5V8.25Z" fill="#777777"/>
<path d="M38.5 11H35.75V13.75H38.5V11Z" fill="#777777"/>
<path d="M33 5.5H30.25V8.25H33V5.5Z" fill="#777777"/>
<path d="M44 27.5H41.25V30.25H44V27.5Z" fill="#777777"/>
<path d="M41.25 30.25H38.5V33H41.25V30.25Z" fill="#777777"/>
<path d="M38.5 19.25H35.75V22H38.5V19.25Z" fill="#777777"/>
<path d="M33 24.75H30.25V27.5H33V24.75Z" fill="#777777"/>
<path d="M38.5 22H35.75V24.75H38.5V22Z" fill="#777777"/>
<path d="M35.75 24.75H33V27.5H35.75V24.75Z" fill="#777777"/>
<path d="M5.5 0H2.75V2.75H5.5V0Z" fill="#777777"/>
<path d="M2.75 2.75H0V5.5H2.75V2.75Z" fill="#777777"/>
<path d="M8.25 0H5.5V2.75H8.25V0Z" fill="#777777"/>
<path d="M8.25 11H5.5V13.75H8.25V11Z" fill="#777777"/>
<path d="M11 5.5H8.25V8.25H11V5.5Z" fill="#777777"/>
<path d="M8.25 8.25H5.5V11H8.25V8.25Z" fill="#777777"/>
<path d="M13.75 5.5H11V8.25H13.75V5.5Z" fill="#777777"/>
<path d="M22 8.25H19.25V11H22V8.25Z" fill="#777777"/>
<path d="M19.25 11H16.5V13.75H19.25V11Z" fill="#777777"/>
<path d="M16.5 13.75H13.75V16.5H16.5V13.75Z" fill="#777777"/>
<path d="M16.5 16.5H13.75V19.25H16.5V16.5Z" fill="#777777"/>
<path d="M19.25 19.25H16.5V22H19.25V19.25Z" fill="#777777"/>
<path d="M22 22H19.25V24.75H22V22Z" fill="#777777"/>
<path d="M24.75 22H22V24.75H24.75V22Z" fill="#777777"/>
<path d="M24.75 24.75H22V27.5H24.75V24.75Z" fill="#777777"/>
<path d="M27.5 22H24.75V24.75H27.5V22Z" fill="#777777"/>
<path d="M30.25 19.25H27.5V22H30.25V19.25Z" fill="#777777"/>
<path d="M30.25 16.5H27.5V19.25H30.25V16.5Z" fill="#777777"/>
<path d="M27.5 16.5H24.75V19.25H27.5V16.5Z" fill="#777777"/>
<path d="M24.75 16.5H22V19.25H24.75V16.5Z" fill="#777777"/>
<path d="M27.5 8.25H24.75V11H27.5V8.25Z" fill="#777777"/>
<path d="M24.75 8.25H22V11H24.75V8.25Z" fill="#777777"/>
<path d="M24.75 5.5H22V8.25H24.75V5.5Z" fill="#777777"/>
<path d="M30.25 11H27.5V13.75H30.25V11Z" fill="#777777"/>
<path d="M11 0H8.25V2.75H11V0Z" fill="#777777"/>
<path d="M13.75 0H11V2.75H13.75V0Z" fill="#777777"/>
<path d="M16.5 0H13.75V2.75H16.5V0Z" fill="#777777"/>
<path d="M19.25 0H16.5V2.75H19.25V0Z" fill="#777777"/>
<path d="M22 0H19.25V2.75H22V0Z" fill="#777777"/>
<path d="M24.75 0H22V2.75H24.75V0Z" fill="#777777"/>
<path d="M27.5 0H24.75V2.75H27.5V0Z" fill="#777777"/>
<path d="M30.25 0H27.5V2.75H30.25V0Z" fill="#777777"/>
<path d="M33 0H30.25V2.75H33V0Z" fill="#777777"/>
<path d="M35.75 0H33V2.75H35.75V0Z" fill="#777777"/>
</svg>
