<svg width="33" height="25" viewBox="0 0 33 25" fill="none" xmlns="http://www.w3.org/2000/svg">
<g clip-path="url(#clip0)">
<path d="M24.375 22.9166H22.3438V25H24.375V22.9166Z" fill="#777777"/>
<path d="M22.3438 20.8334H20.3125V22.9167H22.3438V20.8334Z" fill="#777777"/>
<path d="M22.3438 18.75H20.3125V20.8333H22.3438V18.75Z" fill="#777777"/>
<path d="M26.4062 22.9166H24.375V25H26.4062V22.9166Z" fill="#777777"/>
<path d="M28.4375 20.8334H26.4062V22.9167H28.4375V20.8334Z" fill="#777777"/>
<path d="M24.375 16.6666H22.3438V18.75H24.375V16.6666Z" fill="#777777"/>
<path d="M26.4062 16.6666H24.375V18.75H26.4062V16.6666Z" fill="#777777"/>
<path d="M28.4375 18.75H26.4062V20.8333H28.4375V18.75Z" fill="#777777"/>
<path d="M30.4688 18.75H28.4375V20.8333H30.4688V18.75Z" fill="#777777"/>
<path d="M32.5 18.75H30.4688V20.8333H32.5V18.75Z" fill="#777777"/>
<path d="M32.5 16.6666H30.4688V18.75H32.5V16.6666Z" fill="#777777"/>
<path d="M32.5 14.5834H30.4688V16.6667H32.5V14.5834Z" fill="#777777"/>
<path d="M32.5 12.5H30.4688V14.5833H32.5V12.5Z" fill="#777777"/>
<path d="M32.5 10.4166H30.4688V12.5H32.5V10.4166Z" fill="#777777"/>
<path d="M30.4688 10.4166H28.4375V12.5H30.4688V10.4166Z" fill="#777777"/>
<path d="M28.4375 10.4166H26.4062V12.5H28.4375V10.4166Z" fill="#777777"/>
<path d="M26.4062 10.4166H24.375V12.5H26.4062V10.4166Z" fill="#777777"/>
<path d="M26.4062 8.33337H24.375V10.4167H26.4062V8.33337Z" fill="#777777"/>
<path d="M26.4062 6.25H24.375V8.33333H26.4062V6.25Z" fill="#777777"/>
<path d="M26.4062 4.16663H24.375V6.24996H26.4062V4.16663Z" fill="#777777"/>
<path d="M28.4375 4.16663H26.4062V6.24996H28.4375V4.16663Z" fill="#777777"/>
<path d="M30.4688 4.16663H28.4375V6.24996H30.4688V4.16663Z" fill="#777777"/>
<path d="M32.5 4.16663H30.4688V6.24996H32.5V4.16663Z" fill="#777777"/>
<path d="M32.5 6.25H30.4688V8.33333H32.5V6.25Z" fill="#777777"/>
<path d="M32.5 8.33337H30.4688V10.4167H32.5V8.33337Z" fill="#777777"/>
<path d="M30.4688 14.5834H28.4375V16.6667H30.4688V14.5834Z" fill="#777777"/>
<path d="M8.125 22.9166H6.09375V25H8.125V22.9166Z" fill="#777777"/>
<path d="M6.09375 20.8334H4.0625V22.9167H6.09375V20.8334Z" fill="#777777"/>
<path d="M6.09375 18.75H4.0625V20.8333H6.09375V18.75Z" fill="#777777"/>
<path d="M4.0625 18.75H2.03125V20.8333H4.0625V18.75Z" fill="#777777"/>
<path d="M2.03125 18.75H0V20.8333H2.03125V18.75Z" fill="#777777"/>
<path d="M2.03125 16.6666H0V18.75H2.03125V16.6666Z" fill="#777777"/>
<path d="M2.03125 14.5834H0V16.6667H2.03125V14.5834Z" fill="#777777"/>
<path d="M2.03125 12.5H0V14.5833H2.03125V12.5Z" fill="#777777"/>
<path d="M2.03125 10.4166H0V12.5H2.03125V10.4166Z" fill="#777777"/>
<path d="M2.03125 8.33337H0V10.4167H2.03125V8.33337Z" fill="#777777"/>
<path d="M2.03125 6.25H0V8.33333H2.03125V6.25Z" fill="#777777"/>
<path d="M2.03125 4.16663H0V6.24996H2.03125V4.16663Z" fill="#777777"/>
<path d="M2.03125 2.08337H0V4.16671H2.03125V2.08337Z" fill="#777777"/>
<path d="M20.3125 16.6666H18.2812V18.75H20.3125V16.6666Z" fill="#777777"/>
<path d="M20.3125 14.5834H18.2812V16.6667H20.3125V14.5834Z" fill="#777777"/>
<path d="M20.3125 12.5H18.2812V14.5833H20.3125V12.5Z" fill="#777777"/>
<path d="M20.3125 10.4166H18.2812V12.5H20.3125V10.4166Z" fill="#777777"/>
<path d="M20.3125 8.33337H18.2812V10.4167H20.3125V8.33337Z" fill="#777777"/>
<path d="M20.3125 6.25H18.2812V8.33333H20.3125V6.25Z" fill="#777777"/>
<path d="M20.3125 4.16663H18.2812V6.24996H20.3125V4.16663Z" fill="#777777"/>
<path d="M20.3125 2.08337H18.2812V4.16671H20.3125V2.08337Z" fill="#777777"/>
<path d="M22.3438 2.08337H20.3125V4.16671H22.3438V2.08337Z" fill="#777777"/>
<path d="M24.375 2.08337H22.3438V4.16671H24.375V2.08337Z" fill="#777777"/>
<path d="M26.4062 2.08337H24.375V4.16671H26.4062V2.08337Z" fill="#777777"/>
<path d="M28.4375 2.08337H26.4062V4.16671H28.4375V2.08337Z" fill="#777777"/>
<path d="M30.4688 2.08337H28.4375V4.16671H30.4688V2.08337Z" fill="#777777"/>
<path d="M20.3125 0H18.2812V2.08333H20.3125V0Z" fill="#777777"/>
<path d="M2.03125 0H0V2.08333H2.03125V0Z" fill="#777777"/>
<path d="M8.125 0H6.09375V2.08333H8.125V0Z" fill="#777777"/>
<path d="M10.1562 0H8.125V2.08333H10.1562V0Z" fill="#777777"/>
<path d="M4.0625 0H2.03125V2.08333H4.0625V0Z" fill="#777777"/>
<path d="M6.09375 0H4.0625V2.08333H6.09375V0Z" fill="#777777"/>
<path d="M16.25 0H14.2188V2.08333H16.25V0Z" fill="#777777"/>
<path d="M18.2812 0H16.25V2.08333H18.2812V0Z" fill="#777777"/>
<path d="M12.1875 0H10.1562V2.08333H12.1875V0Z" fill="#777777"/>
<path d="M14.2188 0H12.1875V2.08333H14.2188V0Z" fill="#777777"/>
<path d="M18.2812 18.75H16.25V20.8333H18.2812V18.75Z" fill="#777777"/>
<path d="M20.3125 18.75H18.2812V20.8333H20.3125V18.75Z" fill="#777777"/>
<path d="M14.2188 18.75H12.1875V20.8333H14.2188V18.75Z" fill="#777777"/>
<path d="M16.25 18.75H14.2188V20.8333H16.25V18.75Z" fill="#777777"/>
<path d="M10.1562 22.9166H8.125V25H10.1562V22.9166Z" fill="#777777"/>
<path d="M12.1875 20.8334H10.1562V22.9167H12.1875V20.8334Z" fill="#777777"/>
<path d="M8.125 16.6666H6.09375V18.75H8.125V16.6666Z" fill="#777777"/>
<path d="M10.1562 16.6666H8.125V18.75H10.1562V16.6666Z" fill="#777777"/>
<path d="M12.1875 18.75H10.1562V20.8333H12.1875V18.75Z" fill="#777777"/>
</g>
<defs>
<clipPath id="clip0">
<rect width="32.5" height="25" fill="white"/>
</clipPath>
</defs>
</svg>
