<svg width="36" height="32" viewBox="0 0 36 32" fill="none" xmlns="http://www.w3.org/2000/svg">
<path d="M10 30H8V32H10V30Z" fill="black"/>
<path d="M10 28H8V30H10V28Z" fill="black"/>
<path d="M10 26H8V28H10V26Z" fill="black"/>
<path d="M10 24H8V26H10V24Z" fill="black"/>
<path d="M12 24H10V26H12V24Z" fill="black"/>
<path d="M14 24H12V26H14V24Z" fill="black"/>
<path d="M16 24H14V26H16V24Z" fill="black"/>
<path d="M18 24H16V26H18V24Z" fill="black"/>
<path d="M20 24H18V26H20V24Z" fill="black"/>
<path d="M18 20H16V22H18V20Z" fill="black"/>
<path d="M20 20H18V22H20V20Z" fill="black"/>
<path d="M18 18H16V20H18V18Z" fill="black"/>
<path d="M20 18H18V20H20V18Z" fill="black"/>
<path d="M18 14H16V16H18V14Z" fill="black"/>
<path d="M20 14H18V16H20V14Z" fill="black"/>
<path d="M18 12H16V14H18V12Z" fill="black"/>
<path d="M20 12H18V14H20V12Z" fill="black"/>
<path d="M24 12H22V14H24V12Z" fill="black"/>
<path d="M24 10H22V12H24V10Z" fill="black"/>
<path d="M22 12H20V14H22V12Z" fill="black"/>
<path d="M22 10H20V12H22V10Z" fill="black"/>
<path d="M26 10H24V12H26V10Z" fill="black"/>
<path d="M26 8H24V10H26V8Z" fill="black"/>
<path d="M24 8H22V10H24V8Z" fill="black"/>
<path d="M26 6H24V8H26V6Z" fill="black"/>
<path d="M18 6H16V8H18V6Z" fill="black"/>
<path d="M20 6H18V8H20V6Z" fill="black"/>
<path d="M18 4H16V6H18V4Z" fill="black"/>
<path d="M20 4H18V6H20V4Z" fill="black"/>
<path d="M24 6H22V8H24V6Z" fill="black"/>
<path d="M24 4H22V6H24V4Z" fill="black"/>
<path d="M22 6H20V8H22V6Z" fill="black"/>
<path d="M22 4H20V6H22V4Z" fill="black"/>
<path d="M14 6H12V8H14V6Z" fill="black"/>
<path d="M14 8H12V10H14V8Z" fill="black"/>
<path d="M12 8H10V10H12V8Z" fill="black"/>
<path d="M12 6H10V8H12V6Z" fill="black"/>
<path d="M14 4H12V6H14V4Z" fill="black"/>
<path d="M16 6H14V8H16V6Z" fill="black"/>
<path d="M16 4H14V6H16V4Z" fill="black"/>
<path d="M22 24H20V26H22V24Z" fill="black"/>
<path d="M24 24H22V26H24V24Z" fill="black"/>
<path d="M26 24H24V26H26V24Z" fill="black"/>
<path d="M28 24H26V26H28V24Z" fill="black"/>
<path d="M30 24H28V26H30V24Z" fill="black"/>
<path d="M32 24H30V26H32V24Z" fill="black"/>
<path d="M34 24H32V26H34V24Z" fill="black"/>
<path d="M36 22H34V24H36V22Z" fill="black"/>
<path d="M36 20H34V22H36V20Z" fill="black"/>
<path d="M36 18H34V20H36V18Z" fill="black"/>
<path d="M36 16H34V18H36V16Z" fill="black"/>
<path d="M36 14H34V16H36V14Z" fill="black"/>
<path d="M36 12H34V14H36V12Z" fill="black"/>
<path d="M36 10H34V12H36V10Z" fill="black"/>
<path d="M36 8H34V10H36V8Z" fill="black"/>
<path d="M36 6H34V8H36V6Z" fill="black"/>
<path d="M36 4H34V6H36V4Z" fill="black"/>
<path d="M36 2H34V4H36V2Z" fill="black"/>
<path d="M34 0H32V2H34V0Z" fill="black"/>
<path d="M8 30H6V32H8V30Z" fill="black"/>
<path d="M6 28H4V30H6V28Z" fill="black"/>
<path d="M4 26H2V28H4V26Z" fill="black"/>
<path d="M2 24H0V26H2V24Z" fill="black"/>
<path d="M2 22H0V24H2V22Z" fill="black"/>
<path d="M2 20H0V22H2V20Z" fill="black"/>
<path d="M2 18H0V20H2V18Z" fill="black"/>
<path d="M2 16H0V18H2V16Z" fill="black"/>
<path d="M2 14H0V16H2V14Z" fill="black"/>
<path d="M2 12H0V14H2V12Z" fill="black"/>
<path d="M2 10H0V12H2V10Z" fill="black"/>
<path d="M2 8H0V10H2V8Z" fill="black"/>
<path d="M2 6H0V8H2V6Z" fill="black"/>
<path d="M2 4H0V6H2V4Z" fill="black"/>
<path d="M2 2H0V4H2V2Z" fill="black"/>
<path d="M4 0H2V2H4V0Z" fill="black"/>
<path d="M6 0H4V2H6V0Z" fill="black"/>
<path d="M8 0H6V2H8V0Z" fill="black"/>
<path d="M10 0H8V2H10V0Z" fill="black"/>
<path d="M12 0H10V2H12V0Z" fill="black"/>
<path d="M14 0H12V2H14V0Z" fill="black"/>
<path d="M16 0H14V2H16V0Z" fill="black"/>
<path d="M18 0H16V2H18V0Z" fill="black"/>
<path d="M20 0H18V2H20V0Z" fill="black"/>
<path d="M22 0H20V2H22V0Z" fill="black"/>
<path d="M24 0H22V2H24V0Z" fill="black"/>
<path d="M26 0H24V2H26V0Z" fill="black"/>
<path d="M28 0H26V2H28V0Z" fill="black"/>
<path d="M30 0H28V2H30V0Z" fill="black"/>
<path d="M32 0H30V2H32V0Z" fill="black"/>
<path d="M24 22H22V24H24V22Z" fill="black"/>
<path d="M32 22H30V24H32V22Z" fill="black"/>
<path d="M34 22H32V24H34V22Z" fill="black"/>
<path d="M34 20H32V22H34V20Z" fill="black"/>
<path d="M34 18H32V20H34V18Z" fill="black"/>
<path d="M34 16H32V18H34V16Z" fill="black"/>
<path d="M34 12H32V14H34V12Z" fill="black"/>
<path d="M34 8H32V10H34V8Z" fill="black"/>
<path d="M30 20H28V22H30V20Z" fill="black"/>
<path d="M32 18H30V20H32V18Z" fill="black"/>
<path d="M32 14H30V16H32V14Z" fill="black"/>
<path d="M28 22H26V24H28V22Z" fill="black"/>
</svg>
