<svg width="28" height="24" viewBox="0 0 28 24" fill="none" xmlns="http://www.w3.org/2000/svg">
<path d="M15.4285 3.42859H13.7142V5.14287H15.4285V3.42859Z" fill="#FFFFFF"/>
<path d="M17.1429 1.71423H15.4286V3.42852H17.1429V1.71423Z" fill="#FFFFFF"/>
<path d="M18.8571 0H17.1428V1.71429H18.8571V0Z" fill="#FFFFFF"/>
<path d="M20.5715 0H18.8572V1.71429H20.5715V0Z" fill="#FFFFFF"/>
<path d="M22.2857 0H20.5714V1.71429H22.2857V0Z" fill="#FFFFFF"/>
<path d="M24.0001 0H22.2858V1.71429H24.0001V0Z" fill="#FFFFFF"/>
<path d="M25.7143 1.71423H24V3.42852H25.7143V1.71423Z" fill="#FFFFFF"/>
<path d="M27.4285 3.42859H25.7142V5.14287H27.4285V3.42859Z" fill="#FFFFFF"/>
<path d="M27.4285 5.14282H25.7142V6.85711H27.4285V5.14282Z" fill="#FFFFFF"/>
<path d="M27.4285 6.85718H25.7142V8.57146H27.4285V6.85718Z" fill="#FFFFFF"/>
<path d="M27.4285 8.57141H25.7142V10.2857H27.4285V8.57141Z" fill="#FFFFFF"/>
<path d="M27.4285 10.2858H25.7142V12.0001H27.4285V10.2858Z" fill="#FFFFFF"/>
<path d="M25.7143 12H24V13.7143H25.7143V12Z" fill="#FFFFFF"/>
<path d="M24.0001 13.7142H22.2858V15.4285H24.0001V13.7142Z" fill="#FFFFFF"/>
<path d="M22.2857 15.4286H20.5714V17.1429H22.2857V15.4286Z" fill="#FFFFFF"/>
<path d="M20.5715 17.1428H18.8572V18.8571H20.5715V17.1428Z" fill="#FFFFFF"/>
<path d="M18.8571 18.8572H17.1428V20.5715H18.8571V18.8572Z" fill="#FFFFFF"/>
<path d="M17.1429 20.5714H15.4286V22.2857H17.1429V20.5714Z" fill="#FFFFFF"/>
<path d="M15.4285 22.2858H13.7142V24.0001H15.4285V22.2858Z" fill="#FFFFFF"/>
<path d="M11.9999 5.14282L13.7142 5.14282L13.7142 3.42854L11.9999 3.42854L11.9999 5.14282Z" fill="#FFFFFF"/>
<path d="M10.2857 3.42859L12 3.42859L12 1.7143L10.2857 1.7143L10.2857 3.42859Z" fill="#FFFFFF"/>
<path d="M8.57148 1.71423L10.2858 1.71423L10.2858 -5.23329e-05L8.57148 -5.2333e-05L8.57148 1.71423Z" fill="#FFFFFF"/>
<path d="M6.85713 1.71423L8.57141 1.71423L8.57141 -5.23329e-05L6.85713 -5.2333e-05L6.85713 1.71423Z" fill="#FFFFFF"/>
<path d="M5.14289 1.71423L6.85718 1.71423L6.85718 -5.23329e-05L5.14289 -5.2333e-05L5.14289 1.71423Z" fill="#FFFFFF"/>
<path d="M3.42854 1.71423L5.14282 1.71423L5.14282 -5.23329e-05L3.42854 -5.2333e-05L3.42854 1.71423Z" fill="#FFFFFF"/>
<path d="M1.7143 3.42859L3.42859 3.42859L3.42859 1.7143L1.7143 1.7143L1.7143 3.42859Z" fill="#FFFFFF"/>
<path d="M-5.23329e-05 5.14282L1.71423 5.14282L1.71423 3.42854L-5.23328e-05 3.42854L-5.23329e-05 5.14282Z" fill="#FFFFFF"/>
<path d="M-5.23329e-05 6.85718L1.71423 6.85718L1.71423 5.14289L-5.23328e-05 5.14289L-5.23329e-05 6.85718Z" fill="#FFFFFF"/>
<path d="M-5.23329e-05 8.57141L1.71423 8.57141L1.71423 6.85713L-5.23328e-05 6.85713L-5.23329e-05 8.57141Z" fill="#FFFFFF"/>
<path d="M-5.23329e-05 10.2858L1.71423 10.2858L1.71423 8.57148L-5.23328e-05 8.57148L-5.23329e-05 10.2858Z" fill="#FFFFFF"/>
<path d="M-5.23329e-05 12L1.71423 12L1.71423 10.2857L-5.23328e-05 10.2857L-5.23329e-05 12Z" fill="#FFFFFF"/>
<path d="M1.7143 13.7142L3.42859 13.7142L3.42859 11.9999L1.7143 11.9999L1.7143 13.7142Z" fill="#FFFFFF"/>
<path d="M3.42854 15.4286L5.14282 15.4286L5.14282 13.7143L3.42854 13.7143L3.42854 15.4286Z" fill="#FFFFFF"/>
<path d="M5.14289 17.1428L6.85718 17.1428L6.85718 15.4285L5.14289 15.4285L5.14289 17.1428Z" fill="#FFFFFF"/>
<path d="M6.85713 18.8572L8.57141 18.8572L8.57141 17.1429L6.85713 17.1429L6.85713 18.8572Z" fill="#FFFFFF"/>
<path d="M8.57148 20.5714L10.2858 20.5714L10.2858 18.8571L8.57148 18.8571L8.57148 20.5714Z" fill="#FFFFFF"/>
<path d="M10.2857 22.2858L12 22.2858L12 20.5715L10.2857 20.5715L10.2857 22.2858Z" fill="#FFFFFF"/>
<path d="M11.9999 24L13.7142 24L13.7142 22.2857L11.9999 22.2857L11.9999 24Z" fill="#FFFFFF"/>
</svg>
