<svg width="36" height="47" viewBox="0 0 36 47" fill="none" xmlns="http://www.w3.org/2000/svg">
<g clip-path="url(#clip0)">
<path d="M10.2857 10.2858H7.71423V12.8572H10.2857V10.2858Z" fill="black"/>
<path d="M10.2857 12.8572H7.71423V15.4286H10.2857V12.8572Z" fill="black"/>
<path d="M15.4286 12.8572H12.8572V15.4286H15.4286V12.8572Z" fill="black"/>
<path d="M15.4286 15.4286H12.8572V18H15.4286V15.4286Z" fill="black"/>
<path d="M7.71425 15.4286H5.14282V18H7.71425V15.4286Z" fill="black"/>
<path d="M7.71425 18H5.14282V20.5714H7.71425V18Z" fill="black"/>
<path d="M7.71425 20.5714H5.14282V23.1428H7.71425V20.5714Z" fill="black"/>
<path d="M7.71425 23.1428H5.14282V25.7143H7.71425V23.1428Z" fill="black"/>
<path d="M5.14284 25.7142H2.57141V28.2857H5.14284V25.7142Z" fill="black"/>
<path d="M2.57143 28.2858H0V30.8572H2.57143V28.2858Z" fill="black"/>
<path d="M2.57143 30.8572H0V33.4286H2.57143V30.8572Z" fill="black"/>
<path d="M2.57143 33.4286H0V36H2.57143V33.4286Z" fill="black"/>
<path d="M2.57143 36H0V38.5714H2.57143V36Z" fill="black"/>
<path d="M5.14284 36H2.57141V38.5714H5.14284V36Z" fill="black"/>
<path d="M7.71425 33.4286H5.14282V36H7.71425V33.4286Z" fill="black"/>
<path d="M10.2857 30.8572H7.71423V33.4286H10.2857V30.8572Z" fill="black"/>
<path d="M10.2857 41.1428H7.71423V43.7142H10.2857V41.1428Z" fill="black"/>
<path d="M10.2857 43.7142H7.71423V46.2857H10.2857V43.7142Z" fill="black"/>
<path d="M12.8572 30.8572H10.2858V33.4286H12.8572V30.8572Z" fill="black"/>
<path d="M15.4286 28.2858H12.8572V30.8572H15.4286V28.2858Z" fill="black"/>
<path d="M18 28.2858H15.4286V30.8572H18V28.2858Z" fill="black"/>
<path d="M18 33.4286H15.4286V36H18V33.4286Z" fill="black"/>
<path d="M15.4286 36H12.8572V38.5714H15.4286V36Z" fill="black"/>
<path d="M18 38.5714H15.4286V41.1428H18V38.5714Z" fill="black"/>
<path d="M18 41.1428H15.4286V43.7142H18V41.1428Z" fill="black"/>
<path d="M20.5714 41.1428H18V43.7142H20.5714V41.1428Z" fill="black"/>
<path d="M18 43.7142H15.4286V46.2857H18V43.7142Z" fill="black"/>
<path d="M20.5714 43.7142H18V46.2857H20.5714V43.7142Z" fill="black"/>
<path d="M20.5714 38.5714H18V41.1428H20.5714V38.5714Z" fill="black"/>
<path d="M23.1428 36H20.5714V38.5714H23.1428V36Z" fill="black"/>
<path d="M20.5714 33.4286H18V36H20.5714V33.4286Z" fill="black"/>
<path d="M2.57143 38.5714H0V41.1428H2.57143V38.5714Z" fill="black"/>
<path d="M18 0H15.4286V2.57143H18V0Z" fill="black"/>
<path d="M15.4286 2.57141H12.8572V5.14284H15.4286V2.57141Z" fill="black"/>
<path d="M12.8572 5.14282H10.2858V7.71425H12.8572V5.14282Z" fill="black"/>
<path d="M12.8572 7.71423H10.2858V10.2857H12.8572V7.71423Z" fill="black"/>
<path d="M25.7143 12.8572L28.2858 12.8572L28.2858 10.2857L25.7143 10.2857L25.7143 12.8572Z" fill="black"/>
<path d="M25.7143 15.4286L28.2858 15.4286L28.2858 12.8572L25.7143 12.8572L25.7143 15.4286Z" fill="black"/>
<path d="M20.5714 15.4286L23.1428 15.4286L23.1428 12.8572L20.5714 12.8572L20.5714 15.4286Z" fill="black"/>
<path d="M20.5714 18L23.1428 18L23.1428 15.4286L20.5714 15.4286L20.5714 18Z" fill="black"/>
<path d="M28.2857 18L30.8572 18L30.8572 15.4286L28.2857 15.4286L28.2857 18Z" fill="black"/>
<path d="M28.2857 20.5714L30.8572 20.5714L30.8572 18L28.2857 18L28.2857 20.5714Z" fill="black"/>
<path d="M28.2857 23.1428L30.8572 23.1428L30.8572 20.5714L28.2857 20.5714L28.2857 23.1428Z" fill="black"/>
<path d="M28.2857 25.7142L30.8572 25.7142L30.8572 23.1428L28.2857 23.1428L28.2857 25.7142Z" fill="black"/>
<path d="M30.8572 28.2858L33.4286 28.2858L33.4286 25.7143L30.8572 25.7143L30.8572 28.2858Z" fill="black"/>
<path d="M33.4286 30.8572L36 30.8572L36 28.2857L33.4286 28.2857L33.4286 30.8572Z" fill="black"/>
<path d="M33.4286 33.4286L36 33.4286L36 30.8572L33.4286 30.8572L33.4286 33.4286Z" fill="black"/>
<path d="M33.4286 36L36 36L36 33.4286L33.4286 33.4286L33.4286 36Z" fill="black"/>
<path d="M33.4286 38.5714L36 38.5714L36 36L33.4286 36L33.4286 38.5714Z" fill="black"/>
<path d="M30.8572 38.5714L33.4286 38.5714L33.4286 36L30.8572 36L30.8572 38.5714Z" fill="black"/>
<path d="M28.2857 36L30.8572 36L30.8572 33.4286L28.2857 33.4286L28.2857 36Z" fill="black"/>
<path d="M25.7143 33.4286L28.2858 33.4286L28.2858 30.8572L25.7143 30.8572L25.7143 33.4286Z" fill="black"/>
<path d="M25.7143 43.7142L28.2858 43.7142L28.2858 41.1428L25.7143 41.1428L25.7143 43.7142Z" fill="black"/>
<path d="M25.7143 46.2858L28.2858 46.2858L28.2858 43.7143L25.7143 43.7143L25.7143 46.2858Z" fill="black"/>
<path d="M23.1428 33.4286L25.7142 33.4286L25.7142 30.8572L23.1428 30.8572L23.1428 33.4286Z" fill="black"/>
<path d="M20.5714 30.8572L23.1428 30.8572L23.1428 28.2857L20.5714 28.2857L20.5714 30.8572Z" fill="black"/>
<path d="M18 30.8572L20.5714 30.8572L20.5714 28.2857L18 28.2857L18 30.8572Z" fill="black"/>
<path d="M18 18H15.4286V20.5714H18V18Z" fill="black"/>
<path d="M18 20.5714L20.5714 20.5714L20.5714 18L18 18L18 20.5714Z" fill="black"/>
<path d="M18 10.2858H15.4286V12.8572H18V10.2858Z" fill="black"/>
<path d="M18 12.8572L20.5714 12.8572L20.5714 10.2857L18 10.2857L18 12.8572Z" fill="black"/>
<path d="M33.4286 41.1428L36 41.1428L36 38.5714L33.4286 38.5714L33.4286 41.1428Z" fill="black"/>
<path d="M18 2.57141L20.5714 2.57141L20.5714 -1.74046e-05L18 -1.74047e-05L18 2.57141Z" fill="black"/>
<path d="M20.5714 5.14282L23.1428 5.14282L23.1428 2.57139L20.5714 2.57139L20.5714 5.14282Z" fill="black"/>
<path d="M23.1428 7.71423L25.7142 7.71423L25.7142 5.1428L23.1428 5.1428L23.1428 7.71423Z" fill="black"/>
<path d="M23.1428 10.2858L25.7142 10.2858L25.7142 7.71434L23.1428 7.71434L23.1428 10.2858Z" fill="black"/>
<path d="M18 15.4286H15.4286V18H18V15.4286Z" fill="white"/>
<path d="M20.5714 15.4286H18V18H20.5714V15.4286Z" fill="white"/>
<path d="M20.5714 12.8572H18V15.4286H20.5714V12.8572Z" fill="white"/>
<path d="M18 12.8572H15.4286V15.4286H18V12.8572Z" fill="white"/>
</g>
<defs>
<clipPath id="clip0">
<rect width="36" height="46.2857" fill="white"/>
</clipPath>
</defs>
</svg>
