<svg width="16" height="18" viewBox="0 0 16 18" fill="none" xmlns="http://www.w3.org/2000/svg">
<path d="M0.319977 3.24C0.29331 3.08 0.266644 2.93333 0.239977 2.8C0.239977 2.66667 0.239977 2.53333 0.239977 2.4C0.239977 1.86667 0.399977 1.4 0.719977 1C1.03998 0.599999 1.51998 0.399998 2.15998 0.399998C2.45331 0.399998 2.75998 0.466665 3.07998 0.599998C3.42664 0.706665 3.78664 0.866665 4.15998 1.08L15.36 7.2C15.7333 7.70667 15.92 8.36 15.92 9.16C15.92 9.77333 15.8266 10.2533 15.64 10.6C15.4533 10.92 15.2133 11.1733 14.92 11.36L2.27998 17.96C1.58664 17.7467 1.09331 17.4667 0.799977 17.12C0.53331 16.7733 0.399977 16.3733 0.399977 15.92C0.399977 15.36 0.546644 14.92 0.839977 14.6C1.15998 14.2533 1.61331 13.9333 2.19998 13.64L11.88 9.08L0.319977 3.24Z" fill="#919191"/>
</svg>
