<svg width="36" height="25" viewBox="0 0 36 25" fill="none" xmlns="http://www.w3.org/2000/svg">
<g clip-path="url(#clip0)">
<path d="M2.25 11.25H0V13.5H2.25V11.25Z" fill="black"/>
<path d="M2.25 13.5H0V15.75H2.25V13.5Z" fill="black"/>
<path d="M2.25 15.75H0V18H2.25V15.75Z" fill="black"/>
<path d="M2.25 9H0V11.25H2.25V9Z" fill="black"/>
<path d="M2.25 6.75H0V9H2.25V6.75Z" fill="black"/>
<path d="M36 11.25H33.75V13.5H36V11.25Z" fill="black"/>
<path d="M33.75 13.5H31.5V15.75H33.75V13.5Z" fill="black"/>
<path d="M31.5 15.75H29.25V18H31.5V15.75Z" fill="black"/>
<path d="M29.25 18H27V20.25H29.25V18Z" fill="black"/>
<path d="M22.5 20.25H20.25V22.5H22.5V20.25Z" fill="black"/>
<path d="M27 20.25H24.75V22.5H27V20.25Z" fill="black"/>
<path d="M24.75 22.5H22.5V24.75H24.75V22.5Z" fill="black"/>
<path d="M22.5 22.5H20.25V24.75H22.5V22.5Z" fill="black"/>
<path d="M22.5 18H20.25V20.25H22.5V18Z" fill="black"/>
<path d="M33.75 9H31.5V11.25H33.75V9Z" fill="black"/>
<path d="M31.5 6.75H29.25V9H31.5V6.75Z" fill="black"/>
<path d="M29.25 4.5H27V6.75H29.25V4.5Z" fill="black"/>
<path d="M27 2.25H24.75V4.5H27V2.25Z" fill="black"/>
<path d="M24.75 0H22.5V2.25H24.75V0Z" fill="black"/>
<path d="M22.5 4.5H20.25V6.75H22.5V4.5Z" fill="black"/>
<path d="M22.5 2.25H20.25V4.5H22.5V2.25Z" fill="black"/>
<path d="M22.5 0H20.25V2.25H22.5V0Z" fill="black"/>
<path d="M4.5 6.75H2.25V9H4.5V6.75Z" fill="black"/>
<path d="M6.75 6.75H4.5V9H6.75V6.75Z" fill="black"/>
<path d="M9 6.75H6.75V9H9V6.75Z" fill="black"/>
<path d="M11.25 6.75H9V9H11.25V6.75Z" fill="black"/>
<path d="M13.5 6.75H11.25V9H13.5V6.75Z" fill="black"/>
<path d="M15.75 6.75H13.5V9H15.75V6.75Z" fill="black"/>
<path d="M18 6.75H15.75V9H18V6.75Z" fill="black"/>
<path d="M20.25 6.75H18V9H20.25V6.75Z" fill="black"/>
<path d="M22.5 6.75H20.25V9H22.5V6.75Z" fill="black"/>
<path d="M18 15.75H15.75V18H18V15.75Z" fill="black"/>
<path d="M20.25 15.75H18V18H20.25V15.75Z" fill="black"/>
<path d="M22.5 15.75H20.25V18H22.5V15.75Z" fill="black"/>
<path d="M4.5 15.75H2.25V18H4.5V15.75Z" fill="black"/>
<path d="M6.75 15.75H4.5V18H6.75V15.75Z" fill="black"/>
<path d="M9 15.75H6.75V18H9V15.75Z" fill="black"/>
<path d="M11.25 15.75H9V18H11.25V15.75Z" fill="black"/>
<path d="M13.5 15.75H11.25V18H13.5V15.75Z" fill="black"/>
<path d="M15.75 15.75H13.5V18H15.75V15.75Z" fill="black"/>
</g>
<defs>
<clipPath id="clip0">
<rect width="36" height="24.75" fill="white"/>
</clipPath>
</defs>
</svg>
