<svg width="168" height="99" viewBox="0 0 168 99" fill="none" xmlns="http://www.w3.org/2000/svg">
<g clip-path="url(#clip0)">
<path d="M88.2497 45.106H90.5599V42.7289V40.3643V37.9872V35.6226H88.2497H85.9516H83.6414V37.9872H85.9516V40.3643V42.7289H88.2497V45.106Z" fill="white"/>
<path d="M83.6642 57.6118H81.3661H79.0559H76.7464H74.4938H72.1837V59.9296H69.8856V62.306V64.6831V67.0477V69.4248V71.7894H72.1837V74.1665H74.4938H76.7464H79.0559H81.3661H83.6642V71.7894H85.9744V69.4248H83.6642H81.3661V71.7894H79.0559H76.7464H74.4938V69.4248V67.0477V64.6831V62.306V59.9296H76.7464H79.0559H81.3661V62.306H83.6642H85.9744V59.9296H83.6642V57.6118Z" fill="white"/>
<path d="M76.7692 45.106H79.0793H81.3319H83.6414H85.9516V42.7289H83.6414H81.3319H79.0793V40.3643V37.9872V35.6225V33.2454V30.8691H81.3319H83.6414H85.9516V33.2454H88.2497H90.5599V30.8691H88.2497V28.5513H85.9516H83.6414H81.3319H79.0793H76.7692V30.8691H74.4711V33.2454V35.6225V37.9872V40.3643V42.7289H76.7692V45.106Z" fill="white"/>
<path d="M99.7764 45.106H102.028H104.338H106.649H108.947H111.257V42.7289H108.947H106.649H104.338H102.028H99.7764V40.3643V37.9872H102.028H104.338H106.649H108.947V35.6225H106.649H104.338H102.028H99.7764V33.2454V30.8691H102.028H104.338H106.649H108.947H111.257V28.5513H108.947H106.649H104.338H102.028H99.7764H97.4662H95.1682V30.8691V33.2454V35.6225V37.9872V40.3643V42.7289V45.106H97.4662H99.7764Z" fill="white"/>
<path d="M141.171 45.106V42.7289V40.3643V37.9872H143.423V40.3643H145.733V42.7289H148.043V45.106H150.341H152.651V42.7289H150.341V40.3643H148.043V37.9872H145.733V35.6225H148.043V33.2454H150.341V30.8691H152.651V28.5513H150.341H148.043V30.8691H145.733V33.2454H143.423V35.6225H141.171V33.2454V30.8691V28.5513H138.86H136.562V30.8691V33.2454V35.6225V37.9872V40.3643V42.7289V45.106H138.86H141.171Z" fill="white"/>
<path d="M120.474 45.106H122.725H125.036H127.346H129.644H131.954V42.7289H129.644H127.346H125.036H122.725H120.474V40.3643V37.9872H122.725H125.036H127.346H129.644V35.6225H127.346H125.036H122.725H120.474V33.2454V30.8691H122.725H125.036H127.346H129.644H131.954V28.5513H129.644H127.346H125.036H122.725H120.474H118.163H115.865V30.8691V33.2454V35.6225V37.9872V40.3643V42.7289V45.106H118.163H120.474Z" fill="white"/>
<path d="M131.931 57.6118V59.9296V62.306V64.6831H129.621V62.306H127.311V59.9296H125.058V57.6118H122.749H120.45V59.9296V62.306V64.6831V67.0477V69.4248V71.7894V74.1665H122.749H125.058V71.7894V69.4248V67.0477V64.6831H127.311V67.0477H129.621V69.4248H131.931V71.7894V74.1665H134.229H136.539V71.7894V69.4248V67.0477V64.6831V62.306V59.9296V57.6118H134.229H131.931Z" fill="white"/>
<path d="M154.926 57.6118H152.628H150.318H148.008H145.755H143.446V59.9296H141.147V62.306V64.6831H143.446V67.0477H145.755H148.008H150.318H152.628V69.4248V71.7894H150.318H148.008H145.755V69.4248H143.446H141.147V71.7894H143.446V74.1665H145.755H148.008H150.318H152.628H154.926V71.7894H157.236V69.4248V67.0477H154.926V64.6831H152.628H150.318H148.008H145.755V62.306V59.9296H148.008H150.318H152.628V62.306H154.926H157.236V59.9296H154.926V57.6118Z" fill="white"/>
<path d="M111.28 57.6118V59.9296V62.306V64.6831V67.0477V69.4248V71.7894V74.1665H113.578H115.888V71.7894V69.4248V67.0477V64.6831V62.306V59.9296V57.6118H113.578H111.28Z" fill="white"/>
<path d="M104.361 57.6118H102.063H99.753H97.4428H95.1902H92.88V59.9296H90.5826V62.3067V64.6838V67.0484V69.4255V71.7902H92.8807V74.1672H95.1909H97.4435H99.7537H102.064H104.362V71.7902H106.672V69.4255V67.0484V64.6838V62.3067V59.9296H104.362V57.6118H104.361ZM102.063 62.306V64.6831V67.0477V69.4248V71.7894H99.753H97.4428H95.1902V69.4248V67.0477V64.6831V62.306V59.9289H97.4428H99.753H102.063V62.306Z" fill="white"/>
<path d="M74.4711 47.4238H76.7692V49.7651H79.0794H81.3319H83.6414H85.9516H88.2497H90.5599H92.858H95.1219V47.4238H95.1682V49.7651H97.4663H99.7764H102.029H104.339H106.649H108.947H111.258H113.556H115.82V47.4238H115.866V49.7651H118.164H120.474H122.727H125.037H127.347H129.645H131.955H134.254H136.516V47.4238H136.562V49.7651H138.86H141.171H143.423H145.733V47.4238H148.044V49.7651H150.342H152.652H154.95H157.214V47.4238V45.106V42.7289H154.95V40.3643H152.652V37.9872H154.95V35.6225H157.214V33.2455V30.8684V28.5505H154.95V26.1735H152.652H150.342H148.044H145.733V28.5505H143.423V26.1735H141.171H138.86H136.562H134.252H131.954H129.644H127.346H125.036H122.725H120.473H118.163H115.865H113.554H111.256H108.946H106.648H104.338H102.028H99.7764H97.4663H95.1682H92.858V28.5505H90.5599V26.1735H88.2497H85.9516H83.6414H81.3319H79.0794H76.7692H74.4711V28.5505H72.1609V30.8684V33.2455V35.6225V37.9872V40.3643V42.7289V45.106H74.4711V47.4238ZM136.562 42.7289V40.3643V37.9872V35.6225V33.2455V30.8684V28.5505H138.86H141.171V30.8684V33.2455V35.6225H143.423V33.2455H145.733V30.8684H148.044V28.5505H150.342H152.652V30.8684H150.342V33.2455H148.044V35.6225H145.733V37.9872H148.044V40.3643H150.342V42.7289H152.652V45.106H150.342H148.044V42.7289H145.733V40.3643H143.423V37.9872H141.171V40.3643V42.7289V45.106H138.86H136.562V42.7289ZM115.865 42.7289V40.3643V37.9872V35.6225V33.2455V30.8684V28.5505H118.163H120.474H122.726H125.036H127.346H129.645H131.955V30.8684H129.645H127.346H125.036H122.726H120.474V33.2455V35.6225H122.726H125.036H127.346H129.645V37.9872H127.346H125.036H122.726H120.474V40.3643V42.7289H122.726H125.036H127.346H129.645H131.955V45.106H129.645H127.346H125.036H122.726H120.474H118.163H115.865V42.7289ZM95.1682 42.7289V40.3643V37.9872V35.6225V33.2455V30.8684V28.5505H97.4663H99.7764H102.029H104.339H106.649H108.947H111.258V30.8684H108.947H106.649H104.339H102.029H99.7764V33.2455V35.6225H102.029H104.339H106.649H108.947V37.9872H106.649H104.339H102.029H99.7764V40.3643V42.7289H102.029H104.339H106.649H108.947H111.258V45.106H108.947H106.649H104.339H102.029H99.7764H97.4663H95.1682V42.7289ZM74.4711 40.3643V37.9872V35.6225V33.2455V30.8684H76.7692V28.5505H79.0794H81.3319H83.6414H85.9516H88.2497V30.8684H90.5599V33.2455H88.2497H85.9516V30.8684H83.6414H81.3319H79.0794V33.2455V35.6225V37.9872V40.3643V42.7289H81.3319H83.6414H85.9516V40.3643V37.9872H83.6414V35.6225H85.9516H88.2497H90.5599V37.9872V40.3643V42.7289V45.106H88.2497V42.7289H85.9516V45.106H83.6414H81.3319H79.0794H76.7692V42.7289H74.4711V40.3643Z" fill="black"/>
<path d="M97.4435 54.3772H95.1909V56.7536V59.1306V61.4953V63.8724V66.237H97.4435H99.753H102.063V63.8724V61.4953V59.1306V56.7536V54.3772H99.753H97.4435Z" fill="black"/>
<path d="M159.535 52.0593H157.237V49.6823H154.926H152.628H150.318H148.008H145.755H143.445H141.147V52.0593H141.101H138.837V49.6823H136.539H134.229H131.931H129.62V52.0593H127.31V49.6823H125.058H122.747H120.449H118.139H115.887H113.578H111.28H108.97V52.0593H106.671V49.6823H104.361H102.063H99.753H97.4428H95.1902H92.88H90.5826V52.0593H88.2724H85.9743V49.6823H83.6642H81.3661H79.0559H76.7457H74.4931H72.1829H69.8848V52.0593H67.5746V54.3772V56.7542V59.1313V61.496V63.8731V66.2377V68.6148H69.8848V70.9326H72.1829V73.2739H74.4931H76.7457H79.0559H81.3661H83.6642H85.9743H88.2724V70.9326H90.5364V68.6148H90.5826V70.9326H92.8807V73.2739H95.1909H97.4435H99.7537H102.064H104.362H106.672H108.97V70.9326H111.234H111.28V73.2739H113.579H115.889H118.141H120.451V70.9326V73.2739H122.75H125.06H127.312H129.623V70.9326H131.933V73.2739H134.231H136.541H138.839H141.103V70.9326V68.6148H141.149V70.9326H143.447V73.2739H145.758H148.01H150.32H152.63H154.929H157.239H159.537V70.9326H161.801V68.6148V66.2377V63.8731V61.496V59.1313V56.7542V54.3772H159.537V52.0593H159.535ZM85.9743 56.7535H83.6642H81.3661V54.3764H79.0559H76.7457H74.4931V56.7535V59.1306V61.4953V63.8723V66.237H76.7457H79.0559H81.3661V63.8723H83.6642H85.9743V66.237H83.6642V68.6141H81.3661H79.0559H76.7457H74.4931H72.1829V66.237H69.8848V63.8723V61.4953V59.1306V56.7535V54.3764H72.1829V52.0586H74.4931H76.7457H79.0559H81.3661H83.6642V54.3764H85.9743V56.7535ZM106.671 56.7535V59.1306V61.4953V63.8723V66.237H104.361V68.6141H102.063H99.753H97.4428H95.1902H92.88V66.237H90.5826V63.8723V61.4953V59.1306V56.7535V54.3764H92.8807V52.0586H95.1909H97.4435H99.7537H102.064H104.362V54.3764H106.672V56.7535H106.671ZM115.888 54.3772V56.7542V59.1313V61.496V63.8731V66.2377V68.6148H113.578H111.28V66.2377V63.8731V61.496V59.1313V56.7542V54.3772V52.0593H113.578H115.888V54.3772ZM136.539 54.3772V56.7542V59.1313V61.496V63.8731V66.2377V68.6148H134.229H131.931V66.2377V63.8731H129.62V61.496H127.31V59.1313H125.058V61.496V63.8731V66.2377V68.6148H122.747H120.449V66.2377V63.8731V61.496V59.1313V56.7542V54.3772V52.0593H122.747H125.058V54.3772H127.31V56.7542H129.62V59.1313H131.931V56.7542V54.3772V52.0593H134.229H136.539V54.3772ZM157.236 56.7535H154.926H152.628V54.3764H150.317H148.007H145.755V56.7535V59.1306H148.007H150.317H152.628H154.926V61.4953H157.236V63.8723V66.237H154.926V68.6141H152.628H150.317H148.007H145.755H143.445V66.237H141.146V63.8723H143.445H145.755V66.237H148.007H150.317H152.628V63.8723V61.4953H150.317H148.007H145.755H143.445V59.1306H141.146V56.7535V54.3764H143.445V52.0586H145.755H148.007H150.317H152.628H154.926V54.3764H157.236V56.7535Z" fill="black"/>
<path d="M15.4809 30.8916H11.8168V67.6041H15.4809V30.8916Z" fill="black"/>
<path d="M19.145 23.65H15.4809V30.8917H19.145V23.65Z" fill="black"/>
<path d="M19.145 67.6041H15.4809V74.9833H19.145V67.6041Z" fill="black"/>
<path d="M19.145 19.9834V23.65H26.4733V19.9834H19.145Z" fill="black"/>
<path d="M41.0839 19.9834V23.65H48.5038V19.9834H41.0839Z" fill="black"/>
<path d="M26.4733 16.3167V19.9834H41.084V16.3167H26.4733Z" fill="black"/>
<path d="M52.1221 67.6041H55.832L55.832 30.8916H52.1221L52.1221 67.6041Z" fill="black"/>
<path d="M48.5038 74.9834H52.1221V67.6042H48.5038V74.9834Z" fill="black"/>
<path d="M48.5038 30.8916H52.1221V23.6499H48.5038V30.8916Z" fill="black"/>
<path d="M48.5038 78.6501V74.9834H41.0839V78.6501H48.5038Z" fill="black"/>
<path d="M26.4733 78.6501V74.9834H19.145V78.6501H26.4733Z" fill="black"/>
<path d="M41.0839 82.3167V78.65H26.4732V82.3167H41.0839Z" fill="black"/>
<path d="M37.4198 34.65V27.3167H33.7557V34.65H30.1832V38.225H41.0839V41.9833H44.748V38.225V34.65H37.4198Z" fill="black"/>
<path d="M30.1832 38.225H26.4733V60.225H30.1832V38.225Z" fill="black"/>
<path d="M37.4198 49.3167V52.9833H41.0839V60.225H30.1832V63.9375H33.7557V71.2708H37.4198V63.9375H44.748V49.3167H37.4198Z" fill="black"/>
<path d="M48.5038 30.8917V38.225H44.7481V41.9834H41.0839V38.225H33.7557V56.65H41.0839V52.9834H37.4198V49.3167H41.0839V45.6042H48.5038V60.225H44.7481V63.9375H41.0839V67.6042H37.4198V71.2709H33.7557V63.9375H30.1832V60.225H22.8091V38.225H26.4733V30.8917H30.1832V27.3167H37.4198V23.65H26.4733V27.3167H22.8091V30.8917H19.145V60.225H15.4809V67.6042H19.145V74.9833H26.4733V78.65H41.0839V74.9833H48.5038V67.6042H52.1221V30.8917H48.5038Z" fill="#FEEE00"/>
<path d="M48.5038 23.65H41.0839V30.8917H48.5038V23.65Z" fill="#FEEE00"/>
<path d="M30.1832 30.8916H26.4733V34.6499H30.1832V30.8916Z" fill="#E9BC00"/>
<path d="M41.084 63.9375H37.4199V67.6042H41.084V63.9375Z" fill="#E9BC00"/>
<path d="M55.8321 67.6042H52.1221V71.2709H55.8321V67.6042Z" fill="#E9BC00"/>
<path d="M26.4733 16.3168H22.8091V19.9834H26.4733V16.3168Z" fill="#E9BC00"/>
<path d="M41.084 23.65H37.4199V34.65H44.7481V38.225H48.5038V30.8917H41.084V23.65Z" fill="#E9BC00"/>
<path d="M33.7557 38.2251H30.1832V60.2251H41.0839V56.6501H33.7557V38.2251Z" fill="#E9BC00"/>
<path d="M41.0839 49.3166H44.748V60.225H48.5038V45.6041H41.0839V49.3166Z" fill="#E9BC00"/>
<path d="M44.7481 16.3167V12.65H30.1832V16.3167H41.0839V19.9834H48.5038V23.65H52.1221V16.3167H44.7481Z" fill="#E9BC00"/>
<path d="M55.8321 27.3167V23.65H52.1221V30.8917H55.8321V67.6042H59.4504V27.3167H55.8321Z" fill="#E9BC00"/>
<path d="M41.084 19.9834H26.4733V23.6501H41.084V19.9834Z" fill="white"/>
<path d="M19.145 30.8918H22.8091V27.3168H26.4733V23.6501H19.145V30.8918Z" fill="white"/>
<path d="M19.145 30.8917H15.4809V60.2251H19.145V30.8917Z" fill="white"/>
<path d="M33.7557 27.3168H30.1832V34.6501H33.7557V27.3168Z" fill="white"/>
<path d="M30.1832 34.65H26.4733V38.225H30.1832V34.65Z" fill="white"/>
<path d="M26.4733 38.225H22.8091V60.225H26.4733V38.225Z" fill="white"/>
</g>
<defs>
<clipPath id="clip0">
<rect width="168" height="99" fill="white"/>
</clipPath>
</defs>
</svg>
