<svg width="76" height="94" viewBox="0 0 76 94" fill="none" xmlns="http://www.w3.org/2000/svg">
<path d="M17.6714 19.0123H13.8499V57.276H17.6714V19.0123Z" fill="black"/>
<path d="M21.493 11.4648H17.6714V19.0125H21.493V11.4648Z" fill="black"/>
<path d="M21.493 57.2759H17.6714V64.9668H21.493V57.2759Z" fill="black"/>
<path d="M21.4934 7.6435V11.4651H29.1366V7.6435H21.4934Z" fill="black"/>
<path d="M44.3752 7.6435V11.4651H52.114V7.6435H44.3752Z" fill="black"/>
<path d="M29.1365 3.82197V7.64355L44.3751 7.64355V3.82197L29.1365 3.82197Z" fill="black"/>
<path d="M55.888 57.2759H59.7573L59.7573 19.0122H55.888L55.888 57.2759Z" fill="black"/>
<path d="M52.1141 64.9669H55.8879V57.276H52.1141V64.9669Z" fill="black"/>
<path d="M52.1141 19.0122H55.8879V11.4646H52.1141V19.0122Z" fill="black"/>
<path d="M52.1138 68.788V64.9664H44.3751V68.788H52.1138Z" fill="black"/>
<path d="M29.1365 68.788V64.9664H21.4933V68.788H29.1365Z" fill="black"/>
<path d="M44.3752 72.6098V68.7882H29.1367V72.6098H44.3752Z" fill="black"/>
<path d="M40.553 22.9294V15.2863H36.7314V22.9294H33.0054V26.6555H44.3746V30.5726H48.1962V26.6555V22.9294H40.553Z" fill="black"/>
<path d="M33.0053 26.6555H29.136V49.585H33.0053V26.6555Z" fill="black"/>
<path d="M40.553 38.2158V42.0374H44.3746V49.585H33.0054V53.4544H36.7314V61.0976H40.553V53.4544H48.1962V38.2158H40.553Z" fill="black"/>
<path d="M52.1137 19.0125V26.6557H48.1966V30.5728H44.375V26.6557H36.7318V45.8591H44.375V42.0375H40.5534V38.216H44.375V34.3466H52.1137V49.5852H48.1966V53.4545H44.375V57.2761H40.5534V61.0977H36.7318V53.4545H33.0058V49.5852H25.3148V26.6557H29.1364V19.0125H33.0058V15.2864H40.5534V11.4648H29.1364V15.2864H25.3148V19.0125H21.4932V49.5852H17.6716V57.2761H21.4932V64.9671H29.1364V68.7887H44.375V64.9671H52.1137V57.2761H55.8875V19.0125H52.1137Z" fill="#FEEE00"/>
<path d="M52.1137 11.4648H44.375V19.0125H52.1137V11.4648Z" fill="#FEEE00"/>
<path d="M33.0056 19.0123H29.1362V22.9295H33.0056V19.0123Z" fill="#E9BC00"/>
<path d="M44.3748 53.4545H40.5532V57.2761H44.3748V53.4545Z" fill="#E9BC00"/>
<path d="M59.7568 57.276H55.8875V61.0976H59.7568V57.276Z" fill="#E9BC00"/>
<path d="M29.1363 3.82166H25.3147V7.64324H29.1363V3.82166Z" fill="#E9BC00"/>
<path d="M44.3748 11.4648H40.5532V22.9296H48.1964V26.6557H52.1135V19.0125H44.3748V11.4648Z" fill="#E9BC00"/>
<path d="M36.7317 26.6555H33.0056V49.585H44.3748V45.859H36.7317V26.6555Z" fill="#E9BC00"/>
<path d="M44.3748 38.2159H48.1963V49.5851H52.1135V34.3466H44.3748V38.2159Z" fill="#E9BC00"/>
<path d="M48.1964 3.82159V0H33.0056V3.82159H44.3748V7.64318H52.1136V11.4648H55.8874V3.82159H48.1964Z" fill="#E9BC00"/>
<path d="M59.7568 15.2864V11.4648H55.8875V19.0125H59.7568V57.2761H63.5306V15.2864H59.7568Z" fill="#E9BC00"/>
<path d="M44.3748 7.64307H29.1362V11.4647H44.3748V7.64307Z" fill="white"/>
<path d="M21.4934 19.0124H25.315V15.2863H29.1366V11.4647H21.4934V19.0124Z" fill="white"/>
<path d="M21.4932 19.0123H17.6716V49.585H21.4932V19.0123Z" fill="white"/>
<path d="M36.7317 15.2863H33.0056V22.9294H36.7317V15.2863Z" fill="white"/>
<path d="M33.0056 22.9294H29.1362V26.6555H33.0056V22.9294Z" fill="white"/>
<path d="M29.1363 26.6555H25.3147V49.585H29.1363V26.6555Z" fill="white"/>
<path d="M12.713 74.1265C11.9787 74.2798 11.6129 74.3603 10.8812 74.525C10.1457 74.691 9.77863 74.7764 9.04441 74.9537C8.31146 75.131 7.94435 75.2228 7.21266 75.4113C6.49982 75.5949 6.14402 75.6904 5.43244 75.8853C4.70326 76.0852 4.33867 76.1883 3.612 76.3995C3.612 77.1211 3.612 77.482 3.612 78.2036C2.8891 78.4136 2.52828 78.5217 1.80664 78.7442C1.80664 79.4847 1.80664 79.8543 1.80664 80.5948C1.80664 81.3353 1.80664 81.7049 1.80664 82.4454C1.80664 83.1822 1.80664 83.5505 1.80664 84.2873C1.80664 85.0278 1.80664 85.3974 1.80664 86.1379C1.80664 86.8746 1.80664 87.243 1.80664 87.9797C2.52702 87.7584 2.88784 87.6503 3.612 87.4391C3.612 88.1796 3.612 88.5492 3.612 89.2897C4.33867 89.0785 4.70326 88.9754 5.43244 88.7755C6.14402 88.5806 6.49982 88.4851 7.21266 88.3015C7.94435 88.113 8.3102 88.0212 9.04441 87.8439C9.77863 87.6666 10.1457 87.5812 10.8812 87.4152C11.6129 87.2505 11.98 87.17 12.713 87.0167C12.713 86.2762 12.713 85.9065 12.713 85.166C13.4497 85.0114 13.8193 84.9372 14.5585 84.7939C14.5585 84.0572 14.5585 83.6888 14.5585 82.9521C13.8193 83.0954 13.4497 83.1696 12.713 83.3242C11.9787 83.4776 11.6129 83.5581 10.8812 83.7228C10.8812 84.4595 10.8812 84.8279 10.8812 85.5646C10.1457 85.7305 9.77863 85.816 9.04441 85.9933C8.31146 86.1706 7.94435 86.2623 7.21266 86.4509C6.49982 86.6345 6.14277 86.73 5.43244 86.9249C5.43244 86.1882 5.43244 85.8198 5.43244 85.0831C5.43244 84.3426 5.43244 83.973 5.43244 83.2325C5.43244 82.4957 5.43244 82.1274 5.43244 81.3906C5.43244 80.6501 5.43244 80.2805 5.43244 79.54C5.43244 78.7995 5.43244 78.4299 5.43244 77.6894C6.14402 77.4945 6.49982 77.399 7.21266 77.2154C7.94435 77.0269 8.3102 76.9351 9.04441 76.7578C9.77737 76.5805 10.1457 76.4951 10.8812 76.3291C10.8812 77.0696 10.8812 77.4392 10.8812 78.1797C11.6129 78.015 11.98 77.9346 12.713 77.7812C13.4497 77.6265 13.8193 77.5524 14.5585 77.409C14.5585 76.6685 14.5585 76.2989 14.5585 75.5584C13.8193 75.7018 13.4497 75.7759 12.713 75.9306C12.713 75.2089 12.713 74.8481 12.713 74.1265Z" fill="white"/>
<path d="M29.3722 71.8208C28.628 71.8723 28.2558 71.9 27.5116 71.9629C26.7635 72.0257 26.3901 72.0597 25.6434 72.1338C24.8966 72.208 24.5232 72.2482 23.7776 72.3337C23.051 72.418 22.6876 72.462 21.961 72.5563C21.2167 72.6531 20.8446 72.7046 20.1003 72.8127C20.1003 73.5344 20.1003 73.8952 20.1003 74.6168C19.3611 74.725 18.9914 74.7815 18.2522 74.901C18.2522 75.6415 18.2522 76.0111 18.2522 76.7516C18.2522 77.4921 18.2522 77.8617 18.2522 78.6022C18.2522 79.3389 18.2522 79.7073 18.2522 80.444C18.2522 81.1845 18.2522 81.5541 18.2522 82.2946C18.2522 83.0314 18.2522 83.3997 18.2522 84.1364C18.9902 84.017 19.3598 83.9604 20.1003 83.8523C20.1003 84.5928 20.1003 84.9624 20.1003 85.7029C20.8433 85.5948 21.2154 85.5433 21.961 85.4465C22.6876 85.3522 23.051 85.3069 23.7776 85.2239C24.5232 85.1385 24.8966 85.0982 25.6434 85.024C26.3901 84.9499 26.7635 84.9159 27.5116 84.8531C28.2558 84.7902 28.628 84.7625 29.3722 84.711C29.3722 83.9705 29.3722 83.6009 29.3722 82.8604C30.1203 82.8088 30.4949 82.7862 31.243 82.746C31.243 82.0092 31.243 81.6409 31.243 80.9042C31.243 80.1637 31.243 79.794 31.243 79.0535C31.243 78.3168 31.243 77.9485 31.243 77.2117C31.243 76.4712 31.243 76.1016 31.243 75.3611C31.243 74.6206 31.243 74.251 31.243 73.5105C30.4937 73.5507 30.1203 73.5734 29.3722 73.6249C29.3722 72.9045 29.3722 72.5424 29.3722 71.8208ZM27.5116 75.6188C27.5116 76.3593 27.5116 76.729 27.5116 77.4695C27.5116 78.2062 27.5116 78.5745 27.5116 79.3113C27.5116 80.0518 27.5116 80.4214 27.5116 81.1619C27.5116 81.8986 27.5116 82.267 27.5116 83.0037C26.7635 83.0666 26.3901 83.1005 25.6434 83.1747C24.8966 83.2489 24.5232 83.2891 23.7776 83.3746C23.051 83.4588 22.6864 83.5028 21.961 83.5971C21.961 82.8604 21.961 82.492 21.961 81.7553C21.961 81.0148 21.961 80.6452 21.961 79.9047C21.961 79.1679 21.961 78.7996 21.961 78.0629C21.961 77.3224 21.961 76.9527 21.961 76.2122C21.961 75.4717 21.961 75.1021 21.961 74.3616C22.6876 74.2673 23.051 74.2221 23.7776 74.1391C24.5232 74.0536 24.8966 74.0134 25.6434 73.9392C26.3901 73.865 26.7635 73.8311 27.5116 73.7682C27.5116 74.5075 27.5116 74.8783 27.5116 75.6188Z" fill="white"/>
<path d="M25.6622 67.2306C26.3902 67.1577 26.7547 67.125 27.4839 67.0634C28.232 67.0006 28.6054 66.9717 29.3534 66.9201C30.1014 66.8686 30.4761 66.8459 31.2241 66.8057C31.9684 66.7655 32.3418 66.7491 33.0873 66.7202C33.8366 66.6913 34.2113 66.68 34.9606 66.6636C34.9606 65.9231 34.9606 65.5535 34.9606 64.813C34.2113 64.8306 33.8366 64.8419 33.0873 64.8696C32.3418 64.8985 31.9697 64.9149 31.2241 64.9551C30.4748 64.9953 30.1014 65.018 29.3534 65.0695C28.6054 65.121 28.2307 65.15 27.4839 65.2128C26.7547 65.2744 26.3902 65.3071 25.6622 65.38C25.6622 64.6433 25.6622 64.2749 25.6622 63.5382C25.6622 62.7977 25.6622 62.4281 25.6622 61.6876C26.3902 61.6147 26.7547 61.582 27.4839 61.5204C28.232 61.4575 28.6054 61.4286 29.3534 61.3771C30.1014 61.3255 30.4761 61.3029 31.2241 61.2627C31.9697 61.2224 32.3418 61.2061 33.0873 61.1772C33.0873 60.4404 33.0873 60.0721 33.0873 59.3354C32.3418 59.3643 31.9697 59.3806 31.2241 59.4208C30.4748 59.4611 30.1014 59.4837 29.3534 59.5352C28.6054 59.5868 28.2307 59.6157 27.4839 59.6786C26.7547 59.7402 26.3902 59.7729 25.6622 59.8458C25.6622 59.1053 25.6622 58.7357 25.6622 57.9952C25.6622 57.2547 25.6622 56.885 25.6622 56.1445C26.3902 56.0716 26.7547 56.0389 27.4839 55.9773C28.232 55.9145 28.6054 55.8856 29.3534 55.834C30.1014 55.7825 30.4761 55.7598 31.2241 55.7196C31.9697 55.6794 32.3418 55.663 33.0873 55.6341C33.8366 55.6052 34.2113 55.5939 34.9606 55.5775C34.9606 54.8559 34.9606 54.4951 34.9606 53.7734C34.2113 53.791 33.8366 53.8024 33.0873 53.83C32.3418 53.8589 31.9697 53.8753 31.2241 53.9155C30.4748 53.9557 30.1014 53.9784 29.3534 54.0299C28.6054 54.0815 28.2307 54.1104 27.4839 54.1732C26.7547 54.2348 26.3902 54.2675 25.6622 54.3404C24.9154 54.4146 24.5421 54.4549 23.7965 54.5403C23.0548 54.6258 22.6839 54.6711 21.9421 54.7679C21.9421 55.4895 21.9421 55.8504 21.9421 56.572C21.9421 57.3125 21.9421 57.6821 21.9421 58.4226C21.9421 59.1631 21.9421 59.5327 21.9421 60.2732C21.9421 61.01 21.9421 61.3783 21.9421 62.115C21.9421 62.8555 21.9421 63.2252 21.9421 63.9657C21.9421 64.7024 21.9421 65.0708 21.9421 65.8075C21.9421 66.548 21.9421 66.9176 21.9421 67.6581C22.6826 67.5613 23.0535 67.516 23.7965 67.4305C24.5421 67.345 24.9154 67.3048 25.6622 67.2306Z" fill="white"/>
<path d="M38.6982 57.4018C38.6982 58.1423 38.6982 58.5119 38.6982 59.2524C38.6982 59.9891 38.6982 60.3575 38.6982 61.0942C38.6982 61.8347 38.6982 62.2043 38.6982 62.9448C38.6982 63.6816 38.6982 64.0499 38.6982 64.7867C38.6982 65.5272 38.6982 65.8968 38.6982 66.6373C39.4438 66.6436 39.8172 66.6486 40.5627 66.6662C41.312 66.6838 41.6866 66.6951 42.4359 66.724C43.1664 66.7517 43.531 66.7693 44.2614 66.8083C45.0107 66.8485 45.3841 66.8711 46.1321 66.9227C46.8802 66.9742 47.2548 67.0031 48.0016 67.066C48.7459 67.1288 49.1168 67.1628 49.8598 67.237C50.6066 67.3111 50.98 67.3514 51.7255 67.4369C51.7255 66.6964 51.7255 66.3267 51.7255 65.5862C50.98 65.5007 50.6066 65.4605 49.8598 65.3863C49.1168 65.3122 48.7446 65.2782 48.0016 65.2154C47.2536 65.1525 46.8802 65.1236 46.1321 65.072C45.3841 65.0205 45.0094 64.9979 44.2614 64.9576C43.531 64.9187 43.1664 64.9023 42.4359 64.8734C42.4359 64.1367 42.4359 63.7683 42.4359 63.0316C42.4359 62.2911 42.4359 61.9215 42.4359 61.181C43.1664 61.2086 43.531 61.2262 44.2614 61.2652C45.0107 61.3054 45.3841 61.3281 46.1321 61.3796C46.8802 61.4311 47.2548 61.4601 48.0016 61.5229C48.7459 61.5858 49.1168 61.6197 49.8598 61.6939C49.8598 60.9572 49.8598 60.5888 49.8598 59.8521C49.1168 59.7779 48.7446 59.744 48.0016 59.6811C47.2536 59.6183 46.8802 59.5893 46.1321 59.5378C45.3841 59.4862 45.0094 59.4636 44.2614 59.4234C43.531 59.3844 43.1664 59.3681 42.4359 59.3391C42.4359 58.5987 42.4359 58.229 42.4359 57.4885C42.4359 56.748 42.4359 56.3784 42.4359 55.6379C43.1664 55.6656 43.531 55.6832 44.2614 55.7221C45.0107 55.7624 45.3841 55.785 46.1321 55.8366C46.8802 55.8881 47.2536 55.917 48.0016 55.9799C48.7459 56.0427 49.1168 56.0767 49.8598 56.1509C50.6066 56.225 50.98 56.2653 51.7255 56.3508C51.7255 55.6291 51.7255 55.2683 51.7255 54.5467C50.98 54.4612 50.6066 54.4209 49.8598 54.3468C49.1168 54.2726 48.7446 54.2386 48.0016 54.1758C47.2536 54.1129 46.8802 54.084 46.1321 54.0325C45.3841 53.9809 45.0094 53.9583 44.2614 53.918C43.531 53.8791 43.1664 53.8627 42.4359 53.8338C41.6866 53.8049 41.312 53.7936 40.5627 53.776C39.8172 53.7584 39.4438 53.7534 38.6982 53.7471C38.6982 54.4687 38.6982 54.8295 38.6982 55.5512C38.6982 56.2917 38.6982 56.6613 38.6982 57.4018Z" fill="white"/>
<path d="M5.41479 67.296C5.41479 68.0328 5.41479 68.4011 5.41479 69.1378C6.14021 68.9392 6.50354 68.8424 7.23147 68.6538C7.23147 69.3943 7.23147 69.7639 7.23147 70.5044C7.96317 70.3158 8.32902 70.2241 9.06323 70.0468C9.77858 69.8746 10.1369 69.7903 10.8535 69.6282C11.589 69.4622 11.9573 69.3817 12.6941 69.2271C13.4308 69.0725 13.8004 68.9983 14.5396 68.855C14.5396 68.1145 14.5396 67.7448 14.5396 67.0044C13.8004 67.1477 13.4308 67.2218 12.6941 67.3765C11.9573 67.5311 11.589 67.6116 10.8535 67.7775C10.1356 67.9397 9.77858 68.0227 9.06323 68.1962C9.06323 67.4595 9.06323 67.0911 9.06323 66.3544C9.06323 65.6139 9.06323 65.2443 9.06323 64.5038C9.06323 63.767 9.06323 63.3987 9.06323 62.6619C9.06323 61.9214 9.06323 61.5518 9.06323 60.8113C9.06323 60.0708 9.06323 59.7012 9.06323 58.9607C9.77858 58.7885 10.1369 58.7042 10.8535 58.5421C11.589 58.3761 11.9573 58.2956 12.6953 58.141C13.432 57.9864 13.8017 57.9122 14.5409 57.7689C14.5409 58.5094 14.5409 58.879 14.5409 59.6195C15.2764 59.4774 15.6447 59.4083 16.3815 59.2775C17.122 59.1455 17.4928 59.0827 18.2346 58.9632C18.2346 58.2227 18.2346 57.8531 18.2346 57.1126C17.4928 57.2333 17.122 57.2962 16.3815 57.4269C16.3815 56.7053 16.3815 56.3444 16.3815 55.6228C15.6447 55.7536 15.2764 55.8214 14.5409 55.9648C13.8017 56.1081 13.432 56.1823 12.6953 56.3369C11.9586 56.4915 11.5902 56.572 10.8548 56.7379C10.1381 56.9001 9.77984 56.9831 9.06449 57.1566C8.33153 57.3339 7.96442 57.4256 7.23273 57.6142C7.23273 58.3359 7.23273 58.6967 7.23273 59.4183C6.5048 59.6057 6.14147 59.7025 5.41605 59.9024C5.41605 60.6428 5.41605 61.0125 5.41605 61.753C5.41605 62.4935 5.41605 62.8631 5.41605 63.6036C5.41605 64.3403 5.41605 64.7087 5.41605 65.4454C5.4148 66.1859 5.41479 66.5568 5.41479 67.296Z" fill="white"/>
<path d="M16.3815 68.5144C17.122 68.3823 17.4928 68.3195 18.2346 68.2001C18.2346 67.4596 18.2346 67.0899 18.2346 66.3494C18.2346 65.6127 18.2346 65.2443 18.2346 64.5076C18.2346 63.7671 18.2346 63.3975 18.2346 62.657C18.2346 61.9203 18.2346 61.5519 18.2346 60.8152C17.4928 60.9359 17.122 60.9987 16.3815 61.1295C15.6447 61.2602 15.2764 61.3281 14.5409 61.4715C13.8017 61.6148 13.432 61.6889 12.6953 61.8436C12.6953 62.5803 12.6953 62.9487 12.6953 63.6854C13.432 63.5308 13.8017 63.4566 14.5409 63.3133C14.5409 64.0538 14.5409 64.4234 14.5409 65.1639C14.5409 65.9006 14.5409 66.269 14.5409 67.0057C15.2764 66.8636 15.6447 66.7945 16.3815 66.6637C16.3815 67.4042 16.3815 67.7751 16.3815 68.5144Z" fill="white"/>
<path d="M55.4407 60.5372C55.4407 61.2739 55.4407 61.6423 55.4407 62.379C55.4407 63.1195 55.4407 63.4891 55.4407 64.2296C55.4407 64.9664 55.4407 65.3347 55.4407 66.0714C55.4407 66.8119 55.4407 67.1816 55.4407 67.9221C56.1799 68.0302 56.5495 68.088 57.2888 68.2075C58.0305 68.3281 58.4014 68.391 59.1419 68.523C59.1419 67.7825 59.1419 67.4129 59.1419 66.6724C59.1419 65.9357 59.1419 65.5673 59.1419 64.8306C59.1419 64.0901 59.1419 63.7205 59.1419 62.98C59.8635 63.1082 60.2244 63.1761 60.946 63.3144C60.946 64.0549 60.946 64.4245 60.946 65.165C61.6852 65.3083 62.0549 65.3825 62.7916 65.5371C62.7916 66.2739 62.7916 66.6422 62.7916 67.3789C63.5296 67.5336 63.8967 67.614 64.6334 67.78C64.6334 68.5205 64.6334 68.8901 64.6334 69.6306C65.3651 69.7953 65.731 69.8808 66.4601 70.0581C67.1931 70.2353 67.5602 70.3271 68.2919 70.5157C68.2919 69.7752 68.2919 69.4056 68.2919 68.6651C67.5602 68.4765 67.1943 68.3847 66.4601 68.2075C66.4601 67.4707 66.4601 67.1024 66.4601 66.3656C65.731 66.1896 65.3651 66.1041 64.6334 65.9382C64.6334 65.1977 64.6334 64.8281 64.6334 64.0876C63.8979 63.9216 63.5296 63.8412 62.7929 63.6865C62.7929 62.9498 62.7929 62.5814 62.7929 61.8447C63.5308 61.9993 63.8979 62.0798 64.6347 62.2457C64.6347 61.5052 64.6347 61.1356 64.6347 60.3951C65.3664 60.5598 65.7322 60.6453 66.4614 60.8226C66.4614 60.0821 66.4614 59.7125 66.4614 58.972C67.1943 59.1492 67.5615 59.241 68.2932 59.4296C68.2932 58.708 68.2932 58.3471 68.2932 57.6255C67.5615 57.4369 67.1956 57.3451 66.4614 57.1679C65.731 56.9919 65.3664 56.9064 64.6347 56.7404C64.6347 57.4621 64.6347 57.8229 64.6347 58.5445C63.8992 58.3786 63.5308 58.2981 62.7929 58.1435C62.7929 58.884 62.7929 59.2536 62.7929 59.9941C62.0549 59.8394 61.6865 59.7653 60.9473 59.6219C60.9473 60.3624 60.9473 60.7321 60.9473 61.4726C60.2269 61.333 59.8661 61.2664 59.1432 61.1381C59.1432 60.3976 59.1432 60.028 59.1432 59.2875C59.1432 58.547 59.1432 58.1774 59.1432 57.4369C59.1432 56.7153 59.1432 56.3545 59.1432 55.6328C58.4027 55.5008 58.0318 55.4379 57.29 55.3173C56.552 55.1978 56.1824 55.14 55.4419 55.0319C55.4419 55.7535 55.4419 56.1143 55.4419 56.836C55.4419 57.5765 55.4419 57.9461 55.4419 58.6866C55.4419 59.4271 55.4407 59.7967 55.4407 60.5372Z" fill="white"/>
<path d="M70.0895 75.8954C69.3641 75.6956 69.0007 75.6 68.2728 75.4114C67.5411 75.2228 67.1753 75.1311 66.441 74.9538C65.7081 74.7765 65.3397 74.691 64.6042 74.5251C63.8864 74.3629 63.5281 74.285 62.809 74.1341C62.0722 73.9795 61.7026 73.9053 60.9634 73.762C60.9634 74.4836 60.9634 74.8444 60.9634 75.5661C60.2279 75.424 59.8595 75.3549 59.1228 75.2241C59.1228 75.9646 59.1228 76.3342 59.1228 77.0747C59.1228 77.8152 59.1228 78.1848 59.1228 78.9253C59.8595 79.0561 60.2279 79.1252 60.9634 79.2673C60.9634 80.004 60.9634 80.3724 60.9634 81.1091C61.7026 81.2524 62.0722 81.3266 62.809 81.4812C63.5281 81.6321 63.8876 81.7101 64.6042 81.8722C65.3397 82.0382 65.7068 82.1237 66.441 82.3009C67.174 82.4782 67.5411 82.57 68.2728 82.7586C68.2728 83.4991 68.2728 83.8687 68.2728 84.6092C68.2728 85.3459 68.2728 85.7143 68.2728 86.451C67.5411 86.2624 67.1753 86.1706 66.441 85.9934C65.7081 85.8161 65.3397 85.7306 64.6042 85.5647C63.8876 85.4025 63.5281 85.3245 62.809 85.1737C62.809 84.4369 62.809 84.0686 62.809 83.3319C62.0722 83.1772 61.7026 83.103 60.9634 82.9597C60.2279 82.8177 59.8595 82.7485 59.1228 82.6178C59.1228 83.3545 59.1228 83.7229 59.1228 84.4596C59.8595 84.5903 60.2279 84.6595 60.9634 84.8015C60.9634 85.542 60.9634 85.9117 60.9634 86.6522C61.7026 86.7955 62.0722 86.8697 62.809 87.0243C63.5281 87.1752 63.8876 87.2531 64.6042 87.4153C65.3397 87.5812 65.7068 87.6667 66.441 87.844C67.174 88.0213 67.5411 88.113 68.2728 88.3016C69.0007 88.4889 69.3641 88.5858 70.0895 88.7857C70.0895 88.0452 70.0895 87.6755 70.0895 86.935C70.8186 87.1349 71.182 87.238 71.9099 87.4505C71.9099 86.7138 71.9099 86.3454 71.9099 85.6087C71.9099 84.8682 71.9099 84.4986 71.9099 83.7581C71.1832 83.5468 70.8186 83.4438 70.0895 83.2426C70.0895 82.5059 70.0895 82.1375 70.0895 81.4008C69.3641 81.2009 69.0007 81.1053 68.2728 80.9168C67.5411 80.7282 67.1753 80.6364 66.441 80.4591C65.7081 80.2819 65.3397 80.1964 64.6042 80.0304C63.8864 79.8682 63.5281 79.7903 62.809 79.6394C62.809 78.8989 62.809 78.5293 62.809 77.7888C62.809 77.0483 62.809 76.6787 62.809 75.9382C63.5281 76.0891 63.8876 76.167 64.6042 76.3292C65.3397 76.4951 65.7068 76.5806 66.441 76.7579C67.174 76.9352 67.5411 77.0269 68.2728 77.2155C68.2728 77.956 68.2728 78.3256 68.2728 79.0661C69.0007 79.2535 69.3641 79.3503 70.0895 79.5502C70.8186 79.7501 71.1832 79.8532 71.9099 80.0656C71.9099 79.3251 71.9099 78.9555 71.9099 78.215C71.1832 78.0038 70.8186 77.9007 70.0895 77.6996C70.0895 76.9779 70.0895 76.6171 70.0895 75.8954Z" fill="white"/>
<path d="M36.8437 71.5379C36.0982 71.5429 35.7248 71.5492 34.9792 71.5656C34.9792 72.2872 34.9792 72.648 34.9792 73.3697C34.9792 74.1102 34.9792 74.4798 34.9792 75.2203C34.9792 75.9608 34.9792 76.3304 34.9792 77.0709C34.9792 77.8076 34.9792 78.176 34.9792 78.9127C34.9792 79.6532 34.9792 80.0228 34.9792 80.7633C34.9792 81.5001 34.9792 81.8684 34.9792 82.6052C34.9792 83.3457 34.9792 83.7153 34.9792 84.4558C35.7248 84.4394 36.0982 84.4331 36.8437 84.4281C37.593 84.4231 37.9676 84.4231 38.7169 84.4281C38.7169 83.6876 38.7169 83.318 38.7169 82.5775C38.7169 81.8408 38.7169 81.4724 38.7169 80.7357C38.7169 79.9952 38.7169 79.6256 38.7169 78.8851C38.7169 78.1483 38.7169 77.78 38.7169 77.0432C38.7169 76.3027 38.7169 75.9331 38.7169 75.1926C38.7169 74.4521 38.7169 74.0825 38.7169 73.342C38.7169 72.6204 38.7169 72.2596 38.7169 71.5379C37.9676 71.5316 37.593 71.5316 36.8437 71.5379Z" fill="white"/>
<path d="M51.7078 72.335C51.7078 73.0566 51.7078 73.4174 51.7078 74.1391C51.7078 74.8796 51.7078 75.2492 51.7078 75.9897C51.7078 76.7302 51.7078 77.0998 51.7078 77.8403C50.9623 77.7548 50.5889 77.7146 49.8421 77.6404C49.8421 76.8999 49.8421 76.5303 49.8421 75.7898C49.0953 75.7156 48.7219 75.6817 47.9739 75.6188C47.9739 74.8783 47.9739 74.5087 47.9739 73.7682C47.2447 73.7066 46.8801 73.6789 46.1509 73.6286C46.1509 72.907 46.1509 72.5462 46.1509 71.8245C45.4029 71.773 45.0282 71.7504 44.2802 71.7101C43.5359 71.6699 43.1625 71.6535 42.417 71.6246C42.417 72.3463 42.417 72.7071 42.417 73.4287C42.417 74.1692 42.417 74.5389 42.417 75.2794C42.417 76.0198 42.417 76.3895 42.417 77.13C42.417 77.8667 42.417 78.2351 42.417 78.9718C42.417 79.7123 42.417 80.0819 42.417 80.8224C42.417 81.5591 42.417 81.9275 42.417 82.6642C42.417 83.4047 42.417 83.7743 42.417 84.5148C43.1625 84.5437 43.5347 84.5601 44.2802 84.6003C45.0295 84.6405 45.4029 84.6632 46.1509 84.7147C46.1509 83.9742 46.1509 83.6046 46.1509 82.8641C46.1509 82.1274 46.1509 81.759 46.1509 81.0223C46.1509 80.2818 46.1509 79.9122 46.1509 79.1717C46.1509 78.4349 46.1509 78.0666 46.1509 77.3299C46.8801 77.3802 47.2447 77.4078 47.9739 77.4694C47.9739 78.2061 47.9739 78.5745 47.9739 79.3112C48.7219 79.3741 49.0953 79.408 49.8421 79.4822C49.8421 80.2227 49.8421 80.5923 49.8421 81.3328C50.5889 81.407 50.9623 81.4472 51.7078 81.5327C51.7078 82.2695 51.7078 82.6378 51.7078 83.3745C51.7078 84.115 51.7078 84.4847 51.7078 85.2252C52.4496 85.3106 52.8204 85.3559 53.5622 85.4527C54.3065 85.5495 54.6786 85.6011 55.4229 85.7104C55.4229 84.9699 55.4229 84.6003 55.4229 83.8598C55.4229 83.1231 55.4229 82.7547 55.4229 82.018C55.4229 81.2775 55.4229 80.9079 55.4229 80.1674C55.4229 79.4307 55.4229 79.0623 55.4229 78.3256C55.4229 77.5851 55.4229 77.2155 55.4229 76.475C55.4229 75.7345 55.4229 75.3648 55.4229 74.6243C55.4229 73.9027 55.4229 73.5419 55.4229 72.8202C54.6798 72.7121 54.3077 72.6606 53.5622 72.5625C52.8204 72.4657 52.4496 72.4204 51.7078 72.335Z" fill="white"/>
<path d="M23.7776 74.1392C23.0497 74.2234 22.6863 74.2674 21.9609 74.3617C21.9609 75.1022 21.9609 75.4718 21.9609 76.2123C21.9609 76.9528 21.9609 77.3224 21.9609 78.0629C21.9609 78.7997 21.9609 79.168 21.9609 79.9048C21.9609 80.6453 21.9609 81.0149 21.9609 81.7554C21.9609 82.4921 21.9609 82.8605 21.9609 83.5972C22.6876 83.5029 23.0509 83.4576 23.7776 83.3747C24.5231 83.2892 24.8965 83.249 25.6433 83.1748C26.3901 83.1006 26.7635 83.0666 27.5115 83.0038C27.5115 82.2671 27.5115 81.8987 27.5115 81.162C27.5115 80.4215 27.5115 80.0519 27.5115 79.3114C27.5115 78.5746 27.5115 78.2063 27.5115 77.4695C27.5115 76.729 27.5115 76.3594 27.5115 75.6189C27.5115 74.8784 27.5115 74.5088 27.5115 73.7683C26.7635 73.8312 26.3901 73.8651 25.6433 73.9393C24.8965 74.0135 24.5244 74.0537 23.7776 74.1392Z" fill="black"/>
<path d="M73.7141 78.7556C73.7141 78.0339 73.7141 77.6731 73.7141 76.9515C72.9938 76.7289 72.6329 76.6208 71.91 76.4109C71.91 75.6704 71.91 75.3007 71.91 74.5602C71.9038 74.559 71.8987 74.5565 71.8924 74.5552C71.8924 74.1516 71.8924 73.8185 71.8924 73.3081C71.8924 72.5864 71.8924 72.2256 71.8924 71.504C71.8924 70.7635 71.8924 70.3938 71.8924 69.6533C71.1796 69.4459 70.8238 69.3453 70.1085 69.1479C70.1085 68.4112 70.1085 68.0428 70.1085 67.3061C69.383 67.1062 69.0197 67.0094 68.2918 66.8221C68.2918 66.0816 68.2918 65.712 68.2918 64.9715C69.0197 65.1601 69.383 65.2569 70.1085 65.4555C70.1085 64.7188 70.1085 64.3504 70.1085 63.6137C70.8226 63.8098 71.1796 63.9117 71.8924 64.1191C71.8924 63.3786 71.8924 63.009 71.8924 62.2685C71.8924 61.528 71.8924 61.1584 71.8924 60.4179C71.8924 59.6962 71.8924 59.3354 71.8924 58.6138C71.1796 58.4063 70.8238 58.3057 70.1085 58.1084C70.1085 57.3679 70.1085 56.9982 70.1085 56.2577C69.383 56.0578 69.0197 55.961 68.2918 55.7737C67.5601 55.5851 67.1942 55.4934 66.46 55.3161C65.7296 55.1401 65.365 55.0546 64.6333 54.8886C63.8978 54.7227 63.5295 54.6422 62.7915 54.4876C62.7915 55.2281 62.7915 55.5977 62.7915 56.3382C62.0535 56.1836 61.6851 56.1094 60.9459 55.9661C60.9459 55.2256 60.9459 54.8559 60.9459 54.1155C60.2255 53.9759 59.8647 53.9093 59.1418 53.781C58.4013 53.649 58.0304 53.5862 57.2887 53.4655C56.5507 53.346 56.1811 53.2882 55.4406 53.1801C54.6975 53.0707 54.3254 53.0192 53.5799 52.9224C52.8394 52.8256 52.4685 52.7803 51.7255 52.6948C50.98 52.6093 50.6066 52.5691 49.8598 52.4949C49.1168 52.4207 48.7446 52.3868 48.0016 52.3239C47.2536 52.2611 46.8802 52.2321 46.1322 52.1806C45.3841 52.1291 45.0095 52.1064 44.2614 52.0662C43.531 52.0272 43.1664 52.0109 42.436 51.982C41.6867 51.953 41.312 51.9417 40.5627 51.9241C39.8172 51.9065 39.4438 51.9015 38.6983 51.8952C37.949 51.8889 37.5743 51.8889 36.825 51.8952C36.0795 51.9002 35.7061 51.9065 34.9606 51.9229C34.2113 51.9405 33.8366 51.9518 33.0873 51.9794C32.3418 52.0084 31.9697 52.0247 31.2241 52.0649C30.4748 52.1052 30.1014 52.1278 29.3534 52.1793C28.6054 52.2309 28.232 52.2598 27.4839 52.3227C26.7547 52.3843 26.3901 52.417 25.6622 52.4899C24.9154 52.5641 24.542 52.6043 23.7965 52.6898C23.0548 52.7753 22.6839 52.8205 21.9421 52.9173C21.1979 53.0141 20.8257 53.0657 20.0815 53.1751C20.0815 53.9156 20.0815 54.2852 20.0815 55.0257C19.3422 55.1338 18.9726 55.1904 18.2334 55.3098C18.2334 54.5693 18.2334 54.1997 18.2334 53.4592C17.4916 53.5799 17.1207 53.6427 16.3802 53.7735C15.6435 53.9042 15.2751 53.9721 14.5397 54.1155C13.8004 54.2588 13.4308 54.333 12.6941 54.4876C11.9573 54.6422 11.589 54.7227 10.8535 54.8886C10.1356 55.0508 9.7786 55.1338 9.06325 55.3073C8.32903 55.4846 7.96318 55.5763 7.23149 55.7649C6.50356 55.9522 6.14022 56.049 5.41481 56.2489C5.41481 56.9894 5.41481 57.3591 5.41481 58.0996C4.68563 58.2995 4.32104 58.4025 3.59437 58.6138C3.59437 59.3354 3.59437 59.6962 3.59437 60.4179C3.59437 61.1584 3.59437 61.528 3.59437 62.2685C3.59437 63.009 3.59437 63.3786 3.59437 64.1191C3.59437 64.8558 3.59437 65.2242 3.59437 65.9609C3.59437 66.7014 3.59437 67.071 3.59437 67.8115C3.59437 68.5483 3.59437 68.9166 3.59437 69.6533C3.59437 70.3938 3.59437 70.7635 3.59437 71.504C4.32104 71.2927 4.68563 71.1897 5.41481 70.9898C5.41481 71.7114 5.41481 72.0722 5.41481 72.7939C6.14022 72.5952 6.50356 72.4984 7.23149 72.3098C7.23149 72.8203 7.23149 73.1534 7.23149 73.557C7.2252 73.5582 7.22017 73.5595 7.21389 73.562C6.50105 73.7456 6.14526 73.8411 5.43367 74.036C4.70449 74.2359 4.34116 74.339 3.61323 74.5502C2.89033 74.7601 2.52951 74.8683 1.80787 75.0908C1.80787 75.8313 1.80787 76.2009 1.80787 76.9414C1.08372 77.1639 0.72164 77.2783 0 77.5134C0 78.2351 0 78.5959 0 79.3175C0 80.058 0 80.4277 0 81.1681C0 81.9086 0 82.2783 0 83.0188C0 83.7555 0 84.1239 0 84.8606C0 85.6011 0 85.9707 0 86.7112C0 87.4479 0 87.8163 0 88.553C0 89.2935 0 89.6631 0 90.4036C0.72164 90.1698 1.08372 90.0554 1.80787 89.8316C1.80787 90.5532 1.80787 90.9141 1.80787 91.6357C2.52825 91.4144 2.88907 91.3063 3.61323 91.0951C3.61323 91.8243 3.61323 92.1889 3.61323 92.9181C4.3399 92.7068 4.70449 92.6038 5.43367 92.4039C6.14526 92.209 6.50105 92.1134 7.21389 91.9299C7.94559 91.7413 8.31143 91.6495 9.04564 91.4723C9.77986 91.295 10.147 91.2095 10.8824 91.0436C11.6141 90.8789 11.9812 90.7984 12.7142 90.645C13.4522 90.4904 13.8205 90.4162 14.5598 90.2729C15.2952 90.1308 15.6636 90.0629 16.4003 89.9322C16.4003 89.203 16.4003 88.8384 16.4003 88.1092C17.1257 87.9797 17.4891 87.9181 18.217 87.8012C18.217 87.0796 18.217 86.7187 18.217 85.9971C18.2296 85.9946 18.2409 85.9933 18.2535 85.9908C18.2535 86.7125 18.2535 87.0733 18.2535 87.7949C18.9915 87.6755 19.3611 87.6189 20.1016 87.5108C20.1016 88.24 20.1016 88.6046 20.1016 89.3337C20.8458 89.2256 21.2167 89.1741 21.9622 89.0773C22.6889 88.983 23.0522 88.9377 23.7789 88.8547C24.5244 88.7693 24.8978 88.729 25.6446 88.6548C26.3914 88.5807 26.7648 88.5467 27.5128 88.4839C28.2571 88.421 28.6292 88.3933 29.3735 88.3418C30.1216 88.2903 30.4962 88.2676 31.2442 88.2274C31.9898 88.1872 32.3619 88.1708 33.1074 88.1419C33.1074 87.4127 33.1074 87.0481 33.1074 86.319C33.1992 86.3152 33.286 86.3127 33.3677 86.3089C33.4192 86.3076 33.4657 86.3051 33.5135 86.3039C33.5424 86.3026 33.5739 86.3013 33.6015 86.3001C34.0365 86.285 34.3772 86.2749 34.904 86.2636C34.9304 86.2636 34.953 86.2624 34.9794 86.2624C34.9794 86.9916 34.9794 87.3562 34.9794 88.0853C35.725 88.069 36.0983 88.0627 36.8439 88.0577C37.5932 88.0526 37.9678 88.0526 38.7171 88.0577C39.4476 88.064 39.8134 88.069 40.5438 88.0853C41.2931 88.1029 41.6678 88.1142 42.4171 88.1432C43.1626 88.1721 43.5348 88.1884 44.2803 88.2287C45.0296 88.2689 45.403 88.2915 46.151 88.3431C46.8802 88.3933 47.2448 88.421 47.974 88.4826C48.722 88.5455 49.0954 88.5794 49.8422 88.6536C49.8422 87.9244 49.8422 87.5598 49.8422 86.8306C50.589 86.9048 50.9624 86.945 51.7079 87.0305C51.7079 87.7597 51.7079 88.1243 51.7079 88.8535C52.4496 88.939 52.8205 88.9842 53.5623 89.081C54.3066 89.1778 54.6787 89.2294 55.423 89.3388C56.1622 89.4469 56.5318 89.5035 57.2711 89.6242C57.999 89.7423 58.3623 89.8039 59.0877 89.9322C59.0877 89.203 59.0877 88.8384 59.0877 88.1092C59.0877 87.3876 59.0877 87.0268 59.0877 86.3051C59.1003 86.3076 59.1116 86.3089 59.1242 86.3114C59.1242 87.0331 59.1242 87.3939 59.1242 88.1155C59.8609 88.2463 60.2293 88.3154 60.9648 88.4575C60.9648 89.1866 60.9648 89.5512 60.9648 90.2804C61.704 90.4237 62.0736 90.4979 62.8103 90.6526C63.5295 90.8034 63.8878 90.8814 64.6056 91.0436C65.3411 91.2095 65.7082 91.295 66.4424 91.4723C67.1766 91.6495 67.5425 91.7413 68.2742 91.9299C69.0021 92.1172 69.3654 92.214 70.0909 92.4139C70.82 92.6138 71.1834 92.7169 71.9113 92.9294C72.6342 93.1406 72.995 93.2487 73.7154 93.47C73.7154 92.7408 73.7154 92.3762 73.7154 91.647C74.4257 91.8658 74.779 91.9777 75.4868 92.2077C75.4868 91.4861 75.4868 91.1253 75.4868 90.4036C75.4868 89.6631 75.4868 89.2935 75.4868 88.553C75.4868 87.8163 75.4868 87.4479 75.4868 86.7112C75.4868 85.9707 75.4868 85.6011 75.4868 84.8606C75.4868 84.1239 75.4868 83.7555 75.4868 83.0188C75.4868 82.2783 75.4868 81.9086 75.4868 81.1681C75.4868 80.4277 75.4868 80.058 75.4868 79.3175C74.7777 79.0862 74.4232 78.9743 73.7141 78.7556ZM55.4393 55.032C56.1785 55.1401 56.5482 55.1979 57.2874 55.3173C58.0292 55.438 58.4 55.5009 59.1405 55.6329C59.1405 56.3545 59.1405 56.7154 59.1405 57.437C59.1405 58.1775 59.1405 58.5471 59.1405 59.2876C59.1405 60.0281 59.1405 60.3977 59.1405 61.1382C59.8622 61.2665 60.223 61.3344 60.9446 61.4727C60.9446 60.7322 60.9446 60.3625 60.9446 59.622C61.6839 59.7654 62.0535 59.8395 62.7902 59.9942C62.7902 59.2537 62.7902 58.8841 62.7902 58.1436C63.5282 58.2982 63.8953 58.3787 64.632 58.5446C64.632 57.823 64.632 57.4622 64.632 56.7405C65.3637 56.9052 65.7296 56.9907 66.4588 57.168C67.1917 57.3452 67.5588 57.437 68.2905 57.6256C68.2905 58.3472 68.2905 58.7081 68.2905 59.4297C67.5588 59.2411 67.193 59.1493 66.4588 58.9721C66.4588 59.7126 66.4588 60.0822 66.4588 60.8227C65.7283 60.6467 65.3637 60.5612 64.632 60.3952C64.632 61.1357 64.632 61.5053 64.632 62.2458C63.8966 62.0799 63.5282 61.9994 62.7902 61.8448C62.7902 62.5815 62.7902 62.9499 62.7902 63.6866C63.5282 63.8412 63.8953 63.9217 64.6308 64.0877C64.6308 64.8282 64.6308 65.1978 64.6308 65.9383C65.3625 66.103 65.7283 66.1885 66.4575 66.3657C66.4575 67.1025 66.4575 67.4708 66.4575 68.2076C67.1905 68.3848 67.5576 68.4766 68.2893 68.6652C68.2893 69.4057 68.2893 69.7753 68.2893 70.5158C67.5576 70.3272 67.1917 70.2354 66.4575 70.0582C65.7271 69.8822 65.3625 69.7967 64.6308 69.6307C64.6308 68.8902 64.6308 68.5206 64.6308 67.7801C63.8953 67.6141 63.5269 67.5337 62.789 67.379C62.789 66.6423 62.789 66.2739 62.789 65.5372C62.051 65.3826 61.6826 65.3084 60.9434 65.1651C60.9434 64.4246 60.9434 64.055 60.9434 63.3145C60.223 63.1749 59.8622 63.1083 59.1393 62.9801C59.1393 63.7206 59.1393 64.0902 59.1393 64.8307C59.1393 65.5674 59.1393 65.9358 59.1393 66.6725C59.1393 67.413 59.1393 67.7826 59.1393 68.5231C58.3988 68.3911 58.0279 68.3282 57.2861 68.2076C56.5482 68.0881 56.1785 68.0303 55.438 67.9222C55.438 67.1817 55.438 66.812 55.438 66.0715C55.438 65.3348 55.438 64.9665 55.438 64.2297C55.438 63.4892 55.438 63.1196 55.438 62.3791C55.438 61.6424 55.438 61.274 55.438 60.5373C55.438 59.7968 55.438 59.4272 55.438 58.6867C55.438 57.9462 55.438 57.5766 55.438 56.8361C55.4393 56.1144 55.4393 55.7536 55.4393 55.032ZM40.5627 53.776C41.312 53.7936 41.6867 53.8049 42.436 53.8338C43.1664 53.8615 43.531 53.8791 44.2614 53.9181C45.0107 53.9583 45.3841 53.9809 46.1322 54.0325C46.8802 54.084 47.2548 54.1129 48.0016 54.1758C48.7459 54.2387 49.1168 54.2726 49.8598 54.3468C50.6066 54.421 50.98 54.4612 51.7255 54.5467C51.7255 55.2683 51.7255 55.6291 51.7255 56.3508C50.98 56.2653 50.6066 56.2251 49.8598 56.1509C49.1168 56.0767 48.7446 56.0428 48.0016 55.9799C47.2536 55.917 46.8802 55.8881 46.1322 55.8366C45.3841 55.785 45.0095 55.7624 44.2614 55.7222C43.531 55.6832 43.1664 55.6668 42.436 55.6379C42.436 56.3784 42.436 56.7481 42.436 57.4886C42.436 58.2291 42.436 58.5987 42.436 59.3392C43.1664 59.3668 43.531 59.3844 44.2614 59.4234C45.0107 59.4636 45.3841 59.4863 46.1322 59.5378C46.8802 59.5894 47.2536 59.6183 48.0016 59.6811C48.7459 59.744 49.1168 59.7779 49.8598 59.8521C49.8598 60.5888 49.8598 60.9572 49.8598 61.6939C49.1168 61.6197 48.7446 61.5858 48.0016 61.5229C47.2536 61.4601 46.8802 61.4312 46.1322 61.3796C45.3841 61.3281 45.0095 61.3054 44.2614 61.2652C43.531 61.2262 43.1664 61.2099 42.436 61.181C42.436 61.9215 42.436 62.2911 42.436 63.0316C42.436 63.7683 42.436 64.1367 42.436 64.8734C43.1664 64.9011 43.531 64.9187 44.2614 64.9577C45.0095 64.9979 45.3841 65.0205 46.1322 65.0721C46.8802 65.1236 47.2536 65.1525 48.0016 65.2154C48.7459 65.2782 49.1168 65.3122 49.8598 65.3864C50.6066 65.4605 50.98 65.5008 51.7255 65.5863C51.7255 66.3268 51.7255 66.6964 51.7255 67.4369C50.98 67.3514 50.6066 67.3112 49.8598 67.237C49.1168 67.1628 48.7446 67.1289 48.0016 67.066C47.2536 67.0031 46.8802 66.9742 46.1322 66.9227C45.3841 66.8711 45.0095 66.8485 44.2614 66.8083C43.531 66.7693 43.1664 66.7529 42.436 66.724C41.6867 66.6951 41.312 66.6838 40.5627 66.6662C39.8172 66.6486 39.4438 66.6436 38.6983 66.6373C38.6983 65.8968 38.6983 65.5272 38.6983 64.7867C38.6983 64.0499 38.6983 63.6816 38.6983 62.9449C38.6983 62.2044 38.6983 61.8347 38.6983 61.0942C38.6983 60.3575 38.6983 59.9891 38.6983 59.2524C38.6983 58.5119 38.6983 58.1423 38.6983 57.4018C38.6983 56.6613 38.6983 56.2917 38.6983 55.5512C38.6983 54.8295 38.6983 54.4687 38.6983 53.7471C39.4438 53.7521 39.8172 53.7584 40.5627 53.776ZM21.9434 65.8075C21.9434 65.0708 21.9434 64.7024 21.9434 63.9657C21.9434 63.2252 21.9434 62.8556 21.9434 62.1151C21.9434 61.3784 21.9434 61.01 21.9434 60.2733C21.9434 59.5328 21.9434 59.1632 21.9434 58.4227C21.9434 57.6822 21.9434 57.3125 21.9434 56.572C21.9434 55.8504 21.9434 55.4896 21.9434 54.7679C22.6839 54.6711 23.0548 54.6259 23.7978 54.5404C24.5433 54.4549 24.9167 54.4147 25.6635 54.3405C26.3914 54.2676 26.756 54.2349 27.4852 54.1733C28.2332 54.1104 28.6066 54.0815 29.3547 54.03C30.1027 53.9784 30.4773 53.9558 31.2254 53.9156C31.9709 53.8753 32.343 53.859 33.0886 53.8301C33.8379 53.8011 34.2125 53.7898 34.9618 53.7735C34.9618 54.4951 34.9618 54.856 34.9618 55.5776C34.2125 55.5952 33.8379 55.6065 33.0886 55.6342C32.343 55.6631 31.9709 55.6794 31.2254 55.7197C30.4761 55.7599 30.1027 55.7825 29.3547 55.8341C28.6066 55.8856 28.232 55.9145 27.4852 55.9774C26.756 56.039 26.3914 56.0717 25.6635 56.1446C25.6635 56.8851 25.6635 57.2547 25.6635 57.9952C25.6635 58.7357 25.6635 59.1053 25.6635 59.8458C26.3914 59.7729 26.756 59.7402 27.4852 59.6786C28.2332 59.6158 28.6066 59.5868 29.3547 59.5353C30.1027 59.4837 30.4773 59.4611 31.2254 59.4209C31.9697 59.3807 32.343 59.3643 33.0886 59.3354C33.0886 60.0721 33.0886 60.4405 33.0886 61.1772C32.343 61.2061 31.9709 61.2225 31.2254 61.2627C30.4761 61.3029 30.1027 61.3256 29.3547 61.3771C28.6066 61.4287 28.232 61.4576 27.4852 61.5204C26.756 61.582 26.3914 61.6147 25.6635 61.6876C25.6635 62.4281 25.6635 62.7978 25.6635 63.5383C25.6635 64.275 25.6635 64.6433 25.6635 65.3801C26.3914 65.3072 26.756 65.2745 27.4852 65.2129C28.2332 65.15 28.6066 65.1211 29.3547 65.0695C30.1027 65.018 30.4773 64.9954 31.2254 64.9551C31.9709 64.9149 32.343 64.8986 33.0886 64.8696C33.8379 64.8407 34.2125 64.8294 34.9618 64.8131C34.9618 65.5536 34.9618 65.9232 34.9618 66.6637C34.2125 66.6813 33.8379 66.6926 33.0886 66.7203C32.343 66.7492 31.9709 66.7655 31.2254 66.8058C30.4761 66.846 30.1027 66.8686 29.3547 66.9202C28.6066 66.9717 28.232 67.0006 27.4852 67.0635C26.756 67.1251 26.3914 67.1578 25.6635 67.2307C24.9167 67.3049 24.5433 67.3451 23.7978 67.4306C23.056 67.5161 22.6851 67.5613 21.9434 67.6581C21.9434 66.9176 21.9434 66.548 21.9434 65.8075ZM5.41481 69.1379C5.41481 68.4012 5.41481 68.0328 5.41481 67.2961C5.41481 66.5556 5.41481 66.1859 5.41481 65.4454C5.41481 64.7087 5.41481 64.3404 5.41481 63.6036C5.41481 62.8631 5.41481 62.4935 5.41481 61.753C5.41481 61.0125 5.41481 60.6429 5.41481 59.9024C6.14022 59.7038 6.50356 59.607 7.23149 59.4184C7.23149 58.6967 7.23149 58.3359 7.23149 57.6143C7.96318 57.4257 8.32903 57.3339 9.06325 57.1566C9.7786 56.9844 10.1369 56.9002 10.8535 56.738C11.589 56.572 11.9573 56.4916 12.6941 56.3369C13.4321 56.1823 13.8004 56.1081 14.5397 55.9648C15.2751 55.8227 15.6435 55.7536 16.3802 55.6228C16.3802 56.3445 16.3802 56.7053 16.3802 57.427C17.1207 57.2949 17.4916 57.2321 18.2334 57.1126C18.2334 57.8531 18.2334 58.2228 18.2334 58.9633C17.4916 59.084 17.1207 59.1468 16.3802 59.2776C15.6435 59.4083 15.2751 59.4762 14.5397 59.6195C14.5397 58.879 14.5397 58.5094 14.5397 57.7689C13.8004 57.9122 13.4308 57.9864 12.6941 58.141C11.9561 58.2957 11.589 58.3761 10.8535 58.5421C10.1369 58.7043 9.7786 58.7873 9.06325 58.9607C9.06325 59.7012 9.06325 60.0709 9.06325 60.8114C9.06325 61.5519 9.06325 61.9215 9.06325 62.662C9.06325 63.3987 9.06325 63.7671 9.06325 64.5038C9.06325 65.2443 9.06325 65.6139 9.06325 66.3544C9.06325 67.0911 9.06325 67.4595 9.06325 68.1962C9.7786 68.024 10.1369 67.9398 10.8535 67.7776C11.589 67.6116 11.9573 67.5312 12.6941 67.3765C13.4321 67.2219 13.8004 67.1477 14.5397 67.0044C14.5397 66.2677 14.5397 65.8993 14.5397 65.1626C14.5397 64.4221 14.5397 64.0525 14.5397 63.312C13.8004 63.4553 13.4308 63.5295 12.6941 63.6841C12.6941 62.9474 12.6941 62.579 12.6941 61.8423C13.4321 61.6876 13.8004 61.6135 14.5397 61.4701C15.2751 61.3281 15.6435 61.2589 16.3802 61.1282C17.1207 60.9962 17.4916 60.9333 18.2334 60.8139C18.2334 61.5506 18.2334 61.919 18.2334 62.6557C18.2334 63.3962 18.2334 63.7658 18.2334 64.5063C18.2334 65.243 18.2334 65.6114 18.2334 66.3481C18.2334 67.0886 18.2334 67.4583 18.2334 68.1987C17.4916 68.3194 17.1207 68.3823 16.3802 68.5131C16.3802 67.7726 16.3802 67.4029 16.3802 66.6624C15.6435 66.7932 15.2751 66.8611 14.5397 67.0044C14.5397 67.7449 14.5397 68.1145 14.5397 68.855C13.8004 68.9983 13.4308 69.0725 12.6941 69.2271C11.9561 69.3818 11.589 69.4622 10.8535 69.6282C10.1356 69.7904 9.7786 69.8734 9.06325 70.0468C8.32903 70.2241 7.96318 70.3159 7.23149 70.5045C7.23149 69.764 7.23149 69.3944 7.23149 68.6539C6.50356 68.8424 6.14022 68.938 5.41481 69.1379ZM14.5585 77.4091C13.8193 77.5524 13.4497 77.6266 12.7129 77.7812C11.9787 77.9346 11.6129 78.0151 10.8812 78.1798C10.8812 77.4393 10.8812 77.0696 10.8812 76.3291C10.1457 76.4951 9.7786 76.5806 9.04439 76.7578C8.31143 76.9351 7.94433 77.0269 7.21263 77.2155C6.49979 77.399 6.14274 77.4946 5.43242 77.6894C5.43242 78.4299 5.43242 78.7996 5.43242 79.5401C5.43242 80.2806 5.43242 80.6502 5.43242 81.3907C5.43242 82.1274 5.43242 82.4958 5.43242 83.2325C5.43242 83.973 5.43242 84.3426 5.43242 85.0831C5.43242 85.8198 5.43242 86.1882 5.43242 86.9249C6.144 86.7301 6.49979 86.6345 7.21263 86.451C7.94433 86.2624 8.31018 86.1706 9.04439 85.9933C9.77734 85.8161 10.1457 85.7306 10.8812 85.5646C10.8812 84.8279 10.8812 84.4595 10.8812 83.7228C11.6129 83.5581 11.98 83.4777 12.7129 83.3243C13.4509 83.1696 13.8193 83.0955 14.5585 82.9521C14.5585 83.6889 14.5585 84.0572 14.5585 84.794C13.8193 84.9373 13.4497 85.0114 12.7129 85.1661C12.7129 85.9066 12.7129 86.2762 12.7129 87.0167C11.9787 87.1701 11.6129 87.2505 10.8812 87.4152C10.1457 87.5812 9.7786 87.6667 9.04439 87.8439C8.31018 88.0212 7.94433 88.113 7.21263 88.3016C6.49979 88.4851 6.14274 88.5807 5.43242 88.7755C4.70323 88.9754 4.33864 89.0785 3.61197 89.2897C3.61197 88.5492 3.61197 88.1796 3.61197 87.4391C2.88907 87.6491 2.52826 87.7572 1.80662 87.9797C1.80662 87.243 1.80662 86.8746 1.80662 86.1379C1.80662 85.3974 1.80662 85.0278 1.80662 84.2873C1.80662 83.5506 1.80662 83.1822 1.80662 82.4455C1.80662 81.705 1.80662 81.3354 1.80662 80.5949C1.80662 79.8544 1.80662 79.4847 1.80662 78.7442C2.527 78.523 2.88782 78.4149 3.61197 78.2036C3.61197 77.482 3.61197 77.1212 3.61197 76.3995C4.33864 76.1883 4.70323 76.0852 5.43242 75.8853C6.144 75.6905 6.49979 75.5949 7.21263 75.4114C7.94433 75.2228 8.31018 75.131 9.04439 74.9537C9.7786 74.7765 10.1457 74.691 10.8812 74.525C11.6129 74.3603 11.98 74.2799 12.7129 74.1265C12.7129 74.8481 12.7129 75.209 12.7129 75.9306C13.4509 75.776 13.8193 75.7018 14.5585 75.5585C14.5585 76.299 14.5585 76.6698 14.5585 77.4091ZM31.243 75.3623C31.243 76.1028 31.243 76.4725 31.243 77.213C31.243 77.9497 31.243 78.318 31.243 79.0548C31.243 79.7953 31.243 80.1649 31.243 80.9054C31.243 81.6421 31.243 82.0105 31.243 82.7472C30.4937 82.7874 30.1203 82.8101 29.3723 82.8616C29.3723 83.6021 29.3723 83.9717 29.3723 84.7122C28.628 84.7638 28.2558 84.7914 27.5116 84.8543C26.7635 84.9172 26.3901 84.9511 25.6434 85.0253C24.8966 85.0995 24.5232 85.1397 23.7777 85.2252C23.051 85.3094 22.6877 85.3534 21.961 85.4477C21.2167 85.5445 20.8446 85.5961 20.1003 85.7042C20.1003 84.9637 20.1003 84.5941 20.1003 83.8536C19.3611 83.9617 18.9915 84.0182 18.2522 84.1377C18.2522 83.401 18.2522 83.0326 18.2522 82.2959C18.2522 81.5554 18.2522 81.1857 18.2522 80.4453C18.2522 79.7085 18.2522 79.3402 18.2522 78.6034C18.2522 77.8629 18.2522 77.4933 18.2522 76.7528C18.2522 76.0123 18.2522 75.6427 18.2522 74.9022C18.9902 74.7828 19.3598 74.7262 20.1003 74.6181C20.1003 73.8964 20.1003 73.5356 20.1003 72.814C20.8433 72.7059 21.2155 72.6543 21.961 72.5575C22.6877 72.4632 23.051 72.4179 23.7777 72.335C24.5232 72.2495 24.8966 72.2093 25.6434 72.1351C26.3901 72.0609 26.7635 72.027 27.5116 71.9641C28.2558 71.9012 28.628 71.8736 29.3723 71.822C29.3723 72.5437 29.3723 72.9045 29.3723 73.6261C30.1203 73.5746 30.4949 73.552 31.243 73.5117C31.243 74.2522 31.243 74.6218 31.243 75.3623ZM38.7171 73.342C38.7171 74.0825 38.7171 74.4521 38.7171 75.1926C38.7171 75.9331 38.7171 76.3027 38.7171 77.0432C38.7171 77.78 38.7171 78.1483 38.7171 78.8851C38.7171 79.6256 38.7171 79.9952 38.7171 80.7357C38.7171 81.4724 38.7171 81.8408 38.7171 82.5775C38.7171 83.318 38.7171 83.6876 38.7171 84.4281C37.9678 84.4218 37.5932 84.4218 36.8439 84.4281C36.0983 84.4331 35.725 84.4394 34.9794 84.4558C34.9794 83.7153 34.9794 83.3456 34.9794 82.6051C34.9794 81.8684 34.9794 81.5001 34.9794 80.7633C34.9794 80.0228 34.9794 79.6532 34.9794 78.9127C34.9794 78.176 34.9794 77.8076 34.9794 77.0709C34.9794 76.3304 34.9794 75.9608 34.9794 75.2203C34.9794 74.4798 34.9794 74.1102 34.9794 73.3697C34.9794 72.648 34.9794 72.2872 34.9794 71.5656C35.725 71.5492 36.0983 71.5429 36.8439 71.5379C37.5932 71.5329 37.9678 71.5329 38.7171 71.5379C38.7171 72.2595 38.7171 72.6204 38.7171 73.342ZM55.4217 74.6244C55.4217 75.3649 55.4217 75.7345 55.4217 76.475C55.4217 77.2155 55.4217 77.5851 55.4217 78.3256C55.4217 79.0623 55.4217 79.4307 55.4217 80.1674C55.4217 80.9079 55.4217 81.2775 55.4217 82.018C55.4217 82.7548 55.4217 83.1231 55.4217 83.8598C55.4217 84.6003 55.4217 84.97 55.4217 85.7105C54.6787 85.6023 54.3066 85.5508 53.561 85.4527C52.8205 85.3559 52.4496 85.3107 51.7066 85.2252C51.7066 84.4847 51.7066 84.1151 51.7066 83.3746C51.7066 82.6378 51.7066 82.2695 51.7066 81.5327C50.9611 81.4473 50.5877 81.407 49.8409 81.3328C49.8409 80.5923 49.8409 80.2227 49.8409 79.4822C49.0941 79.4081 48.7208 79.3741 47.9727 79.3112C47.9727 78.5745 47.9727 78.2062 47.9727 77.4694C47.2435 77.4078 46.8789 77.3802 46.1498 77.3299C46.1498 78.0666 46.1498 78.435 46.1498 79.1717C46.1498 79.9122 46.1498 80.2818 46.1498 81.0223C46.1498 81.759 46.1498 82.1274 46.1498 82.8641C46.1498 83.6046 46.1498 83.9743 46.1498 84.7147C45.4017 84.6632 45.0271 84.6406 44.279 84.6003C43.5335 84.5601 43.1614 84.5438 42.4158 84.5148C42.4158 83.7743 42.4158 83.4047 42.4158 82.6642C42.4158 81.9275 42.4158 81.5591 42.4158 80.8224C42.4158 80.0819 42.4158 79.7123 42.4158 78.9718C42.4158 78.2351 42.4158 77.8667 42.4158 77.13C42.4158 76.3895 42.4158 76.0199 42.4158 75.2794C42.4158 74.5389 42.4158 74.1692 42.4158 73.4287C42.4158 72.7071 42.4158 72.3463 42.4158 71.6247C43.1614 71.6536 43.5335 71.6699 44.279 71.7101C45.0283 71.7504 45.4017 71.773 46.1498 71.8245C46.1498 72.5462 46.1498 72.907 46.1498 73.6286C46.8789 73.6789 47.2435 73.7066 47.9727 73.7682C47.9727 74.5087 47.9727 74.8783 47.9727 75.6188C48.7208 75.6817 49.0941 75.7156 49.8409 75.7898C49.8409 76.5303 49.8409 76.8999 49.8409 77.6404C50.5877 77.7146 50.9611 77.7548 51.7066 77.8403C51.7066 77.0998 51.7066 76.7302 51.7066 75.9897C51.7066 75.2492 51.7066 74.8796 51.7066 74.1391C51.7066 73.4174 51.7066 73.0566 51.7066 72.335C52.4484 72.4205 52.8193 72.4657 53.561 72.5625C54.3053 72.6593 54.6774 72.7109 55.4217 72.8203C55.4217 73.5419 55.4217 73.9027 55.4217 74.6244ZM71.9088 80.0656C71.1821 79.8544 70.8175 79.7513 70.0883 79.5501C69.3629 79.3502 68.9996 79.2547 68.2717 79.0661C68.2717 78.3256 68.2717 77.956 68.2717 77.2155C67.54 77.0269 67.1741 76.9351 66.4399 76.7578C65.707 76.5806 65.3386 76.4951 64.6031 76.3291C63.8865 76.167 63.5269 76.089 62.8078 75.9381C62.8078 76.6786 62.8078 77.0483 62.8078 77.7888C62.8078 78.5293 62.8078 78.8989 62.8078 79.6394C63.5269 79.7902 63.8865 79.8682 64.6031 80.0304C65.3386 80.1963 65.7057 80.2818 66.4399 80.4591C67.1741 80.6363 67.54 80.7281 68.2717 80.9167C68.9996 81.104 69.3629 81.2008 70.0883 81.4007C70.0883 82.1375 70.0883 82.5058 70.0883 83.2425C70.8175 83.4424 71.1821 83.5455 71.9088 83.758C71.9088 84.4985 71.9088 84.8681 71.9088 85.6086C71.9088 86.3454 71.9088 86.7137 71.9088 87.4504C71.1821 87.2392 70.8175 87.1361 70.0883 86.935C70.0883 87.6755 70.0883 88.0451 70.0883 88.7856C69.3629 88.5857 68.9996 88.4902 68.2717 88.3016C67.54 88.113 67.1741 88.0212 66.4399 87.8439C65.7057 87.6667 65.3386 87.5812 64.6031 87.4152C63.8853 87.2531 63.5269 87.1751 62.8078 87.0242C62.0698 86.8696 61.7015 86.7954 60.9622 86.6521C60.9622 85.9116 60.9622 85.542 60.9622 84.8015C60.2268 84.6594 59.8584 84.5903 59.1217 84.4595C59.1217 83.7228 59.1217 83.3544 59.1217 82.6177C59.8584 82.7485 60.2268 82.8176 60.9622 82.9597C61.7015 83.103 62.0711 83.1772 62.8078 83.3318C62.8078 84.0685 62.8078 84.4369 62.8078 85.1736C63.5269 85.3245 63.8865 85.4024 64.6031 85.5646C65.3386 85.7306 65.7057 85.8161 66.4399 85.9933C67.1741 86.1706 67.54 86.2624 68.2717 86.451C68.2717 85.7142 68.2717 85.3459 68.2717 84.6091C68.2717 83.8686 68.2717 83.499 68.2717 82.7585C67.54 82.5699 67.1741 82.4782 66.4399 82.3009C65.707 82.1236 65.3386 82.0381 64.6031 81.8722C63.8865 81.71 63.5269 81.6321 62.8078 81.4812C62.0698 81.3266 61.7015 81.2524 60.9622 81.1091C60.9622 80.3723 60.9622 80.004 60.9622 79.2672C60.2268 79.1252 59.8584 79.056 59.1217 78.9253C59.1217 78.1848 59.1217 77.8152 59.1217 77.0747C59.1217 76.3342 59.1217 75.9646 59.1217 75.2241C59.8584 75.3548 60.2268 75.4239 60.9622 75.566C60.9622 74.8444 60.9622 74.4836 60.9622 73.7619C61.7015 73.9052 62.0711 73.9794 62.8078 74.134C63.5269 74.2849 63.8865 74.3629 64.6031 74.525C65.3386 74.691 65.7057 74.7765 66.4399 74.9537C67.1741 75.131 67.54 75.2228 68.2717 75.4114C68.9996 75.5987 69.3629 75.6955 70.0883 75.8954C70.0883 76.617 70.0883 76.9779 70.0883 77.6995C70.8175 77.8994 71.1821 78.0025 71.9088 78.215C71.9088 78.9542 71.9088 79.3251 71.9088 80.0656Z" fill="black"/>
</svg>
