<svg width="86" height="97" viewBox="0 0 86 97" fill="none" xmlns="http://www.w3.org/2000/svg">
<path d="M15.4809 30.8916H11.8168V67.6041H15.4809V30.8916Z" fill="black"/>
<path d="M19.145 23.65H15.4809V30.8917H19.145V23.65Z" fill="black"/>
<path d="M19.145 67.6041H15.4809V74.9833H19.145V67.6041Z" fill="black"/>
<path d="M19.145 19.9834V23.65H26.4733V19.9834H19.145Z" fill="black"/>
<path d="M41.0839 19.9834V23.65H48.5038V19.9834H41.0839Z" fill="black"/>
<path d="M26.4733 16.3167V19.9834H41.084V16.3167H26.4733Z" fill="black"/>
<path d="M52.1221 67.6041H55.832L55.832 30.8916H52.1221L52.1221 67.6041Z" fill="black"/>
<path d="M48.5038 74.9834H52.1221V67.6042H48.5038V74.9834Z" fill="black"/>
<path d="M48.5038 30.8916H52.1221V23.6499H48.5038V30.8916Z" fill="black"/>
<path d="M48.5038 78.6501V74.9834H41.0839V78.6501H48.5038Z" fill="black"/>
<path d="M26.4733 78.6501V74.9834H19.145V78.6501H26.4733Z" fill="black"/>
<path d="M41.0839 82.3167V78.65H26.4732V82.3167H41.0839Z" fill="black"/>
<path d="M37.4198 34.65V27.3167H33.7557V34.65H30.1832V38.225H41.0839V41.9833H44.748V38.225V34.65H37.4198Z" fill="black"/>
<path d="M30.1832 38.225H26.4733V60.225H30.1832V38.225Z" fill="black"/>
<path d="M37.4198 49.3167V52.9833H41.0839V60.225H30.1832V63.9375H33.7557V71.2708H37.4198V63.9375H44.748V49.3167H37.4198Z" fill="black"/>
<path d="M48.5038 30.8917V38.225H44.7481V41.9834H41.0839V38.225H33.7557V56.65H41.0839V52.9834H37.4198V49.3167H41.0839V45.6042H48.5038V60.225H44.7481V63.9375H41.0839V67.6042H37.4198V71.2709H33.7557V63.9375H30.1832V60.225H22.8091V38.225H26.4733V30.8917H30.1832V27.3167H37.4198V23.65H26.4733V27.3167H22.8091V30.8917H19.145V60.225H15.4809V67.6042H19.145V74.9833H26.4733V78.65H41.0839V74.9833H48.5038V67.6042H52.1221V30.8917H48.5038Z" fill="#FEEE00"/>
<path d="M48.5038 23.65H41.0839V30.8917H48.5038V23.65Z" fill="#FEEE00"/>
<path d="M30.1832 30.8916H26.4733V34.6499H30.1832V30.8916Z" fill="#E9BC00"/>
<path d="M41.084 63.9375H37.4199V67.6042H41.084V63.9375Z" fill="#E9BC00"/>
<path d="M55.8321 67.6042H52.1221V71.2709H55.8321V67.6042Z" fill="#E9BC00"/>
<path d="M26.4733 16.3168H22.8091V19.9834H26.4733V16.3168Z" fill="#E9BC00"/>
<path d="M41.084 23.65H37.4199V34.65H44.7481V38.225H48.5038V30.8917H41.084V23.65Z" fill="#E9BC00"/>
<path d="M33.7557 38.2251H30.1832V60.2251H41.0839V56.6501H33.7557V38.2251Z" fill="#E9BC00"/>
<path d="M41.0839 49.3166H44.748V60.225H48.5038V45.6041H41.0839V49.3166Z" fill="#E9BC00"/>
<path d="M44.7481 16.3167V12.65H30.1832V16.3167H41.0839V19.9834H48.5038V23.65H52.1221V16.3167H44.7481Z" fill="#E9BC00"/>
<path d="M55.8321 27.3167V23.65H52.1221V30.8917H55.8321V67.6042H59.4504V27.3167H55.8321Z" fill="#E9BC00"/>
<path d="M41.084 19.9834H26.4733V23.6501H41.084V19.9834Z" fill="white"/>
<path d="M19.145 30.8918H22.8091V27.3168H26.4733V23.6501H19.145V30.8918Z" fill="white"/>
<path d="M19.145 30.8917H15.4809V60.2251H19.145V30.8917Z" fill="white"/>
<path d="M33.7557 27.3168H30.1832V34.6501H33.7557V27.3168Z" fill="white"/>
<path d="M30.1832 34.65H26.4733V38.225H30.1832V34.65Z" fill="white"/>
<path d="M26.4733 38.225H22.8091V60.225H26.4733V38.225Z" fill="white"/>
</svg>
