<?xml version="1.0" encoding="utf-8"?>
<!-- Generator: Adobe Illustrator 23.0.3, SVG Export Plug-In . SVG Version: 6.00 Build 0)  -->
<svg version="1.1" id="Camada_1" xmlns="http://www.w3.org/2000/svg" xmlns:xlink="http://www.w3.org/1999/xlink" x="0px" y="0px"
	 viewBox="0 0 150 73" style="enable-background:new 0 0 150 73;" xml:space="preserve">
<style type="text/css">
	.st0{clip-path:url(#SVGID_2_);}
	.st1{fill:#FFFFFF;}
	.st2{fill:#FEEE00;}
	.st3{fill:#E9BC00;}
</style>
<g>
	<defs>
		<polygon id="SVGID_1_" points="-11.8,-10 156.2,-11 156.2,88 -11.8,89 		"/>
	</defs>
	<clipPath id="SVGID_2_">
		<use xlink:href="#SVGID_1_"  style="overflow:visible;"/>
	</clipPath>
	<g class="st0">
		<path class="st1" d="M76.4,34.1h2.3v-2.4v-2.4V27v-2.4h-2.3h-2.3h-2.3V27h2.3v2.4v2.4h2.3V34.1z"/>
		<path class="st1" d="M71.8,46.6h-2.3h-2.3h-2.3h-2.3h-2.3v2.3h-2.3v2.4v2.4V56v2.4v2.4h2.3v2.4h2.3h2.3h2.3h2.3h2.3v-2.4h2.3v-2.4
			h-2.3h-2.3v2.4h-2.3h-2.3h-2.3v-2.4V56v-2.4v-2.4v-2.4h2.3h2.3h2.3v2.4h2.3h2.3v-2.4h-2.3V46.6z"/>
		<path class="st1" d="M65,34.1h2.3h2.3h2.3h2.3v-2.4h-2.3h-2.3h-2.3v-2.4V27v-2.4v-2.4v-2.4h2.3h2.3h2.3v2.4h2.3h2.3v-2.4h-2.3
			v-2.3h-2.3h-2.3h-2.3h-2.3H65v2.3h-2.3v2.4v2.4V27v2.4v2.4H65V34.1z"/>
		<path class="st1" d="M88,34.1h2.3h2.3h2.3h2.3h2.3v-2.4h-2.3h-2.3h-2.3h-2.3H88v-2.4V27h2.3h2.3h2.3h2.3v-2.4h-2.3h-2.3h-2.3H88
			v-2.4v-2.4h2.3h2.3h2.3h2.3h2.3v-2.3h-2.3h-2.3h-2.3h-2.3H88h-2.3h-2.3v2.3v2.4v2.4V27v2.4v2.4v2.4h2.3H88z"/>
		<path class="st1" d="M129.4,34.1v-2.4v-2.4V27h2.3v2.4h2.3v2.4h2.3v2.4h2.3h2.3v-2.4h-2.3v-2.4h-2.3V27h-2.3v-2.4h2.3v-2.4h2.3
			v-2.4h2.3v-2.3h-2.3h-2.3v2.3h-2.3v2.4h-2.3v2.4h-2.3v-2.4v-2.4v-2.3H127h-2.3v2.3v2.4v2.4V27v2.4v2.4v2.4h2.3H129.4z"/>
		<path class="st1" d="M108.7,34.1h2.3h2.3h2.3h2.3h2.3v-2.4h-2.3h-2.3h-2.3h-2.3h-2.3v-2.4V27h2.3h2.3h2.3h2.3v-2.4h-2.3h-2.3h-2.3
			h-2.3v-2.4v-2.4h2.3h2.3h2.3h2.3h2.3v-2.3h-2.3h-2.3h-2.3h-2.3h-2.3h-2.3H104v2.3v2.4v2.4V27v2.4v2.4v2.4h2.3H108.7z"/>
		<path class="st1" d="M120.1,46.6v2.3v2.4v2.4h-2.3v-2.4h-2.3v-2.4h-2.3v-2.3h-2.3h-2.3v2.3v2.4v2.4V56v2.4v2.4v2.4h2.3h2.3v-2.4
			v-2.4V56v-2.4h2.3V56h2.3v2.4h2.3v2.4v2.4h2.3h2.3v-2.4v-2.4V56v-2.4v-2.4v-2.4v-2.3h-2.3H120.1z"/>
		<path class="st1" d="M143.1,46.6h-2.3h-2.3h-2.3h-2.3h-2.3v2.3h-2.3v2.4v2.4h2.3V56h2.3h2.3h2.3h2.3v2.4v2.4h-2.3h-2.3h-2.3v-2.4
			h-2.3h-2.3v2.4h2.3v2.4h2.3h2.3h2.3h2.3h2.3v-2.4h2.3v-2.4V56h-2.3v-2.4h-2.3h-2.3h-2.3h-2.3v-2.4v-2.4h2.3h2.3h2.3v2.4h2.3h2.3
			v-2.4h-2.3V46.6z"/>
		<path class="st1" d="M99.5,46.6v2.3v2.4v2.4V56v2.4v2.4v2.4h2.3h2.3v-2.4v-2.4V56v-2.4v-2.4v-2.4v-2.3h-2.3H99.5z"/>
		<path class="st1" d="M92.5,46.6h-2.3h-2.3h-2.3h-2.3h-2.3v2.3h-2.3v2.4v2.4V56v2.4v2.4h2.3v2.4h2.3h2.3h2.3h2.3h2.3v-2.4h2.3v-2.4
			V56v-2.4v-2.4v-2.4h-2.3L92.5,46.6L92.5,46.6z M90.2,51.3v2.4V56v2.4v2.4h-2.3h-2.3h-2.3v-2.4V56v-2.4v-2.4v-2.4h2.3h2.3h2.3V51.3
			z"/>
		<path d="M62.7,34.1H65v2.3h2.3h2.3h2.3h2.3h2.3h2.3H81h2.3v-2.3h0v2.3h2.3H88h2.3h2.3h2.3h2.3h2.3h2.3h2.3v-2.3h0v2.3h2.3h2.3h2.3
			h2.3h2.3h2.3h2.3h2.3h2.3v-2.3h0v2.3h2.3h2.3h2.3h2.3v-2.3h2.3v2.3h2.3h2.3h2.3h2.3v-2.3v-2.3v-2.4h-2.3V27h-2.3v-2.4h2.3v-2.4
			h2.3v-2.4v-2.4v-2.3h-2.3v-2.4h-2.3h-2.3h-2.3h-2.3v2.4h-2.3v-2.4h-2.3H127h-2.3h-2.3h-2.3h-2.3h-2.3h-2.3h-2.3h-2.3h-2.3H104
			h-2.3h-2.3h-2.3h-2.3h-2.3h-2.3H88h-2.3h-2.3H81v2.4h-2.3v-2.4h-2.3h-2.3h-2.3h-2.3h-2.3H65h-2.3v2.4h-2.3v2.3v2.4v2.4v2.4V27v2.4
			v2.4h2.3V34.1z M124.7,29.4V27v-2.4v-2.4v-2.4v-2.4v-2.3h2.3h2.3v2.3v2.4v2.4h2.3v-2.4h2.3v-2.4h2.3v-2.3h2.3h2.3v2.3h-2.3v2.4
			h-2.3v2.4h-2.3v2.4h2.3V27h2.3v2.4h2.3v2.4h-2.3h-2.3v-2.4h-2.3V27h-2.3v-2.4h-2.3V27v2.4v2.4H127h-2.3V29.4z M104,29.4V27v-2.4
			v-2.4v-2.4v-2.4v-2.3h2.3h2.3h2.3h2.3h2.3h2.3h2.3v2.3h-2.3h-2.3h-2.3h-2.3h-2.3v2.4v2.4h2.3h2.3h2.3h2.3v2.4h-2.3h-2.3h-2.3h-2.3
			V27v2.4h2.3h2.3h2.3h2.3h2.3v2.4h-2.3h-2.3h-2.3h-2.3h-2.3h-2.3H104V29.4z M83.4,29.4V27v-2.4v-2.4v-2.4v-2.4v-2.3h2.3H88h2.3h2.3
			h2.3h2.3h2.3v2.3h-2.3h-2.3h-2.3h-2.3H88v2.4v2.4h2.3h2.3h2.3h2.3v2.4h-2.3h-2.3h-2.3H88V27v2.4h2.3h2.3h2.3h2.3h2.3v2.4h-2.3
			h-2.3h-2.3h-2.3H88h-2.3h-2.3V29.4z M62.7,27v-2.4v-2.4v-2.4v-2.4H65v-2.3h2.3h2.3h2.3h2.3h2.3v2.3h2.3v2.4h-2.3h-2.3v-2.4h-2.3
			h-2.3h-2.3v2.4v2.4v2.4V27v2.4h2.3h2.3h2.3V27v-2.4h-2.3v-2.4h2.3h2.3h2.3v2.4V27v2.4v2.4h-2.3v-2.4h-2.3v2.4h-2.3h-2.3h-2.3H65
			v-2.4h-2.3V27z"/>
		<path d="M85.6,43.4h-2.3v2.4v2.4v2.4v2.4v2.4h2.3h2.3h2.3v-2.4v-2.4v-2.4v-2.4v-2.4h-2.3H85.6z"/>
		<path d="M147.7,41.1h-2.3v-2.4h-2.3h-2.3h-2.3h-2.3h-2.3h-2.3h-2.3v2.4h0H127v-2.4h-2.3h-2.3h-2.3h-2.3v2.4h-2.3v-2.4h-2.3h-2.3
			h-2.3h-2.3h-2.3h-2.3h-2.3h-2.3v2.4h-2.3v-2.4h-2.3h-2.3h-2.3h-2.3h-2.3h-2.3h-2.3v2.4h-2.3h-2.3v-2.4h-2.3h-2.3h-2.3h-2.3h-2.3
			h-2.3h-2.3v2.4h-2.3v2.3v2.4v2.4v2.4v2.4v2.4v2.4h2.3v2.3h2.3v2.3h2.3h2.3h2.3h2.3h2.3h2.3h2.3v-2.3h2.3v-2.3h0v2.3h2.3v2.3h2.3
			h2.3h2.3h2.3h2.3h2.3h2.3v-2.3h2.3h0v2.3h2.3h2.3h2.3h2.3v-2.3v2.3h2.3h2.3h2.3h2.3v-2.3h2.3v2.3h2.3h2.3h2.3h2.3v-2.3v-2.3h0v2.3
			h2.3v2.3h2.3h2.3h2.3h2.3h2.3h2.3h2.3v-2.3h2.3v-2.3v-2.4v-2.4v-2.4v-2.4v-2.4v-2.4h-2.3L147.7,41.1L147.7,41.1z M74.2,45.8h-2.3
			h-2.3v-2.4h-2.3h-2.3h-2.3v2.4v2.4v2.4v2.4v2.4h2.3h2.3h2.3v-2.4h2.3h2.3v2.4h-2.3v2.4h-2.3h-2.3h-2.3h-2.3h-2.3v-2.4h-2.3v-2.4
			v-2.4v-2.4v-2.4v-2.4h2.3v-2.3h2.3h2.3h2.3h2.3h2.3v2.3h2.3V45.8z M94.9,45.8v2.4v2.4v2.4v2.4h-2.3v2.4h-2.3h-2.3h-2.3h-2.3h-2.3
			v-2.4h-2.3v-2.4v-2.4v-2.4v-2.4v-2.4h2.3v-2.3h2.3h2.3h2.3h2.3h2.3v2.3h2.3L94.9,45.8L94.9,45.8z M104.1,43.4v2.4v2.4v2.4v2.4v2.4
			v2.4h-2.3h-2.3v-2.4v-2.4v-2.4v-2.4v-2.4v-2.4v-2.3h2.3h2.3V43.4z M124.7,43.4v2.4v2.4v2.4v2.4v2.4v2.4h-2.3h-2.3v-2.4v-2.4h-2.3
			v-2.4h-2.3v-2.4h-2.3v2.4v2.4v2.4v2.4h-2.3h-2.3v-2.4v-2.4v-2.4v-2.4v-2.4v-2.4v-2.3h2.3h2.3v2.3h2.3v2.4h2.3v2.4h2.3v-2.4v-2.4
			v-2.3h2.3h2.3V43.4z M145.4,45.8h-2.3h-2.3v-2.4h-2.3h-2.3h-2.3v2.4v2.4h2.3h2.3h2.3h2.3v2.4h2.3v2.4v2.4h-2.3v2.4h-2.3h-2.3h-2.3
			h-2.3h-2.3v-2.4h-2.3v-2.4h2.3h2.3v2.4h2.3h2.3h2.3v-2.4v-2.4h-2.3h-2.3h-2.3h-2.3v-2.4h-2.3v-2.4v-2.4h2.3v-2.3h2.3h2.3h2.3h2.3
			h2.3v2.3h2.3V45.8z"/>
		<path d="M3.7,20.9H0v36.7h3.7V20.9z"/>
		<path d="M7.3,13.6H3.7v7.2h3.7V13.6z"/>
		<path d="M7.3,57.6H3.7V65h3.7V57.6z"/>
		<path d="M7.3,10v3.7h7.3V10H7.3z"/>
		<path d="M29.3,10v3.7h7.4V10H29.3z"/>
		<path d="M14.7,6.3V10h14.6V6.3H14.7z"/>
		<path d="M40.3,57.6H44V20.9h-3.7V57.6z"/>
		<path d="M36.7,65h3.6v-7.4h-3.6V65z"/>
		<path d="M36.7,20.9h3.6v-7.2h-3.6V20.9z"/>
		<path d="M36.7,68.7V65h-7.4v3.7H36.7z"/>
		<path d="M14.7,68.7V65H7.3v3.7H14.7z"/>
		<path d="M29.3,72.3v-3.7H14.7v3.7H29.3z"/>
		<path d="M25.6,24.7v-7.3h-3.7v7.3h-3.6v3.6h10.9V32h3.7v-3.8v-3.6H25.6z"/>
		<path d="M18.4,28.2h-3.7v22h3.7V28.2z"/>
		<path d="M25.6,39.3V43h3.7v7.2H18.4v3.7h3.6v7.3h3.7v-7.3h7.3V39.3H25.6z"/>
		<path class="st2" d="M36.7,20.9v7.3h-3.8V32h-3.7v-3.8h-7.3v18.4h7.3V43h-3.7v-3.7h3.7v-3.7h7.4v14.6h-3.8v3.7h-3.7v3.7h-3.7v3.7
			h-3.7v-7.3h-3.6v-3.7H11v-22h3.7v-7.3h3.7v-3.6h7.2v-3.7H14.7v3.7H11v3.6H7.3v29.3H3.7v7.4h3.7V65h7.3v3.7h14.6V65h7.4v-7.4h3.6
			V20.9H36.7z"/>
		<path class="st2" d="M36.7,13.6h-7.4v7.2h7.4V13.6z"/>
		<path class="st3" d="M18.4,20.9h-3.7v3.8h3.7V20.9z"/>
		<path class="st3" d="M29.3,53.9h-3.7v3.7h3.7V53.9z"/>
		<path class="st3" d="M44,57.6h-3.7v3.7H44V57.6z"/>
		<path class="st3" d="M14.7,6.3H11V10h3.7V6.3z"/>
		<path class="st3" d="M29.3,13.6h-3.7v11h7.3v3.6h3.8v-7.3h-7.4V13.6z"/>
		<path class="st3" d="M21.9,28.2h-3.6v22h10.9v-3.6h-7.3V28.2z"/>
		<path class="st3" d="M29.3,39.3h3.7v10.9h3.8V35.6h-7.4V39.3z"/>
		<path class="st3" d="M32.9,6.3V2.6H18.4v3.7h10.9V10h7.4v3.7h3.6V6.3H32.9z"/>
		<path class="st3" d="M44,17.3v-3.7h-3.7v7.2H44v36.7h3.6V17.3H44z"/>
		<path class="st1" d="M29.3,10H14.7v3.7h14.6V10z"/>
		<path class="st1" d="M7.3,20.9H11v-3.6h3.7v-3.7H7.3V20.9z"/>
		<path class="st1" d="M7.3,20.9H3.7v29.3h3.7V20.9z"/>
		<path class="st1" d="M21.9,17.3h-3.6v7.3h3.6V17.3z"/>
		<path class="st1" d="M18.4,24.7h-3.7v3.6h3.7V24.7z"/>
		<path class="st1" d="M14.7,28.2H11v22h3.7V28.2z"/>
	</g>
</g>
</svg>
