<svg width="36" height="36" viewBox="0 0 36 36" fill="none" xmlns="http://www.w3.org/2000/svg">
<path d="M6 4H4V6H6V4Z" fill="black"/>
<path d="M2 8H0V10H2V8Z" fill="black"/>
<path d="M4 6H2V8H4V6Z" fill="black"/>
<path d="M12 14H10V16H12V14Z" fill="black"/>
<path d="M16 10H14V12H16V10Z" fill="black"/>
<path d="M14 12H12V14H14V12Z" fill="black"/>
<path d="M18 10H16V12H18V10Z" fill="black"/>
<path d="M18 8H16V10H18V8Z" fill="black"/>
<path d="M18 0H16V2H18V0Z" fill="black"/>
<path d="M20 6H18V8H20V6Z" fill="black"/>
<path d="M20 2H18V4H20V2Z" fill="black"/>
<path d="M20 10H18V12H20V10Z" fill="black"/>
<path d="M22 12H20V14H22V12Z" fill="black"/>
<path d="M24 14H22V16H24V14Z" fill="black"/>
<path d="M24 16H22V18H24V16Z" fill="black"/>
<path d="M24 18H22V20H24V18Z" fill="black"/>
<path d="M24 24H22V26H24V24Z" fill="black"/>
<path d="M22 26H20V28H22V26Z" fill="black"/>
<path d="M20 28H18V30H20V28Z" fill="black"/>
<path d="M18 28H16V30H18V28Z" fill="black"/>
<path d="M16 28H14V30H16V28Z" fill="black"/>
<path d="M12 16H10V18H12V16Z" fill="black"/>
<path d="M12 18H10V20H12V18Z" fill="black"/>
<path d="M14 18H12V20H14V18Z" fill="black"/>
<path d="M16 18H14V20H16V18Z" fill="black"/>
<path d="M20 18H18V20H20V18Z" fill="black"/>
<path d="M22 18H20V20H22V18Z" fill="black"/>
<path d="M24 20H22V22H24V20Z" fill="black"/>
<path d="M12 20H10V22H12V20Z" fill="black"/>
<path d="M24 22H22V24H24V22Z" fill="black"/>
<path d="M12 22H10V24H12V22Z" fill="black"/>
<path d="M12 24H10V26H12V24Z" fill="black"/>
<path d="M14 26H12V28H14V26Z" fill="black"/>
<path d="M18 12H16V14H18V12Z" fill="black"/>
<path d="M18 14H16V16H18V14Z" fill="black"/>
<path d="M18 16H16V18H18V16Z" fill="black"/>
<path d="M34 6H32V8H34V6Z" fill="black"/>
<path d="M2 10H0V12H2V10Z" fill="black"/>
<path d="M2 12H0V14H2V12Z" fill="black"/>
<path d="M2 14H0V16H2V14Z" fill="black"/>
<path d="M2 16H0V18H2V16Z" fill="black"/>
<path d="M2 18H0V20H2V18Z" fill="black"/>
<path d="M2 20H0V22H2V20Z" fill="black"/>
<path d="M2 22H0V24H2V22Z" fill="black"/>
<path d="M2 24H0V26H2V24Z" fill="black"/>
<path d="M2 26H0V28H2V26Z" fill="black"/>
<path d="M2 28H0V30H2V28Z" fill="black"/>
<path d="M2 30H0V32H2V30Z" fill="black"/>
<path d="M36 8H34V10H36V8Z" fill="black"/>
<path d="M36 10H34V12H36V10Z" fill="black"/>
<path d="M36 12H34V14H36V12Z" fill="black"/>
<path d="M36 14H34V16H36V14Z" fill="black"/>
<path d="M36 16H34V18H36V16Z" fill="black"/>
<path d="M36 18H34V20H36V18Z" fill="black"/>
<path d="M36 20H34V22H36V20Z" fill="black"/>
<path d="M36 22H34V24H36V22Z" fill="black"/>
<path d="M36 24H34V26H36V24Z" fill="black"/>
<path d="M36 26H34V28H36V26Z" fill="black"/>
<path d="M36 28H34V30H36V28Z" fill="black"/>
<path d="M36 30H34V32H36V30Z" fill="black"/>
<path d="M4 32H2V34H4V32Z" fill="black"/>
<path d="M8 4H6V6H8V4Z" fill="black"/>
<path d="M10 4H8V6H10V4Z" fill="black"/>
<path d="M12 4H10V6H12V4Z" fill="black"/>
<path d="M14 4H12V6H14V4Z" fill="black"/>
<path d="M16 4H14V6H16V4Z" fill="black"/>
<path d="M18 4H16V6H18V4Z" fill="black"/>
<path d="M20 4H18V6H20V4Z" fill="black"/>
<path d="M22 4H20V6H22V4Z" fill="black"/>
<path d="M24 4H22V6H24V4Z" fill="black"/>
<path d="M26 4H24V6H26V4Z" fill="black"/>
<path d="M28 4H26V6H28V4Z" fill="black"/>
<path d="M30 4H28V6H30V4Z" fill="black"/>
<path d="M32 4H30V6H32V4Z" fill="black"/>
<path d="M6 34H4V36H6V34Z" fill="black"/>
<path d="M8 34H6V36H8V34Z" fill="black"/>
<path d="M10 34H8V36H10V34Z" fill="black"/>
<path d="M12 34H10V36H12V34Z" fill="black"/>
<path d="M14 34H12V36H14V34Z" fill="black"/>
<path d="M16 34H14V36H16V34Z" fill="black"/>
<path d="M18 34H16V36H18V34Z" fill="black"/>
<path d="M20 34H18V36H20V34Z" fill="black"/>
<path d="M22 34H20V36H22V34Z" fill="black"/>
<path d="M24 34H22V36H24V34Z" fill="black"/>
<path d="M26 34H24V36H26V34Z" fill="black"/>
<path d="M28 34H26V36H28V34Z" fill="black"/>
<path d="M30 34H28V36H30V34Z" fill="black"/>
<path d="M32 34H30V36H32V34Z" fill="black"/>
<path d="M34 32H32V34H34V32Z" fill="black"/>
<path d="M24 32H22V34H24V32Z" fill="black"/>
<path d="M32 32H30V34H32V32Z" fill="black"/>
<path d="M34 30H32V32H34V30Z" fill="black"/>
<path d="M34 28H32V30H34V28Z" fill="black"/>
<path d="M34 26H32V28H34V26Z" fill="black"/>
<path d="M34 22H32V24H34V22Z" fill="black"/>
<path d="M34 18H32V20H34V18Z" fill="black"/>
<path d="M30 30H28V32H30V30Z" fill="black"/>
<path d="M32 28H30V30H32V28Z" fill="black"/>
<path d="M32 24H30V26H32V24Z" fill="black"/>
<path d="M28 32H26V34H28V32Z" fill="black"/>
</svg>
