<svg width="25" height="25" viewBox="0 0 25 25" fill="none" xmlns="http://www.w3.org/2000/svg">
<path d="M10.9375 0H9.375V1.5625H10.9375V0Z" fill="#777777" fill-opacity="0.72"/>
<path d="M12.5 0H10.9375V1.5625H12.5V0Z" fill="#777777" fill-opacity="0.72"/>
<path d="M10.9375 1.5625H9.375V3.125H10.9375V1.5625Z" fill="#777777" fill-opacity="0.72"/>
<path d="M12.5 1.5625H10.9375V3.125H12.5V1.5625Z" fill="#777777" fill-opacity="0.72"/>
<path d="M12.5 10.9375H10.9375V12.5H12.5V10.9375Z" fill="#777777" fill-opacity="0.72"/>
<path d="M10.9375 10.9375H9.375V12.5H10.9375V10.9375Z" fill="#777777" fill-opacity="0.72"/>
<path d="M12.5 14.0625H10.9375V15.625H12.5V14.0625Z" fill="#777777" fill-opacity="0.72"/>
<path d="M10.9375 14.0625H9.375V15.625H10.9375V14.0625Z" fill="#777777" fill-opacity="0.72"/>
<path d="M9.375 14.0625H7.8125V15.625H9.375V14.0625Z" fill="#777777" fill-opacity="0.72"/>
<path d="M12.5 15.625H10.9375V17.1875H12.5V15.625Z" fill="#777777" fill-opacity="0.72"/>
<path d="M10.9375 15.625H9.375V17.1875H10.9375V15.625Z" fill="#777777" fill-opacity="0.72"/>
<path d="M9.375 15.625H7.8125V17.1875H9.375V15.625Z" fill="#777777" fill-opacity="0.72"/>
<path d="M7.8125 15.625H6.25V17.1875H7.8125V15.625Z" fill="#777777" fill-opacity="0.72"/>
<path d="M6.25 15.625H4.6875V17.1875H6.25V15.625Z" fill="#777777" fill-opacity="0.72"/>
<path d="M12.5 17.1875H10.9375V18.75H12.5V17.1875Z" fill="#777777" fill-opacity="0.72"/>
<path d="M10.9375 17.1875H9.375V18.75H10.9375V17.1875Z" fill="#777777" fill-opacity="0.72"/>
<path d="M9.375 17.1875H7.8125V18.75H9.375V17.1875Z" fill="#777777" fill-opacity="0.72"/>
<path d="M7.8125 17.1875H6.25V18.75H7.8125V17.1875Z" fill="#777777" fill-opacity="0.72"/>
<path d="M6.25 17.1875H4.6875V18.75H6.25V17.1875Z" fill="#777777" fill-opacity="0.72"/>
<path d="M4.6875 17.1875H3.125V18.75H4.6875V17.1875Z" fill="#777777" fill-opacity="0.72"/>
<path d="M12.5 18.75H10.9375V20.3125H12.5V18.75Z" fill="#777777" fill-opacity="0.72"/>
<path d="M10.9375 18.75H9.375V20.3125H10.9375V18.75Z" fill="#777777" fill-opacity="0.72"/>
<path d="M9.375 18.75H7.8125V20.3125H9.375V18.75Z" fill="#777777" fill-opacity="0.72"/>
<path d="M7.8125 18.75H6.25V20.3125H7.8125V18.75Z" fill="#777777" fill-opacity="0.72"/>
<path d="M6.25 18.75H4.6875V20.3125H6.25V18.75Z" fill="#777777" fill-opacity="0.72"/>
<path d="M4.6875 18.75H3.125V20.3125H4.6875V18.75Z" fill="#777777" fill-opacity="0.72"/>
<path d="M12.5 20.3125H10.9375V21.875H12.5V20.3125Z" fill="#777777" fill-opacity="0.72"/>
<path d="M10.9375 20.3125H9.375V21.875H10.9375V20.3125Z" fill="#777777" fill-opacity="0.72"/>
<path d="M9.375 20.3125H7.8125V21.875H9.375V20.3125Z" fill="#777777" fill-opacity="0.72"/>
<path d="M7.8125 20.3125H6.25V21.875H7.8125V20.3125Z" fill="#777777" fill-opacity="0.72"/>
<path d="M6.25 20.3125H4.6875V21.875H6.25V20.3125Z" fill="#777777" fill-opacity="0.72"/>
<path d="M4.6875 20.3125H3.125V21.875H4.6875V20.3125Z" fill="#777777" fill-opacity="0.72"/>
<path d="M3.125 18.75H1.5625V20.3125H3.125V18.75Z" fill="#777777" fill-opacity="0.72"/>
<path d="M3.125 20.3125H1.5625V21.875H3.125V20.3125Z" fill="#777777" fill-opacity="0.72"/>
<path d="M12.5 21.875H10.9375V23.4375H12.5V21.875Z" fill="#777777" fill-opacity="0.72"/>
<path d="M10.9375 21.875H9.375V23.4375H10.9375V21.875Z" fill="#777777" fill-opacity="0.72"/>
<path d="M9.375 21.875H7.8125V23.4375H9.375V21.875Z" fill="#777777" fill-opacity="0.72"/>
<path d="M7.8125 21.875H6.25V23.4375H7.8125V21.875Z" fill="#777777" fill-opacity="0.72"/>
<path d="M6.25 21.875H4.6875V23.4375H6.25V21.875Z" fill="#777777" fill-opacity="0.72"/>
<path d="M4.6875 21.875H3.125V23.4375H4.6875V21.875Z" fill="#777777" fill-opacity="0.72"/>
<path d="M3.125 21.875H1.5625V23.4375H3.125V21.875Z" fill="#777777" fill-opacity="0.72"/>
<path d="M12.5 23.4375H10.9375V25H12.5V23.4375Z" fill="#777777" fill-opacity="0.72"/>
<path d="M10.9375 23.4375H9.375V25H10.9375V23.4375Z" fill="#777777" fill-opacity="0.72"/>
<path d="M9.375 23.4375H7.8125V25H9.375V23.4375Z" fill="#777777" fill-opacity="0.72"/>
<path d="M7.8125 23.4375H6.25V25H7.8125V23.4375Z" fill="#777777" fill-opacity="0.72"/>
<path d="M6.25 23.4375H4.6875V25H6.25V23.4375Z" fill="#777777" fill-opacity="0.72"/>
<path d="M4.6875 23.4375H3.125V25H4.6875V23.4375Z" fill="#777777" fill-opacity="0.72"/>
<path d="M3.125 23.4375H1.5625V25H3.125V23.4375Z" fill="#777777" fill-opacity="0.72"/>
<path d="M1.5625 21.875H0V23.4375H1.5625V21.875Z" fill="#777777" fill-opacity="0.72"/>
<path d="M1.5625 23.4375H0V25H1.5625V23.4375Z" fill="#777777" fill-opacity="0.72"/>
<path d="M9.375 9.375H7.8125V10.9375H9.375V9.375Z" fill="#777777" fill-opacity="0.72"/>
<path d="M7.8125 6.25H6.25V7.8125H7.8125V6.25Z" fill="#777777" fill-opacity="0.72"/>
<path d="M7.8125 7.8125H6.25V9.375H7.8125V7.8125Z" fill="#777777" fill-opacity="0.72"/>
<path d="M7.8125 4.6875H6.25V6.25H7.8125V4.6875Z" fill="#777777" fill-opacity="0.72"/>
<path d="M7.8125 3.125H6.25V4.6875H7.8125V3.125Z" fill="#777777" fill-opacity="0.72"/>
<path d="M9.375 1.5625H7.8125V3.125H9.375V1.5625Z" fill="#777777" fill-opacity="0.72"/>
<path d="M10.9375 3.125H9.375V4.6875H10.9375V3.125Z" fill="#777777" fill-opacity="0.72"/>
<path d="M12.5 3.125H10.9375V4.6875H12.5V3.125Z" fill="#777777" fill-opacity="0.72"/>
<path d="M9.375 3.125H7.8125V4.6875H9.375V3.125Z" fill="#777777" fill-opacity="0.72"/>
<path d="M10.9375 4.6875H9.375V6.25H10.9375V4.6875Z" fill="#777777" fill-opacity="0.72"/>
<path d="M12.5 4.6875H10.9375V6.25H12.5V4.6875Z" fill="#777777" fill-opacity="0.72"/>
<path d="M9.375 4.6875H7.8125V6.25H9.375V4.6875Z" fill="#777777" fill-opacity="0.72"/>
<path d="M10.9375 6.25H9.375V7.8125H10.9375V6.25Z" fill="#777777" fill-opacity="0.72"/>
<path d="M12.5 6.25H10.9375V7.8125H12.5V6.25Z" fill="#777777" fill-opacity="0.72"/>
<path d="M9.375 6.25H7.8125V7.8125H9.375V6.25Z" fill="#777777" fill-opacity="0.72"/>
<path d="M10.9375 7.8125H9.375V9.375H10.9375V7.8125Z" fill="#777777" fill-opacity="0.72"/>
<path d="M12.5 7.8125H10.9375V9.375H12.5V7.8125Z" fill="#777777" fill-opacity="0.72"/>
<path d="M10.9375 9.375H9.375V10.9375H10.9375V9.375Z" fill="#777777" fill-opacity="0.72"/>
<path d="M12.5 9.375H10.9375V10.9375H12.5V9.375Z" fill="#777777" fill-opacity="0.72"/>
<path d="M9.375 7.8125H7.8125V9.375H9.375V7.8125Z" fill="#777777" fill-opacity="0.72"/>
<path d="M14.0625 1.5625L15.625 1.5625L15.625 0L14.0625 0L14.0625 1.5625Z" fill="#777777" fill-opacity="0.72"/>
<path d="M12.5 1.5625L14.0625 1.5625L14.0625 0L12.5 0L12.5 1.5625Z" fill="#777777" fill-opacity="0.72"/>
<path d="M14.0625 3.125L15.625 3.125L15.625 1.5625L14.0625 1.5625L14.0625 3.125Z" fill="#777777" fill-opacity="0.72"/>
<path d="M12.5 3.125L14.0625 3.125L14.0625 1.5625L12.5 1.5625L12.5 3.125Z" fill="#777777" fill-opacity="0.72"/>
<path d="M12.5 12.5L14.0625 12.5L14.0625 10.9375L12.5 10.9375L12.5 12.5Z" fill="#777777" fill-opacity="0.72"/>
<path d="M14.0625 12.5L15.625 12.5L15.625 10.9375L14.0625 10.9375L14.0625 12.5Z" fill="#777777" fill-opacity="0.72"/>
<path d="M12.5 15.625L14.0625 15.625L14.0625 14.0625L12.5 14.0625L12.5 15.625Z" fill="#777777" fill-opacity="0.72"/>
<path d="M14.0625 15.625L15.625 15.625L15.625 14.0625L14.0625 14.0625L14.0625 15.625Z" fill="#777777" fill-opacity="0.72"/>
<path d="M15.625 15.625L17.1875 15.625L17.1875 14.0625L15.625 14.0625L15.625 15.625Z" fill="#777777" fill-opacity="0.72"/>
<path d="M12.5 17.1875L14.0625 17.1875L14.0625 15.625L12.5 15.625L12.5 17.1875Z" fill="#777777" fill-opacity="0.72"/>
<path d="M14.0625 17.1875L15.625 17.1875L15.625 15.625L14.0625 15.625L14.0625 17.1875Z" fill="#777777" fill-opacity="0.72"/>
<path d="M15.625 17.1875L17.1875 17.1875L17.1875 15.625L15.625 15.625L15.625 17.1875Z" fill="#777777" fill-opacity="0.72"/>
<path d="M17.1875 17.1875L18.75 17.1875L18.75 15.625L17.1875 15.625L17.1875 17.1875Z" fill="#777777" fill-opacity="0.72"/>
<path d="M18.75 17.1875L20.3125 17.1875L20.3125 15.625L18.75 15.625L18.75 17.1875Z" fill="#777777" fill-opacity="0.72"/>
<path d="M12.5 18.75L14.0625 18.75L14.0625 17.1875L12.5 17.1875L12.5 18.75Z" fill="#777777" fill-opacity="0.72"/>
<path d="M14.0625 18.75L15.625 18.75L15.625 17.1875L14.0625 17.1875L14.0625 18.75Z" fill="#777777" fill-opacity="0.72"/>
<path d="M15.625 18.75L17.1875 18.75L17.1875 17.1875L15.625 17.1875L15.625 18.75Z" fill="#777777" fill-opacity="0.72"/>
<path d="M17.1875 18.75L18.75 18.75L18.75 17.1875L17.1875 17.1875L17.1875 18.75Z" fill="#777777" fill-opacity="0.72"/>
<path d="M18.75 18.75L20.3125 18.75L20.3125 17.1875L18.75 17.1875L18.75 18.75Z" fill="#777777" fill-opacity="0.72"/>
<path d="M20.3125 18.75L21.875 18.75L21.875 17.1875L20.3125 17.1875L20.3125 18.75Z" fill="#777777" fill-opacity="0.72"/>
<path d="M12.5 20.3125L14.0625 20.3125L14.0625 18.75L12.5 18.75L12.5 20.3125Z" fill="#777777" fill-opacity="0.72"/>
<path d="M14.0625 20.3125L15.625 20.3125L15.625 18.75L14.0625 18.75L14.0625 20.3125Z" fill="#777777" fill-opacity="0.72"/>
<path d="M15.625 20.3125L17.1875 20.3125L17.1875 18.75L15.625 18.75L15.625 20.3125Z" fill="#777777" fill-opacity="0.72"/>
<path d="M17.1875 20.3125L18.75 20.3125L18.75 18.75L17.1875 18.75L17.1875 20.3125Z" fill="#777777" fill-opacity="0.72"/>
<path d="M18.75 20.3125L20.3125 20.3125L20.3125 18.75L18.75 18.75L18.75 20.3125Z" fill="#777777" fill-opacity="0.72"/>
<path d="M20.3125 20.3125L21.875 20.3125L21.875 18.75L20.3125 18.75L20.3125 20.3125Z" fill="#777777" fill-opacity="0.72"/>
<path d="M12.5 21.875L14.0625 21.875L14.0625 20.3125L12.5 20.3125L12.5 21.875Z" fill="#777777" fill-opacity="0.72"/>
<path d="M14.0625 21.875L15.625 21.875L15.625 20.3125L14.0625 20.3125L14.0625 21.875Z" fill="#777777" fill-opacity="0.72"/>
<path d="M15.625 21.875L17.1875 21.875L17.1875 20.3125L15.625 20.3125L15.625 21.875Z" fill="#777777" fill-opacity="0.72"/>
<path d="M17.1875 21.875L18.75 21.875L18.75 20.3125L17.1875 20.3125L17.1875 21.875Z" fill="#777777" fill-opacity="0.72"/>
<path d="M18.75 21.875L20.3125 21.875L20.3125 20.3125L18.75 20.3125L18.75 21.875Z" fill="#777777" fill-opacity="0.72"/>
<path d="M20.3125 21.875L21.875 21.875L21.875 20.3125L20.3125 20.3125L20.3125 21.875Z" fill="#777777" fill-opacity="0.72"/>
<path d="M21.875 20.3125L23.4375 20.3125L23.4375 18.75L21.875 18.75L21.875 20.3125Z" fill="#777777" fill-opacity="0.72"/>
<path d="M21.875 21.875L23.4375 21.875L23.4375 20.3125L21.875 20.3125L21.875 21.875Z" fill="#777777" fill-opacity="0.72"/>
<path d="M12.5 23.4375L14.0625 23.4375L14.0625 21.875L12.5 21.875L12.5 23.4375Z" fill="#777777" fill-opacity="0.72"/>
<path d="M14.0625 23.4375L15.625 23.4375L15.625 21.875L14.0625 21.875L14.0625 23.4375Z" fill="#777777" fill-opacity="0.72"/>
<path d="M15.625 23.4375L17.1875 23.4375L17.1875 21.875L15.625 21.875L15.625 23.4375Z" fill="#777777" fill-opacity="0.72"/>
<path d="M17.1875 23.4375L18.75 23.4375L18.75 21.875L17.1875 21.875L17.1875 23.4375Z" fill="#777777" fill-opacity="0.72"/>
<path d="M18.75 23.4375L20.3125 23.4375L20.3125 21.875L18.75 21.875L18.75 23.4375Z" fill="#777777" fill-opacity="0.72"/>
<path d="M20.3125 23.4375L21.875 23.4375L21.875 21.875L20.3125 21.875L20.3125 23.4375Z" fill="#777777" fill-opacity="0.72"/>
<path d="M21.875 23.4375L23.4375 23.4375L23.4375 21.875L21.875 21.875L21.875 23.4375Z" fill="#777777" fill-opacity="0.72"/>
<path d="M12.5 25L14.0625 25L14.0625 23.4375L12.5 23.4375L12.5 25Z" fill="#777777" fill-opacity="0.72"/>
<path d="M14.0625 25L15.625 25L15.625 23.4375L14.0625 23.4375L14.0625 25Z" fill="#777777" fill-opacity="0.72"/>
<path d="M15.625 25L17.1875 25L17.1875 23.4375L15.625 23.4375L15.625 25Z" fill="#777777" fill-opacity="0.72"/>
<path d="M17.1875 25L18.75 25L18.75 23.4375L17.1875 23.4375L17.1875 25Z" fill="#777777" fill-opacity="0.72"/>
<path d="M18.75 25L20.3125 25L20.3125 23.4375L18.75 23.4375L18.75 25Z" fill="#777777" fill-opacity="0.72"/>
<path d="M20.3125 25L21.875 25L21.875 23.4375L20.3125 23.4375L20.3125 25Z" fill="#777777" fill-opacity="0.72"/>
<path d="M21.875 25L23.4375 25L23.4375 23.4375L21.875 23.4375L21.875 25Z" fill="#777777" fill-opacity="0.72"/>
<path d="M23.4375 23.4375L25 23.4375L25 21.875L23.4375 21.875L23.4375 23.4375Z" fill="#777777" fill-opacity="0.72"/>
<path d="M23.4375 25L25 25L25 23.4375L23.4375 23.4375L23.4375 25Z" fill="#777777" fill-opacity="0.72"/>
<path d="M15.625 10.9375L17.1875 10.9375L17.1875 9.375L15.625 9.375L15.625 10.9375Z" fill="#777777" fill-opacity="0.72"/>
<path d="M17.1875 7.8125L18.75 7.8125L18.75 6.25L17.1875 6.25L17.1875 7.8125Z" fill="#777777" fill-opacity="0.72"/>
<path d="M17.1875 9.375L18.75 9.375L18.75 7.8125L17.1875 7.8125L17.1875 9.375Z" fill="#777777" fill-opacity="0.72"/>
<path d="M17.1875 6.25L18.75 6.25L18.75 4.6875L17.1875 4.6875L17.1875 6.25Z" fill="#777777" fill-opacity="0.72"/>
<path d="M17.1875 4.6875L18.75 4.6875L18.75 3.125L17.1875 3.125L17.1875 4.6875Z" fill="#777777" fill-opacity="0.72"/>
<path d="M15.625 3.125L17.1875 3.125L17.1875 1.5625L15.625 1.5625L15.625 3.125Z" fill="#777777" fill-opacity="0.72"/>
<path d="M14.0625 4.6875L15.625 4.6875L15.625 3.125L14.0625 3.125L14.0625 4.6875Z" fill="#777777" fill-opacity="0.72"/>
<path d="M12.5 4.6875L14.0625 4.6875L14.0625 3.125L12.5 3.125L12.5 4.6875Z" fill="#777777" fill-opacity="0.72"/>
<path d="M15.625 4.6875L17.1875 4.6875L17.1875 3.125L15.625 3.125L15.625 4.6875Z" fill="#777777" fill-opacity="0.72"/>
<path d="M14.0625 6.25L15.625 6.25L15.625 4.6875L14.0625 4.6875L14.0625 6.25Z" fill="#777777" fill-opacity="0.72"/>
<path d="M12.5 6.25L14.0625 6.25L14.0625 4.6875L12.5 4.6875L12.5 6.25Z" fill="#777777" fill-opacity="0.72"/>
<path d="M15.625 6.25L17.1875 6.25L17.1875 4.6875L15.625 4.6875L15.625 6.25Z" fill="#777777" fill-opacity="0.72"/>
<path d="M14.0625 7.8125L15.625 7.8125L15.625 6.25L14.0625 6.25L14.0625 7.8125Z" fill="#777777" fill-opacity="0.72"/>
<path d="M12.5 7.8125L14.0625 7.8125L14.0625 6.25L12.5 6.25L12.5 7.8125Z" fill="#777777" fill-opacity="0.72"/>
<path d="M15.625 7.8125L17.1875 7.8125L17.1875 6.25L15.625 6.25L15.625 7.8125Z" fill="#777777" fill-opacity="0.72"/>
<path d="M14.0625 9.375L15.625 9.375L15.625 7.8125L14.0625 7.8125L14.0625 9.375Z" fill="#777777" fill-opacity="0.72"/>
<path d="M12.5 9.375L14.0625 9.375L14.0625 7.8125L12.5 7.8125L12.5 9.375Z" fill="#777777" fill-opacity="0.72"/>
<path d="M14.0625 10.9375L15.625 10.9375L15.625 9.375L14.0625 9.375L14.0625 10.9375Z" fill="#777777" fill-opacity="0.72"/>
<path d="M12.5 10.9375L14.0625 10.9375L14.0625 9.375L12.5 9.375L12.5 10.9375Z" fill="#777777" fill-opacity="0.72"/>
<path d="M15.625 9.375L17.1875 9.375L17.1875 7.8125L15.625 7.8125L15.625 9.375Z" fill="#777777" fill-opacity="0.72"/>
</svg>
