<svg width="36" height="42" viewBox="0 0 36 42" fill="none" xmlns="http://www.w3.org/2000/svg">
<path d="M2.57143 2.57141H0V5.14284H2.57143V2.57141Z" fill="black"/>
<path d="M2.57143 5.14282H0V7.71425H2.57143V5.14282Z" fill="black"/>
<path d="M2.57143 7.71423H0V10.2857H2.57143V7.71423Z" fill="black"/>
<path d="M2.57143 12.8572H0V15.4286H2.57143V12.8572Z" fill="black"/>
<path d="M2.57143 10.2858H0V12.8572H2.57143V10.2858Z" fill="black"/>
<path d="M2.57143 15.4286H0V18H2.57143V15.4286Z" fill="black"/>
<path d="M2.57143 18H0V20.5714H2.57143V18Z" fill="black"/>
<path d="M2.57143 23.1428H0V25.7143H2.57143V23.1428Z" fill="black"/>
<path d="M2.57143 20.5714H0V23.1428H2.57143V20.5714Z" fill="black"/>
<path d="M2.57143 25.7142H0V28.2857H2.57143V25.7142Z" fill="black"/>
<path d="M2.57143 28.2858H0V30.8572H2.57143V28.2858Z" fill="black"/>
<path d="M2.57143 33.4286H0V36H2.57143V33.4286Z" fill="black"/>
<path d="M2.57143 30.8572H0V33.4286H2.57143V30.8572Z" fill="black"/>
<path d="M7.71425 7.71423H5.14282V10.2857H7.71425V7.71423Z" fill="black"/>
<path d="M7.71425 12.8572H5.14282V15.4286H7.71425V12.8572Z" fill="black"/>
<path d="M7.71425 10.2858H5.14282V12.8572H7.71425V10.2858Z" fill="black"/>
<path d="M7.71425 15.4286H5.14282V18H7.71425V15.4286Z" fill="black"/>
<path d="M7.71425 18H5.14282V20.5714H7.71425V18Z" fill="black"/>
<path d="M7.71425 23.1428H5.14282V25.7143H7.71425V23.1428Z" fill="black"/>
<path d="M7.71425 20.5714H5.14282V23.1428H7.71425V20.5714Z" fill="black"/>
<path d="M7.71425 25.7142H5.14282V28.2857H7.71425V25.7142Z" fill="black"/>
<path d="M7.71425 28.2858H5.14282V30.8572H7.71425V28.2858Z" fill="black"/>
<path d="M7.71425 30.8572H5.14282V33.4286H7.71425V30.8572Z" fill="black"/>
<path d="M2.57143 36H0V38.5714H2.57143V36Z" fill="black"/>
<path d="M36 2.57141H33.4286V5.14284H36V2.57141Z" fill="black"/>
<path d="M36 5.14282H33.4286V7.71425H36V5.14282Z" fill="black"/>
<path d="M36 7.71423H33.4286V10.2857H36V7.71423Z" fill="black"/>
<path d="M36 12.8572H33.4286V15.4286H36V12.8572Z" fill="black"/>
<path d="M36 10.2858H33.4286V12.8572H36V10.2858Z" fill="black"/>
<path d="M36 15.4286H33.4286V18H36V15.4286Z" fill="black"/>
<path d="M36 18H33.4286V20.5714H36V18Z" fill="black"/>
<path d="M36 23.1428H33.4286V25.7143H36V23.1428Z" fill="black"/>
<path d="M36 20.5714H33.4286V23.1428H36V20.5714Z" fill="black"/>
<path d="M36 25.7142H33.4286V28.2857H36V25.7142Z" fill="black"/>
<path d="M36 28.2858H33.4286V30.8572H36V28.2858Z" fill="black"/>
<path d="M36 33.4286H33.4286V36H36V33.4286Z" fill="black"/>
<path d="M36 30.8572H33.4286V33.4286H36V30.8572Z" fill="black"/>
<path d="M30.8572 7.71423H28.2858V10.2857H30.8572V7.71423Z" fill="black"/>
<path d="M30.8572 12.8572H28.2858V15.4286H30.8572V12.8572Z" fill="black"/>
<path d="M30.8572 10.2858H28.2858V12.8572H30.8572V10.2858Z" fill="black"/>
<path d="M30.8572 15.4286H28.2858V18H30.8572V15.4286Z" fill="black"/>
<path d="M30.8572 18H28.2858V20.5714H30.8572V18Z" fill="black"/>
<path d="M30.8572 23.1428H28.2858V25.7143H30.8572V23.1428Z" fill="black"/>
<path d="M30.8572 20.5714H28.2858V23.1428H30.8572V20.5714Z" fill="black"/>
<path d="M30.8572 25.7142H28.2858V28.2857H30.8572V25.7142Z" fill="black"/>
<path d="M30.8572 28.2858H28.2858V30.8572H30.8572V28.2858Z" fill="black"/>
<path d="M30.8572 30.8572H28.2858V33.4286H30.8572V30.8572Z" fill="black"/>
<path d="M36 36H33.4286V38.5714H36V36Z" fill="black"/>
<path d="M15.4286 41.1428V38.5714H12.8572V41.1428H15.4286Z" fill="black"/>
<path d="M18 41.1428V38.5714H15.4286V41.1428H18Z" fill="black"/>
<path d="M12.8572 41.1428V38.5714H10.2857V41.1428H12.8572Z" fill="black"/>
<path d="M23.1428 41.1428V38.5714H20.5714V41.1428H23.1428Z" fill="black"/>
<path d="M25.7142 41.1428V38.5714H23.1428V41.1428H25.7142Z" fill="black"/>
<path d="M20.5714 41.1428V38.5714H18V41.1428H20.5714Z" fill="black"/>
<path d="M30.8572 41.1428V38.5714H28.2857V41.1428H30.8572Z" fill="black"/>
<path d="M33.4286 41.1428V38.5714H30.8572V41.1428H33.4286Z" fill="black"/>
<path d="M36 41.1428V38.5714H33.4286V41.1428H36Z" fill="black"/>
<path d="M28.2858 41.1428V38.5714H25.7143V41.1428H28.2858Z" fill="black"/>
<path d="M10.2858 41.1428V38.5714H7.71434V41.1428H10.2858Z" fill="black"/>
<path d="M5.14282 41.1428L5.14282 38.5714H2.57139L2.57139 41.1428H5.14282Z" fill="black"/>
<path d="M7.71423 41.1428L7.71423 38.5714H5.1428V41.1428H7.71423Z" fill="black"/>
<path d="M15.4286 36V33.4286H12.8572V36H15.4286Z" fill="black"/>
<path d="M18 36V33.4286H15.4286V36H18Z" fill="black"/>
<path d="M12.8572 36V33.4286H10.2857V36H12.8572Z" fill="black"/>
<path d="M23.1428 36V33.4286H20.5714V36H23.1428Z" fill="black"/>
<path d="M25.7142 36V33.4286H23.1428V36H25.7142Z" fill="black"/>
<path d="M20.5714 36V33.4286H18V36H20.5714Z" fill="black"/>
<path d="M30.8572 36V33.4286H28.2857V36H30.8572Z" fill="black"/>
<path d="M28.2858 36V33.4286H25.7143V36H28.2858Z" fill="black"/>
<path d="M10.2858 36V33.4286H7.71434V36H10.2858Z" fill="black"/>
<path d="M7.71423 36L7.71423 33.4286H5.1428V36H7.71423Z" fill="black"/>
<path d="M2.57141 41.1428L2.57141 38.5714H-1.74046e-05L-1.74046e-05 41.1428H2.57141Z" fill="black"/>
<path d="M15.4286 2.57143V0L12.8572 0V2.57143L15.4286 2.57143Z" fill="black"/>
<path d="M18 2.57143V0L15.4286 0V2.57143L18 2.57143Z" fill="black"/>
<path d="M12.8572 2.57143V0L10.2857 0V2.57143L12.8572 2.57143Z" fill="black"/>
<path d="M23.1428 2.57143V0L20.5714 0V2.57143L23.1428 2.57143Z" fill="black"/>
<path d="M25.7142 2.57143V0L23.1428 0V2.57143L25.7142 2.57143Z" fill="black"/>
<path d="M20.5714 2.57143V0L18 0V2.57143L20.5714 2.57143Z" fill="black"/>
<path d="M30.8572 2.57143V0L28.2857 0V2.57143L30.8572 2.57143Z" fill="black"/>
<path d="M33.4286 2.57143V0L30.8572 0V2.57143L33.4286 2.57143Z" fill="black"/>
<path d="M36 2.57143V0L33.4286 0V2.57143L36 2.57143Z" fill="black"/>
<path d="M28.2858 2.57143V0L25.7143 0V2.57143L28.2858 2.57143Z" fill="black"/>
<path d="M10.2858 2.57143V0L7.71434 0V2.57143L10.2858 2.57143Z" fill="black"/>
<path d="M5.14282 2.57143L5.14282 0L2.57139 0L2.57139 2.57143L5.14282 2.57143Z" fill="black"/>
<path d="M7.71423 2.57143L7.71423 0L5.1428 0V2.57143L7.71423 2.57143Z" fill="black"/>
<path d="M15.4286 7.71425V5.14282L12.8572 5.14282V7.71425H15.4286Z" fill="black"/>
<path d="M18 7.71425V5.14282L15.4286 5.14282V7.71425H18Z" fill="black"/>
<path d="M12.8572 7.71425V5.14282L10.2857 5.14282V7.71425H12.8572Z" fill="black"/>
<path d="M23.1428 7.71425V5.14282L20.5714 5.14282V7.71425H23.1428Z" fill="black"/>
<path d="M25.7142 7.71425V5.14282L23.1428 5.14282V7.71425H25.7142Z" fill="black"/>
<path d="M20.5714 7.71425V5.14282L18 5.14282V7.71425H20.5714Z" fill="black"/>
<path d="M30.8572 7.71425V5.14282L28.2857 5.14282V7.71425H30.8572Z" fill="black"/>
<path d="M28.2858 7.71425V5.14282L25.7143 5.14282V7.71425H28.2858Z" fill="black"/>
<path d="M10.2858 7.71425V5.14282L7.71434 5.14282V7.71425H10.2858Z" fill="black"/>
<path d="M7.71423 7.71425L7.71423 5.14282L5.1428 5.14282V7.71425H7.71423Z" fill="black"/>
<path d="M2.57141 2.57143L2.57141 0L-1.74046e-05 0L-1.74046e-05 2.57143L2.57141 2.57143Z" fill="black"/>
<path d="M15.4286 30.8572H12.8572V33.4286H15.4286V30.8572Z" fill="black"/>
<path d="M25.7143 30.8572H23.1428V33.4286H25.7143V30.8572Z" fill="black"/>
<path d="M28.2857 30.8572H25.7142V33.4286H28.2857V30.8572Z" fill="black"/>
<path d="M28.2857 28.2858H25.7142V30.8572H28.2857V28.2858Z" fill="black"/>
<path d="M28.2857 25.7142H25.7142V28.2857H28.2857V25.7142Z" fill="black"/>
<path d="M28.2857 23.1428H25.7142V25.7143H28.2857V23.1428Z" fill="black"/>
<path d="M28.2857 18H25.7142V20.5714H28.2857V18Z" fill="black"/>
<path d="M28.2857 12.8572H25.7142V15.4286H28.2857V12.8572Z" fill="black"/>
<path d="M23.1428 28.2858H20.5714V30.8572H23.1428V28.2858Z" fill="black"/>
<path d="M25.7143 25.7142H23.1428V28.2857H25.7143V25.7142Z" fill="black"/>
<path d="M25.7143 20.5714H23.1428V23.1428H25.7143V20.5714Z" fill="black"/>
<path d="M20.5714 30.8572H18V33.4286H20.5714V30.8572Z" fill="black"/>
<path d="M12.8572 28.2858H10.2858V30.8572H12.8572V28.2858Z" fill="black"/>
<path d="M23.1428 28.2858H20.5714V30.8572H23.1428V28.2858Z" fill="black"/>
<path d="M25.7143 28.2858H23.1428V30.8572H25.7143V28.2858Z" fill="black"/>
<path d="M25.7143 25.7142H23.1428V28.2857H25.7143V25.7142Z" fill="black"/>
<path d="M25.7143 23.1428H23.1428V25.7143H25.7143V23.1428Z" fill="black"/>
<path d="M25.7143 20.5714H23.1428V23.1428H25.7143V20.5714Z" fill="black"/>
<path d="M25.7143 15.4286H23.1428V18H25.7143V15.4286Z" fill="black"/>
<path d="M25.7143 10.2858H23.1428V12.8572H25.7143V10.2858Z" fill="black"/>
<path d="M20.5714 25.7142H18V28.2857H20.5714V25.7142Z" fill="black"/>
<path d="M23.1428 23.1428H20.5714V25.7143H23.1428V23.1428Z" fill="black"/>
<path d="M23.1428 18H20.5714V20.5714H23.1428V18Z" fill="black"/>
<path d="M18 28.2858H15.4286V30.8572H18V28.2858Z" fill="black"/>
<path d="M12.8572 28.2858H10.2858V30.8572H12.8572V28.2858Z" fill="black"/>
<path d="M23.1428 28.2858H20.5714V30.8572H23.1428V28.2858Z" fill="black"/>
<path d="M25.7143 28.2858H23.1428V30.8572H25.7143V28.2858Z" fill="black"/>
<path d="M25.7143 25.7142H23.1428V28.2857H25.7143V25.7142Z" fill="black"/>
<path d="M25.7143 23.1428H23.1428V25.7143H25.7143V23.1428Z" fill="black"/>
<path d="M25.7143 20.5714H23.1428V23.1428H25.7143V20.5714Z" fill="black"/>
<path d="M25.7143 15.4286H23.1428V18H25.7143V15.4286Z" fill="black"/>
<path d="M25.7143 10.2858H23.1428V12.8572H25.7143V10.2858Z" fill="black"/>
<path d="M20.5714 25.7142H18V28.2857H20.5714V25.7142Z" fill="black"/>
<path d="M23.1428 23.1428H20.5714V25.7143H23.1428V23.1428Z" fill="black"/>
<path d="M23.1428 18H20.5714V20.5714H23.1428V18Z" fill="black"/>
<path d="M18 28.2858H15.4286V30.8572H18V28.2858Z" fill="black"/>
</svg>
