<svg width="25" height="25" viewBox="0 0 25 25" fill="none" xmlns="http://www.w3.org/2000/svg">
<path d="M1.5625 23.4375H0V25H1.5625V23.4375Z" fill="#FFFFFF"/>
<path d="M1.5625 21.875H0V23.4375H1.5625V21.875Z" fill="#FFFFFF"/>
<path d="M1.5625 20.3125H0V21.875H1.5625V20.3125Z" fill="#FFFFFF"/>
<path d="M1.5625 18.75H0V20.3125H1.5625V18.75Z" fill="#FFFFFF"/>
<path d="M1.5625 17.1875H0V18.75H1.5625V17.1875Z" fill="#FFFFFF"/>
<path d="M1.5625 15.625H0V17.1875H1.5625V15.625Z" fill="#FFFFFF"/>
<path d="M1.5625 14.0625H0V15.625H1.5625V14.0625Z" fill="#FFFFFF"/>
<path d="M1.5625 12.5H0V14.0625H1.5625V12.5Z" fill="#FFFFFF"/>
<path d="M1.5625 10.9375H0V12.5H1.5625V10.9375Z" fill="#FFFFFF"/>
<path d="M1.5625 7.8125H0V9.375H1.5625V7.8125Z" fill="#FFFFFF"/>
<path d="M1.5625 6.25H0V7.8125H1.5625V6.25Z" fill="#FFFFFF"/>
<path d="M3.125 6.25H1.5625V7.8125H3.125V6.25Z" fill="#FFFFFF"/>
<path d="M18.75 20.3125H17.1875V21.875H18.75V20.3125Z" fill="#FFFFFF"/>
<path d="M18.75 18.75H17.1875V20.3125H18.75V18.75Z" fill="#FFFFFF"/>
<path d="M18.75 23.4375H17.1875V25H18.75V23.4375Z" fill="#FFFFFF"/>
<path d="M20.3125 23.4375H18.75V25H20.3125V23.4375Z" fill="#FFFFFF"/>
<path d="M21.875 23.4375H20.3125V25H21.875V23.4375Z" fill="#FFFFFF"/>
<path d="M21.875 21.875H20.3125V23.4375H21.875V21.875Z" fill="#FFFFFF"/>
<path d="M21.875 20.3125H20.3125V21.875H21.875V20.3125Z" fill="#FFFFFF"/>
<path d="M21.875 18.75H20.3125V20.3125H21.875V18.75Z" fill="#FFFFFF"/>
<path d="M21.875 17.1875H20.3125V18.75H21.875V17.1875Z" fill="#FFFFFF"/>
<path d="M21.875 15.625H20.3125V17.1875H21.875V15.625Z" fill="#FFFFFF"/>
<path d="M23.4375 23.4375H21.875V25H23.4375V23.4375Z" fill="#FFFFFF"/>
<path d="M18.75 21.875H17.1875V23.4375H18.75V21.875Z" fill="#FFFFFF"/>
<path d="M18.75 17.1875H17.1875V18.75H18.75V17.1875Z" fill="#FFFFFF"/>
<path d="M18.75 15.625H17.1875V17.1875H18.75V15.625Z" fill="#FFFFFF"/>
<path d="M18.75 14.0625H17.1875V15.625H18.75V14.0625Z" fill="#FFFFFF"/>
<path d="M18.75 12.5H17.1875V14.0625H18.75V12.5Z" fill="#FFFFFF"/>
<path d="M18.75 10.9375H17.1875V12.5H18.75V10.9375Z" fill="#FFFFFF"/>
<path d="M18.75 7.8125H17.1875V9.375H18.75V7.8125Z" fill="#FFFFFF"/>
<path d="M4.6875 4.6875H3.125V6.25H4.6875V4.6875Z" fill="#FFFFFF"/>
<path d="M4.6875 3.125H3.125V4.6875H4.6875V3.125Z" fill="#FFFFFF"/>
<path d="M6.25 1.5625H4.6875V3.125H6.25V1.5625Z" fill="#FFFFFF"/>
<path d="M7.8125 0H6.25V1.5625H7.8125V0Z" fill="#FFFFFF"/>
<path d="M10.9375 0H9.375V1.5625H10.9375V0Z" fill="#FFFFFF"/>
<path d="M9.375 0H7.8125V1.5625H9.375V0Z" fill="#FFFFFF"/>
<path d="M14.0625 1.5625H12.5V3.125H14.0625V1.5625Z" fill="#FFFFFF"/>
<path d="M15.625 3.125H14.0625V4.6875H15.625V3.125Z" fill="#FFFFFF"/>
<path d="M15.625 4.6875H14.0625V6.25H15.625V4.6875Z" fill="#FFFFFF"/>
<path d="M9.375 4.6875H7.8125V6.25H9.375V4.6875Z" fill="#FFFFFF"/>
<path d="M9.375 3.125H7.8125V4.6875H9.375V3.125Z" fill="#FFFFFF"/>
<path d="M10.9375 1.5625H9.375V3.125H10.9375V1.5625Z" fill="#FFFFFF"/>
<path d="M6.25 6.25H4.6875V7.8125H6.25V6.25Z" fill="#FFFFFF"/>
<path d="M7.8125 6.25H6.25V7.8125H7.8125V6.25Z" fill="#FFFFFF"/>
<path d="M9.375 6.25H7.8125V7.8125H9.375V6.25Z" fill="#FFFFFF"/>
<path d="M10.9375 6.25H9.375V7.8125H10.9375V6.25Z" fill="#FFFFFF"/>
<path d="M12.5 6.25H10.9375V7.8125H12.5V6.25Z" fill="#FFFFFF"/>
<path d="M15.625 6.25H14.0625V7.8125H15.625V6.25Z" fill="#FFFFFF"/>
<path d="M18.75 6.25H17.1875V7.8125H18.75V6.25Z" fill="#FFFFFF"/>
<path d="M20.3125 6.25H18.75V7.8125H20.3125V6.25Z" fill="#FFFFFF"/>
<path d="M21.875 6.25H20.3125V7.8125H21.875V6.25Z" fill="#FFFFFF"/>
<path d="M21.875 7.8125H20.3125V9.375H21.875V7.8125Z" fill="#FFFFFF"/>
<path d="M21.875 10.9375H20.3125V12.5H21.875V10.9375Z" fill="#FFFFFF"/>
<path d="M23.4375 6.25H21.875V7.8125H23.4375V6.25Z" fill="#FFFFFF"/>
<path d="M25 6.25H23.4375V7.8125H25V6.25Z" fill="#FFFFFF"/>
<path d="M18.75 7.8125H17.1875V9.375H18.75V7.8125Z" fill="#FFFFFF"/>
<path d="M25 20.3125H23.4375V21.875H25V20.3125Z" fill="#FFFFFF"/>
<path d="M25 18.75H23.4375V20.3125H25V18.75Z" fill="#FFFFFF"/>
<path d="M25 23.4375H23.4375V25H25V23.4375Z" fill="#FFFFFF"/>
<path d="M25 21.875H23.4375V23.4375H25V21.875Z" fill="#FFFFFF"/>
<path d="M25 17.1875H23.4375V18.75H25V17.1875Z" fill="#FFFFFF"/>
<path d="M25 15.625H23.4375V17.1875H25V15.625Z" fill="#FFFFFF"/>
<path d="M25 14.0625H23.4375V15.625H25V14.0625Z" fill="#FFFFFF"/>
<path d="M25 12.5H23.4375V14.0625H25V12.5Z" fill="#FFFFFF"/>
<path d="M25 10.9375H23.4375V12.5H25V10.9375Z" fill="#FFFFFF"/>
<path d="M1.5625 9.375H0V10.9375H1.5625V9.375Z" fill="#FFFFFF"/>
<path d="M18.75 9.375H17.1875V10.9375H18.75V9.375Z" fill="#FFFFFF"/>
<path d="M21.875 9.375H20.3125V10.9375H21.875V9.375Z" fill="#FFFFFF"/>
<path d="M25 9.375H23.4375V10.9375H25V9.375Z" fill="#FFFFFF"/>
<path d="M25 7.8125H23.4375V9.375H25V7.8125Z" fill="#FFFFFF"/>
<path d="M25 7.8125H23.4375V9.375H25V7.8125Z" fill="#FFFFFF"/>
<path d="M14.0625 6.25H12.5V7.8125H14.0625V6.25Z" fill="#FFFFFF"/>
<path d="M3.125 23.4375H1.5625V25H3.125V23.4375Z" fill="#FFFFFF"/>
<path d="M4.6875 6.25H3.125V7.8125H4.6875V6.25Z" fill="#FFFFFF"/>
<path d="M4.6875 23.4375H3.125V25H4.6875V23.4375Z" fill="#FFFFFF"/>
<path d="M17.1875 6.25H15.625V7.8125H17.1875V6.25Z" fill="#FFFFFF"/>
<path d="M17.1875 23.4375H15.625V25H17.1875V23.4375Z" fill="#FFFFFF"/>
<path d="M6.25 23.4375H4.6875V25H6.25V23.4375Z" fill="#FFFFFF"/>
<path d="M7.8125 23.4375H6.25V25H7.8125V23.4375Z" fill="#FFFFFF"/>
<path d="M9.375 23.4375H7.8125V25H9.375V23.4375Z" fill="#FFFFFF"/>
<path d="M10.9375 23.4375H9.375V25H10.9375V23.4375Z" fill="#FFFFFF"/>
<path d="M12.5 23.4375H10.9375V25H12.5V23.4375Z" fill="#FFFFFF"/>
<path d="M15.625 23.4375H14.0625V25H15.625V23.4375Z" fill="#FFFFFF"/>
<path d="M14.0625 23.4375H12.5V25H14.0625V23.4375Z" fill="#FFFFFF"/>
<path d="M4.6875 7.8125H3.125V9.375H4.6875V7.8125Z" fill="#FFFFFF"/>
<path d="M15.625 7.8125H14.0625V9.375H15.625V7.8125Z" fill="#FFFFFF"/>
<path d="M12.5 0H10.9375V1.5625H12.5V0Z" fill="#FFFFFF"/>
<path d="M17.1875 0H15.625V1.5625H17.1875V0Z" fill="#FFFFFF"/>
<path d="M15.625 0H14.0625V1.5625H15.625V0Z" fill="#FFFFFF"/>
<path d="M18.75 1.5625H17.1875V3.125H18.75V1.5625Z" fill="#FFFFFF"/>
<path d="M20.3125 3.125H18.75V4.6875H20.3125V3.125Z" fill="#FFFFFF"/>
<path d="M20.3125 4.6875H18.75V6.25H20.3125V4.6875Z" fill="#FFFFFF"/>
</svg>
