<svg width="17" height="19" viewBox="0 0 17 19" fill="none" xmlns="http://www.w3.org/2000/svg">
<path d="M16.7999 15.2C16.8266 15.36 16.8399 15.5067 16.8399 15.64C16.8399 15.7733 16.8399 15.9067 16.8399 16.04C16.8399 16.6 16.6799 17.08 16.3599 17.48C16.0666 17.8533 15.5866 18.04 14.9199 18.04C14.6266 18.04 14.3199 17.9733 13.9999 17.84C13.6799 17.7067 13.3199 17.5333 12.9199 17.32L1.47991 11.2C1.29324 10.9333 1.14658 10.64 1.03991 10.32C0.933245 9.97333 0.879911 9.61333 0.879911 9.24C0.879911 8.62667 0.973245 8.14667 1.15991 7.8C1.34658 7.45333 1.59991 7.2 1.91991 7.04L14.8799 0.44C15.5732 0.653332 16.0532 0.933332 16.3199 1.28C16.6132 1.62667 16.7599 2.01333 16.7599 2.44C16.7599 3.02667 16.5999 3.49333 16.2799 3.84C15.9599 4.16 15.5199 4.48 14.9599 4.8L4.91991 9.24L16.7999 15.2Z" fill="#919191"/>
</svg>
