<svg width="36" height="25" viewBox="0 0 36 25" fill="none" xmlns="http://www.w3.org/2000/svg">
<path d="M33.75 13.5L36 13.5L36 11.25L33.75 11.25L33.75 13.5Z" fill="black"/>
<path d="M33.75 15.75L36 15.75L36 13.5L33.75 13.5L33.75 15.75Z" fill="black"/>
<path d="M33.75 18L36 18L36 15.75L33.75 15.75L33.75 18Z" fill="black"/>
<path d="M33.75 11.25L36 11.25L36 9L33.75 9L33.75 11.25Z" fill="black"/>
<path d="M33.75 9L36 9L36 6.75L33.75 6.75L33.75 9Z" fill="black"/>
<path d="M0 13.5L2.25 13.5L2.25 11.25L1.00272e-10 11.25L0 13.5Z" fill="black"/>
<path d="M2.25 15.75L4.5 15.75L4.5 13.5L2.25 13.5L2.25 15.75Z" fill="black"/>
<path d="M4.5 18L6.75 18L6.75 15.75L4.5 15.75L4.5 18Z" fill="black"/>
<path d="M6.75 20.25L9 20.25L9 18L6.75 18L6.75 20.25Z" fill="black"/>
<path d="M13.5 22.5L15.75 22.5L15.75 20.25L13.5 20.25L13.5 22.5Z" fill="black"/>
<path d="M9 22.5L11.25 22.5L11.25 20.25L9 20.25L9 22.5Z" fill="black"/>
<path d="M11.25 24.75L13.5 24.75L13.5 22.5L11.25 22.5L11.25 24.75Z" fill="black"/>
<path d="M13.5 24.75L15.75 24.75L15.75 22.5L13.5 22.5L13.5 24.75Z" fill="black"/>
<path d="M13.5 20.25L15.75 20.25L15.75 18L13.5 18L13.5 20.25Z" fill="black"/>
<path d="M2.25 11.25L4.5 11.25L4.5 9L2.25 9L2.25 11.25Z" fill="black"/>
<path d="M4.5 9L6.75 9L6.75 6.75L4.5 6.75L4.5 9Z" fill="black"/>
<path d="M6.75 6.75L9 6.75L9 4.5L6.75 4.5L6.75 6.75Z" fill="black"/>
<path d="M9 4.5L11.25 4.5L11.25 2.25L9 2.25L9 4.5Z" fill="black"/>
<path d="M11.25 2.25L13.5 2.25L13.5 0L11.25 -1.00272e-10L11.25 2.25Z" fill="black"/>
<path d="M13.5 6.75L15.75 6.75L15.75 4.5L13.5 4.5L13.5 6.75Z" fill="black"/>
<path d="M13.5 4.5L15.75 4.5L15.75 2.25L13.5 2.25L13.5 4.5Z" fill="black"/>
<path d="M13.5 2.25L15.75 2.25L15.75 0L13.5 -1.00272e-10L13.5 2.25Z" fill="black"/>
<path d="M31.5 9L33.75 9L33.75 6.75L31.5 6.75L31.5 9Z" fill="black"/>
<path d="M29.25 9L31.5 9L31.5 6.75L29.25 6.75L29.25 9Z" fill="black"/>
<path d="M27 9L29.25 9L29.25 6.75L27 6.75L27 9Z" fill="black"/>
<path d="M24.75 9L27 9L27 6.75L24.75 6.75L24.75 9Z" fill="black"/>
<path d="M22.5 9L24.75 9L24.75 6.75L22.5 6.75L22.5 9Z" fill="black"/>
<path d="M20.25 9L22.5 9L22.5 6.75L20.25 6.75L20.25 9Z" fill="black"/>
<path d="M18 9L20.25 9L20.25 6.75L18 6.75L18 9Z" fill="black"/>
<path d="M15.75 9L18 9L18 6.75L15.75 6.75L15.75 9Z" fill="black"/>
<path d="M13.5 9L15.75 9L15.75 6.75L13.5 6.75L13.5 9Z" fill="black"/>
<path d="M18 18L20.25 18L20.25 15.75L18 15.75L18 18Z" fill="black"/>
<path d="M15.75 18L18 18L18 15.75L15.75 15.75L15.75 18Z" fill="black"/>
<path d="M13.5 18L15.75 18L15.75 15.75L13.5 15.75L13.5 18Z" fill="black"/>
<path d="M31.5 18L33.75 18L33.75 15.75L31.5 15.75L31.5 18Z" fill="black"/>
<path d="M29.25 18L31.5 18L31.5 15.75L29.25 15.75L29.25 18Z" fill="black"/>
<path d="M27 18L29.25 18L29.25 15.75L27 15.75L27 18Z" fill="black"/>
<path d="M24.75 18L27 18L27 15.75L24.75 15.75L24.75 18Z" fill="black"/>
<path d="M22.5 18L24.75 18L24.75 15.75L22.5 15.75L22.5 18Z" fill="black"/>
<path d="M20.25 18L22.5 18L22.5 15.75L20.25 15.75L20.25 18Z" fill="black"/>
</svg>
